    <svg xmlns="http://www.w3.org/2000/svg" style="display: none;">
        <symbol id="icon-main" viewBox="0 0 18 19">
            <title>Panel principal</title>
            <path
                d="M10 6.49994V0.499939H18V6.49994H10ZM0 10.4999V0.499939H8V10.4999H0ZM10 18.4999V8.49994H18V18.4999H10ZM0 18.4999V12.4999H8V18.4999H0ZM2 8.49994H6V2.49994H2V8.49994ZM12 16.4999H16V10.4999H12V16.4999ZM12 4.49994H16V2.49994H12V4.49994ZM2 16.4999H6V14.4999H2V16.4999Z" />
        </symbol>

        <symbol id="icon-user" viewBox="0 0 18 19">
            <title>Usuarios</title>
            <path
                d="M9 9.50003C7.7625 9.50003 6.70312 9.05941 5.82187 8.17816C4.94062 7.29691 4.5 6.23753 4.5 5.00003C4.5 3.76253 4.94062 2.70316 5.82187 1.82191C6.70312 0.940655 7.7625 0.500031 9 0.500031C10.2375 0.500031 11.2969 0.940655 12.1781 1.82191C13.0594 2.70316 13.5 3.76253 13.5 5.00003C13.5 6.23753 13.0594 7.29691 12.1781 8.17816C11.2969 9.05941 10.2375 9.50003 9 9.50003ZM0 18.5V15.35C0 14.7125 0.164062 14.1266 0.492188 13.5922C0.820312 13.0578 1.25625 12.65 1.8 12.3688C2.9625 11.7875 4.14375 11.3516 5.34375 11.061C6.54375 10.7703 7.7625 10.625 9 10.625C10.2375 10.625 11.4562 10.7703 12.6562 11.061C13.8562 11.3516 15.0375 11.7875 16.2 12.3688C16.7437 12.65 17.1797 13.0578 17.5078 13.5922C17.8359 14.1266 18 14.7125 18 15.35V18.5H0ZM2.25 16.25H15.75V15.35C15.75 15.1438 15.6984 14.9563 15.5953 14.7875C15.4922 14.6188 15.3562 14.4875 15.1875 14.3938C14.175 13.8875 13.1531 13.5078 12.1219 13.2547C11.0906 13.0016 10.05 12.875 9 12.875C7.95 12.875 6.90937 13.0016 5.87812 13.2547C4.84687 13.5078 3.825 13.8875 2.8125 14.3938C2.64375 14.4875 2.50781 14.6188 2.40469 14.7875C2.30156 14.9563 2.25 15.1438 2.25 15.35V16.25ZM9 7.25003C9.61875 7.25003 10.1484 7.02972 10.5891 6.58909C11.0297 6.14847 11.25 5.61878 11.25 5.00003C11.25 4.38128 11.0297 3.85159 10.5891 3.41097C10.1484 2.97034 9.61875 2.75003 9 2.75003C8.38125 2.75003 7.85156 2.97034 7.41094 3.41097C6.97031 3.85159 6.75 4.38128 6.75 5.00003C6.75 5.61878 6.97031 6.14847 7.41094 6.58909C7.85156 7.02972 8.38125 7.25003 9 7.25003Z" />
        </symbol>

        <symbol id="icon-users" viewBox="0 0 29 19">
            <title>Usuarios</title>
            <path
                d="M0 15.1066V13.2411C0 12.3923 0.434287 11.7013 1.30286 11.1684C2.17143 10.6354 3.31637 10.3689 4.73768 10.3689C4.9943 10.3689 5.24105 10.3738 5.47794 10.3837C5.71482 10.3936 5.94184 10.4182 6.15898 10.4577C5.88262 10.8723 5.67534 11.3065 5.53716 11.7606C5.39898 12.2146 5.32989 12.6884 5.32989 13.1819V15.1066H0ZM7.10651 15.1066V13.1819C7.10651 12.5502 7.27924 11.9728 7.6247 11.4497C7.97015 10.9265 8.45873 10.4676 9.09042 10.0728C9.72211 9.67797 10.4772 9.38186 11.3556 9.18446C12.2341 8.98705 13.1865 8.88835 14.213 8.88835C15.2593 8.88835 16.2216 8.98705 17.1 9.18446C17.9785 9.38186 18.7336 9.67797 19.3653 10.0728C19.9969 10.4676 20.4806 10.9265 20.8162 11.4497C21.1518 11.9728 21.3195 12.5502 21.3195 13.1819V15.1066H7.10651ZM23.0962 15.1066V13.1819C23.0962 12.6686 23.032 12.185 22.9037 11.731C22.7754 11.2769 22.5829 10.8525 22.3263 10.4577C22.5434 10.4182 22.7655 10.3936 22.9925 10.3837C23.2195 10.3738 23.4515 10.3689 23.6884 10.3689C25.1097 10.3689 26.2546 10.6304 27.1232 11.1536C27.9918 11.6767 28.4261 12.3725 28.4261 13.2411V15.1066H23.0962ZM9.6234 12.7377H18.8323C18.6349 12.3429 18.0871 11.9975 17.1889 11.7013C16.2907 11.4052 15.2987 11.2572 14.213 11.2572C13.1273 11.2572 12.1354 11.4052 11.2372 11.7013C10.339 11.9975 9.80107 12.3429 9.6234 12.7377ZM4.73768 9.18446C4.08625 9.18446 3.52858 8.95251 3.06468 8.48861C2.60079 8.02471 2.36884 7.46705 2.36884 6.81562C2.36884 6.14445 2.60079 5.58185 3.06468 5.12782C3.52858 4.67379 4.08625 4.44678 4.73768 4.44678C5.40885 4.44678 5.97145 4.67379 6.42547 5.12782C6.8795 5.58185 7.10651 6.14445 7.10651 6.81562C7.10651 7.46705 6.8795 8.02471 6.42547 8.48861C5.97145 8.95251 5.40885 9.18446 4.73768 9.18446ZM23.6884 9.18446C23.037 9.18446 22.4793 8.95251 22.0154 8.48861C21.5515 8.02471 21.3195 7.46705 21.3195 6.81562C21.3195 6.14445 21.5515 5.58185 22.0154 5.12782C22.4793 4.67379 23.037 4.44678 23.6884 4.44678C24.3596 4.44678 24.9222 4.67379 25.3762 5.12782C25.8302 5.58185 26.0572 6.14445 26.0572 6.81562C26.0572 7.46705 25.8302 8.02471 25.3762 8.48861C24.9222 8.95251 24.3596 9.18446 23.6884 9.18446ZM14.213 8.00004C13.226 8.00004 12.387 7.65458 11.6961 6.96367C11.0052 6.27276 10.6598 5.4338 10.6598 4.44678C10.6598 3.44003 11.0052 2.59613 11.6961 1.91509C12.387 1.23404 13.226 0.893524 14.213 0.893524C15.2198 0.893524 16.0637 1.23404 16.7447 1.91509C17.4258 2.59613 17.7663 3.44003 17.7663 4.44678C17.7663 5.4338 17.4258 6.27276 16.7447 6.96367C16.0637 7.65458 15.2198 8.00004 14.213 8.00004ZM14.213 5.6312C14.5486 5.6312 14.8299 5.51769 15.0569 5.29068C15.2839 5.06367 15.3974 4.78237 15.3974 4.44678C15.3974 4.1112 15.2839 3.8299 15.0569 3.60288C14.8299 3.37587 14.5486 3.26236 14.213 3.26236C13.8774 3.26236 13.5961 3.37587 13.3691 3.60288C13.1421 3.8299 13.0286 4.1112 13.0286 4.44678C13.0286 4.78237 13.1421 5.06367 13.3691 5.29068C13.5961 5.51769 13.8774 5.6312 14.213 5.6312Z" />
        </symbol>

        <symbol id="icon-ofertas" viewBox="0 0 18 19">
            <title>Ofertas Laborales</title>
            <path
                d="M7.81875 14.8999L14.175 9.81494L12.5437 8.50994L7.79062 12.3124L5.42812 10.4224L3.825 11.7049L7.81875 14.8999ZM2.25 18.4999C1.63125 18.4999 1.10156 18.3237 0.660937 17.9712C0.220312 17.6187 0 17.1949 0 16.6999V2.29994C0 1.80494 0.220312 1.38119 0.660937 1.02869C1.10156 0.676189 1.63125 0.499939 2.25 0.499939H11.25L18 5.89994V16.6999C18 17.1949 17.7797 17.6187 17.3391 17.9712C16.8984 18.3237 16.3687 18.4999 15.75 18.4999H2.25ZM10.125 6.79994V2.29994H2.25V16.6999H15.75V6.79994H10.125Z" />
        </symbol>

        <symbol id="icon-postulaciones" viewBox="0 0 18 19">
            <title>Postulaciones</title>
            <path
                d="M5.32579 18.5L0 5.82582L15.3371 6.83714L5.32579 18.5ZM5.66133 15.563L11.9017 8.28071L2.33271 7.64163L3.49773 10.4141L7.9994 9.92049L4.49631 12.7905L5.66133 15.563Z" />
        </symbol>

        <symbol id="icon-pagos" viewBox="0 0 18 19">
            <title>Pagos y comisiones</title>
            <path
                d="M10.6364 10.625C9.95455 10.625 9.375 10.2969 8.89773 9.64066C8.42045 8.98441 8.18182 8.18753 8.18182 7.25003C8.18182 6.31253 8.42045 5.51566 8.89773 4.85941C9.375 4.20316 9.95455 3.87503 10.6364 3.87503C11.3182 3.87503 11.8977 4.20316 12.375 4.85941C12.8523 5.51566 13.0909 6.31253 13.0909 7.25003C13.0909 8.18753 12.8523 8.98441 12.375 9.64066C11.8977 10.2969 11.3182 10.625 10.6364 10.625ZM4.90909 14C4.45909 14 4.07386 13.7797 3.75341 13.3391C3.43295 12.8985 3.27273 12.3688 3.27273 11.75V2.75003C3.27273 2.13128 3.43295 1.60159 3.75341 1.16097C4.07386 0.720343 4.45909 0.500031 4.90909 0.500031H16.3636C16.8136 0.500031 17.1989 0.720343 17.5193 1.16097C17.8398 1.60159 18 2.13128 18 2.75003V11.75C18 12.3688 17.8398 12.8985 17.5193 13.3391C17.1989 13.7797 16.8136 14 16.3636 14H4.90909ZM6.54545 11.75H14.7273C14.7273 11.1313 14.8875 10.6016 15.208 10.161C15.5284 9.72034 15.9136 9.50003 16.3636 9.50003V5.00003C15.9136 5.00003 15.5284 4.77972 15.208 4.33909C14.8875 3.89847 14.7273 3.36878 14.7273 2.75003H6.54545C6.54545 3.36878 6.38523 3.89847 6.06477 4.33909C5.74432 4.77972 5.35909 5.00003 4.90909 5.00003V9.50003C5.35909 9.50003 5.74432 9.72034 6.06477 10.161C6.38523 10.6016 6.54545 11.1313 6.54545 11.75ZM15.5455 18.5H1.63636C1.18636 18.5 0.801136 18.2797 0.480682 17.8391C0.160227 17.3985 0 16.8688 0 16.25V3.87503H1.63636V16.25H15.5455V18.5Z" />
        </symbol>
        <symbol id="icon-reportes" viewBox="0 0 18 19">
            <title>Reportes</title>
            <path
                d="M9 14.5C9.28333 14.5 9.52083 14.4042 9.7125 14.2125C9.90417 14.0209 10 13.7834 10 13.5C10 13.2167 9.90417 12.9792 9.7125 12.7875C9.52083 12.5959 9.28333 12.5 9 12.5C8.71667 12.5 8.47917 12.5959 8.2875 12.7875C8.09583 12.9792 8 13.2167 8 13.5C8 13.7834 8.09583 14.0209 8.2875 14.2125C8.47917 14.4042 8.71667 14.5 9 14.5ZM8 10.5H10V4.50003H8V10.5ZM5.25 18.5L0 13.25V5.75003L5.25 0.500031H12.75L18 5.75003V13.25L12.75 18.5H5.25ZM6.1 16.5H11.9L16 12.4V6.60003L11.9 2.50003H6.1L2 6.60003V12.4L6.1 16.5Z" />
        </symbol>

        <symbol id="icon-edit" viewBox="0 0 16 16" fill="currentColor">
            <title>Edit</title>
             <path d="M12.146.146a.5.5 0 0 1 .708 0l3 3a.5.5 0 0 1 0 .708l-10 10a.5.5 0 0 1-.168.11l-5 2a.5.5 0 0 1-.65-.65l2-5a.5.5 0 0 1 .11-.168zM11.207 2.5 13.5 4.793 14.793 3.5 12.5 1.207zm1.586 3L10.5 3.207 4 9.707V10h.5a.5.5 0 0 1 .5.5v.5h.5a.5.5 0 0 1 .5.5v.5h.293zm-9.761 5.175-.106.106-1.528 3.821 3.821-1.528.106-.106A.5.5 0 0 1 5 12.5V12h-.5a.5.5 0 0 1-.5-.5V11h-.5a.5.5 0 0 1-.468-.325"/>
          </symbol>
        <symbol id="icon-eye" viewBox="0 0 16 16">
            <title>Visibility</title>
            <path d="M16 8s-3-5.5-8-5.5S0 8 0 8s3 5.5 8 5.5S16 8 16 8M1.173 8a13 13 0 0 1 1.66-2.043C4.12 4.668 5.88 3.5 8 3.5s3.879 1.168 5.168 2.457A13 13 0 0 1 14.828 8q-.086.13-.195.288c-.335.48-.83 1.12-1.465 1.755C11.879 11.332 10.119 12.5 8 12.5s-3.879-1.168-5.168-2.457A13 13 0 0 1 1.172 8z"/>
            <path d="M8 5.5a2.5 2.5 0 1 0 0 5 2.5 2.5 0 0 0 0-5M4.5 8a3.5 3.5 0 1 1 7 0 3.5 3.5 0 0 1-7 0"/>        
        </symbol>
        <symbol id="icon-plus-circle" viewBox="0 0 16 16">
            <title>Plus Circle </title>
            <path d="M8 15A7 7 0 1 1 8 1a7 7 0 0 1 0 14m0 1A8 8 0 1 0 8 0a8 8 0 0 0 0 16"/>
            <path d="M8 4a.5.5 0 0 1 .5.5v3h3a.5.5 0 0 1 0 1h-3v3a.5.5 0 0 1-1 0v-3h-3a.5.5 0 0 1 0-1h3v-3A.5.5 0 0 1 8 4"/>        
        </symbol>
        <symbol id="icon-search" viewBox="0 0 16 16">
            <title>Search</title>
            <path d="M11.742 10.344a6.5 6.5 0 1 0-1.397 1.398h-.001q.044.06.098.115l3.85 3.85a1 1 0 0 0 1.415-1.414l-3.85-3.85a1 1 0 0 0-.115-.1zM12 6.5a5.5 5.5 0 1 1-11 0 5.5 5.5 0 0 1 11 0"/>
        </symbol>
        <symbol id="icon-trash" viewBox="0 0 16 16">
            <title>Trash</title>
           <path d="M5.5 5.5A.5.5 0 0 1 6 6v6a.5.5 0 0 1-1 0V6a.5.5 0 0 1 .5-.5m2.5 0a.5.5 0 0 1 .5.5v6a.5.5 0 0 1-1 0V6a.5.5 0 0 1 .5-.5m3 .5a.5.5 0 0 0-1 0v6a.5.5 0 0 0 1 0z"/>
            <path d="M14.5 3a1 1 0 0 1-1 1H13v9a2 2 0 0 1-2 2H5a2 2 0 0 1-2-2V4h-.5a1 1 0 0 1-1-1V2a1 1 0 0 1 1-1H6a1 1 0 0 1 1-1h2a1 1 0 0 1 1 1h3.5a1 1 0 0 1 1 1zM4.118 4 4 4.059V13a1 1 0 0 0 1 1h6a1 1 0 0 0 1-1V4.059L11.882 4zM2.5 3h11V2h-11z"/>
        </symbol>
        <symbol id="icon-clock" viewBox="0 0 24 24">
            <title>Clock</title>
            <path d="M15.3,16.7l1.4-1.4L13,11.6V7h-2v5.4L15.3,16.7z M12,22c-1.4,0-2.7-0.3-3.9-0.8c-1.2-0.5-2.3-1.2-3.2-2.1s-1.6-2-2.1-3.2
       S2,13.4,2,12s0.3-2.7,0.8-3.9S4,5.8,4.9,4.9s2-1.6,3.2-2.1S10.6,2,12,2s2.7,0.3,3.9,0.8s2.3,1.2,3.2,2.1s1.6,2,2.1,3.2
       C21.7,9.3,22,10.6,22,12s-0.3,2.7-0.8,3.9c-0.5,1.2-1.2,2.3-2.1,3.2s-2,1.6-3.2,2.1C14.7,21.7,13.4,22,12,22z M12,20
       c2.2,0,4.1-0.8,5.7-2.3c1.6-1.6,2.3-3.4,2.3-5.7s-0.8-4.1-2.3-5.7S14.2,4,12,4S7.9,4.8,6.3,6.3S4,9.8,4,12s0.8,4.1,2.3,5.7
       C7.9,19.2,9.8,20,12,20z" />
        </symbol>

                <symbol id="icon-shield" viewBox="0 0 24 24">
            <title>Shield</title>
            <path d="M12,22c-2.3-0.6-4.2-1.9-5.7-4S4,13.6,4,11.1V5l8-3l8,3v6.1c0,2.5-0.8,4.8-2.3,6.9C16.2,20.1,14.3,21.4,12,22z M12,19.9
	c1.7-0.6,3.2-1.7,4.3-3.3c1.1-1.6,1.7-3.5,1.7-5.5V6.4l-6-2.3L6,6.4v4.7c0,2,0.6,3.9,1.7,5.5S10.3,19.4,12,19.9z" />
        </symbol>

        <symbol id="icon-uservalue" viewBox="0 0 24 24">
            <title>User</title>
            <path d="M12,12c-1.1,0-2-0.4-2.8-1.2C8.4,10,8,9.1,8,8s0.4-2,1.2-2.8S10.9,4,12,4s2,0.4,2.8,1.2S16,6.9,16,8s-0.4,2-1.2,2.8
       C14,11.6,13.1,12,12,12z M4,20v-2.8c0-0.6,0.1-1.1,0.4-1.6c0.3-0.5,0.7-0.8,1.2-1.1c1-0.5,2.1-0.9,3.2-1.2S10.9,13,12,13
       s2.2,0.1,3.3,0.4s2.1,0.6,3.1,1.2c0.5,0.3,0.9,0.6,1.2,1.1c0.3,0.5,0.4,1,0.4,1.6V20H4z M6,18h12v-0.8c0-0.2,0-0.4-0.1-0.5
       s-0.2-0.3-0.4-0.4c-0.9-0.4-1.8-0.8-2.7-1C13.9,15.1,12.9,15,12,15s-1.9,0.1-2.8,0.3c-0.9,0.2-1.8,0.6-2.7,1
       c-0.2,0.1-0.3,0.2-0.4,0.4C6,16.9,6,17,6,17.2V18z M12,10c0.6,0,1-0.2,1.4-0.6S14,8.6,14,8c0-0.6-0.2-1-0.6-1.4S12.6,6,12,6
       s-1,0.2-1.4,0.6S10,7.5,10,8c0,0.5,0.2,1,0.6,1.4S11.4,10,12,10z" />
        </symbol>


        <symbol id="icon-bolt" viewBox="0 0 24 24">
            <title>Bolt</title>
            <path class="st0" d="M12,15.6l3.2-4.6h-2.8l2-7H9v8h3V15.6z M10,22v-8H7V2h10l-2,7h4L10,22z M12,12H9H12z" />
        </symbol>

        <symbol id="icon-graduate" viewBox="0 0 24 24">
            <title>Graduate</title>
            <path class="st0" d="M12,21l-7-3.8v-6L1,9l11-6l11,6v8h-2v-6.9l-2,1.1v6L12,21z M12,12.7L18.9,9L12,5.3L5.2,9L12,12.7z M12,18.7
	l5-2.7v-3.8L12,15l-5-2.8V16L12,18.7z" />
        </symbol>

        <symbol id="icon-pc" viewBox="0 0 24 24">
            <title>Pc</title>
            <path class="st0" d="M1,21v-2h22v2H1z M4,18c-0.5,0-1-0.2-1.4-0.6S2,16.6,2,16V5c0-0.5,0.2-1,0.6-1.4S3.5,3,4,3h16
	c0.6,0,1,0.2,1.4,0.6S22,4.5,22,5v11c0,0.6-0.2,1-0.6,1.4S20.6,18,20,18H4z M4,16h16V5H4V16z M4,16V5V16z" />
        </symbol>

        <symbol id="icon-zen" viewBox="0 -960 960 960">
            <title>Zen</title>
            <path
              d="M480-80q-73-9-145-39.5T206.5-207Q150-264 115-351T80-560v-40h40q51 0 105 13t101 39q12-86 54.5-176.5T480-880q57 65 99.5 155.5T634-548q47-26 101-39t105-13h40v40q0 122-35 209t-91.5 144q-56.5 57-128 87.5T480-80Zm-2-82q-11-166-98.5-251T162-518q11 171 101.5 255T478-162Zm2-254q15-22 36.5-45.5T558-502q-2-57-22.5-119T480-742q-35 59-55.5 121T402-502q20 17 42 40.5t36 45.5Zm78 236q37-12 77-35t74.5-62.5q34.5-39.5 59-98.5T798-518q-94 14-165 62.5T524-332q12 32 20.5 70t13.5 82Z" />
        </symbol>

        <symbol id="icon-build" viewBox="0 0 24 24">
            <title>Build</title>
            <path class="st0"
              d="M3,21V7h4V3h10v8h4v10h-8v-4h-2v4H3z M5,19h2v-2H5V19z M5,15h2v-2H5V15z M5,11h2V9H5V11z M9,15h2v-2H9V15z
	 M9,11h2V9H9V11z M9,7h2V5H9V7z M13,15h2v-2h-2V15z M13,11h2V9h-2V11z M13,7h2V5h-2V7z M17,19h2v-2h-2V19z M17,15h2v-2h-2V15z" />
        </symbol>

        <symbol id="icon-finger" viewBox="0 0 29 32">
            <title>Finger</title>
            <path
                d="M12.7537 32C11.9906 32 11.2753 31.8476 10.6076 31.5429C9.93996 31.2381 9.37449 30.8063 8.91122 30.2476L0 19.6952L0.776666 18.9333C1.32169 18.4 1.97573 18.0825 2.73877 17.981C3.50181 17.8794 4.21035 18.019 4.86438 18.4L7.88929 20.1143V7.61905C7.88929 7.1873 8.04599 6.8254 8.35938 6.53333C8.67277 6.24127 9.0611 6.09524 9.52438 6.09524C9.98765 6.09524 10.3828 6.24127 10.7098 6.53333C11.0368 6.8254 11.2003 7.1873 11.2003 7.61905V25.6L7.23526 23.3143L11.4865 28.381C11.65 28.5587 11.8407 28.6984 12.0588 28.8C12.2768 28.9016 12.5084 28.9524 12.7537 28.9524H21.7875C22.6868 28.9524 23.4567 28.654 24.0971 28.0571C24.7375 27.4603 25.0577 26.7429 25.0577 25.9048V19.8095C25.0577 19.3778 24.901 19.0159 24.5876 18.7238C24.2742 18.4317 23.8859 18.2857 23.4226 18.2857H14.4705V15.2381H23.4226C24.7852 15.2381 25.9434 15.6825 26.8972 16.5714C27.851 17.4603 28.3279 18.5397 28.3279 19.8095V25.9048C28.3279 27.5809 27.6875 29.0159 26.4066 30.2095C25.1258 31.4032 23.5861 32 21.7875 32H12.7537ZM2.45263 11.4286C2.09836 10.8698 1.82585 10.2667 1.63509 9.61905C1.44433 8.97143 1.34895 8.30476 1.34895 7.61905C1.34895 5.51111 2.14605 3.71429 3.74026 2.22857C5.33447 0.742857 7.26251 0 9.52438 0C11.7862 0 13.7143 0.742857 15.3085 2.22857C16.9027 3.71429 17.6998 5.51111 17.6998 7.61905C17.6998 8.30476 17.6044 8.97143 17.4137 9.61905C17.2229 10.2667 16.9504 10.8698 16.5961 11.4286L13.7756 9.90476C13.9936 9.54921 14.1571 9.1873 14.2661 8.81905C14.3751 8.45079 14.4296 8.05079 14.4296 7.61905C14.4296 6.34921 13.9527 5.26984 12.9989 4.38095C12.0451 3.49206 10.8869 3.04762 9.52438 3.04762C8.16181 3.04762 7.00362 3.49206 6.04982 4.38095C5.09602 5.26984 4.61912 6.34921 4.61912 7.61905C4.61912 8.05079 4.67362 8.45079 4.78263 8.81905C4.89163 9.1873 5.05514 9.54921 5.27315 9.90476L2.45263 11.4286Z"
                 />
        </symbol>

        <symbol id="icon-book" viewBox="0 0 29 32">
            <title>Book</title>
            <path
                d="M6.53448 32C4.86782 32 3.4454 31.4533 2.26724 30.36C1.08908 29.2667 0.5 27.9467 0.5 26.4V5.6C0.5 4.05333 1.08908 2.73333 2.26724 1.64C3.4454 0.546667 4.86782 0 6.53448 0H28.0862V24C27.3678 24 26.7572 24.2333 26.2543 24.7C25.7514 25.1667 25.5 25.7333 25.5 26.4C25.5 27.0667 25.7514 27.6333 26.2543 28.1C26.7572 28.5667 27.3678 28.8 28.0862 28.8V32H6.53448ZM3.94828 21.32C4.35057 21.1333 4.76724 21 5.19828 20.92C5.62931 20.84 6.07471 20.8 6.53448 20.8H7.39655V3.2H6.53448C5.81609 3.2 5.20546 3.43333 4.70259 3.9C4.19971 4.36667 3.94828 4.93333 3.94828 5.6V21.32ZM10.8448 20.8H24.6379V3.2H10.8448V20.8ZM6.53448 28.8H22.6121C22.4397 28.4267 22.3032 28.0467 22.2026 27.66C22.102 27.2733 22.0517 26.8533 22.0517 26.4C22.0517 25.9733 22.0948 25.56 22.181 25.16C22.2672 24.76 22.4109 24.3733 22.6121 24H6.53448C5.78736 24 5.16954 24.2333 4.68103 24.7C4.19253 25.1667 3.94828 25.7333 3.94828 26.4C3.94828 27.0933 4.19253 27.6667 4.68103 28.12C5.16954 28.5733 5.78736 28.8 6.53448 28.8Z"
                fill="#f6c79e" fill-opacity="0.8" />
        </symbol>
        <symbol id="icon-check" viewBox="0 0 33 23">
            <title>Check</title>
            <path
                d="M11.6902 22.4512L0.5 11.8091L3.29755 9.14853L11.6902 17.1301L29.7025 0L32.5 2.66054L11.6902 22.4512Z"
                fill="#1d244a" fill-opacity="0.8" />
        </symbol>
        <symbol id="right-separator" viewBox="0 0 1358 65" fill="none">
            <title>Right Separator</title>
            <path d="M1358 64.9675V0.467514L0.91272 0.468262L39.6804 64.9675H1358Z" fill="black" fill-opacity="0.3" />
        </symbol>
        <symbol id="left-separator" viewBox="0 0 1358 65" fill="none">
            <title>Left Separator</title>
            <path d="M0 65V0.499985L1357.09 0.500732L1318.32 65H0Z" fill="black" fill-opacity="0.3" />
        </symbol>
        <symbol id="icon-briefcase" viewBox="0 0 16 16"  width="16" heigth="16">
            <title>Briefcase</title>
            <path d="M6.5 1A1.5 1.5 0 0 0 5 2.5V3H1.5A1.5 1.5 0 0 0 0 4.5v8A1.5 1.5 0 0 0 1.5 14h13a1.5 1.5 0 0 0 1.5-1.5v-8A1.5 1.5 0 0 0 14.5 3H11v-.5A1.5 1.5 0 0 0 9.5 1zm0 1h3a.5.5 0 0 1 .5.5V3H6v-.5a.5.5 0 0 1 .5-.5m1.886 6.914L15 7.151V12.5a.5.5 0 0 1-.5.5h-13a.5.5 0 0 1-.5-.5V7.15l6.614 1.764a1.5 1.5 0 0 0 .772 0M1.5 4h13a.5.5 0 0 1 .5.5v1.616L8.129 7.948a.5.5 0 0 1-.258 0L1 6.116V4.5a.5.5 0 0 1 .5-.5"/>
        </symbol>
        <symbol id="icon-arrow-forward" viewBox="0 0 17 16" fill="none">
            <title>Arrow Forward</title>
<path d="M0.814331 3.90424L8.25299 12.0958L15.6917 3.90424" stroke="currentColor" stroke-width="1.3"/>
</symbol>
        <symbol id="icon-bell" viewBox="0 16 16 16">
            <title>Bell</title>
            <path d="M8 16a2 2 0 0 0 2-2H6a2 2 0 0 0 2 2M8 1.918l-.797.161A4 4 0 0 0 4 6c0 .628-.134 2.197-.459 3.742-.16.767-.376 1.566-.663 2.258h10.244c-.287-.692-.502-1.49-.663-2.258C12.134 8.197 12 6.628 12 6a4 4 0 0 0-3.203-3.92zM14.22 12c.223.447.481.801.78 1H1c.299-.199.557-.553.78-1C2.68 10.2 3 6.88 3 6c0-2.42 1.72-4.44 4.005-4.901a1 1 0 1 1 1.99 0A5 5 0 0 1 13 6c0 .88.32 4.2 1.22 6"/>
        </symbol>
        <symbol id="icon-calendar" viewBox="0 -960 960 960">
            <title>Calendar</title>
            <path d="M200-80q-33 0-56.5-23.5T120-160v-560q0-33 23.5-56.5T200-800h40v-80h80v80h320v-80h80v80h40q33 0 56.5 23.5T840-720v560q0 33-23.5 56.5T760-80H200Zm0-80h560v-400H200v400Zm0-480h560v-80H200v80Zm0 0v-80 80Zm280 240q-17 0-28.5-11.5T440-440q0-17 11.5-28.5T480-480q17 0 28.5 11.5T520-440q0 17-11.5 28.5T480-400Zm-160 0q-17 0-28.5-11.5T280-440q0-17 11.5-28.5T320-480q17 0 28.5 11.5T360-440q0 17-11.5 28.5T320-400Zm320 0q-17 0-28.5-11.5T600-440q0-17 11.5-28.5T640-480q17 0 28.5 11.5T680-440q0 17-11.5 28.5T640-400ZM480-240q-17 0-28.5-11.5T440-280q0-17 11.5-28.5T480-320q17 0 28.5 11.5T520-280q0 17-11.5 28.5T480-240Zm-160 0q-17 0-28.5-11.5T280-280q0-17 11.5-28.5T320-320q17 0 28.5 11.5T360-280q0 17-11.5 28.5T320-240Zm320 0q-17 0-28.5-11.5T600-280q0-17 11.5-28.5T640-320q17 0 28.5 11.5T680-280q0 17-11.5 28.5T640-240Z" stroke-width="1.3"/>
        </symbol>
        <symbol id="icon-cash" viewBox="0 16 16 16">
            <title>Cash</title>
            <path d="M8 10a2 2 0 1 0 0-4 2 2 0 0 0 0 4"/>
            <path d="M0 4a1 1 0 0 1 1-1h14a1 1 0 0 1 1 1v8a1 1 0 0 1-1 1H1a1 1 0 0 1-1-1zm3 0a2 2 0 0 1-2 2v4a2 2 0 0 1 2 2h10a2 2 0 0 1 2-2V6a2 2 0 0 1-2-2z"/>
        </symbol>
        <symbol id="icon-flag" viewBox="0 16 16 16">
            <title>Flag</title>
            <path d="M14.778.085A.5.5 0 0 1 15 .5V8a.5.5 0 0 1-.314.464L14.5 8l.186.464-.003.001-.006.003-.023.009a12 12 0 0 1-.397.15c-.264.095-.631.223-1.047.35-.816.252-1.879.523-2.71.523-.847 0-1.548-.28-2.158-.525l-.028-.01C7.68 8.71 7.14 8.5 6.5 8.5c-.7 0-1.638.23-2.437.477A20 20 0 0 0 3 9.342V15.5a.5.5 0 0 1-1 0V.5a.5.5 0 0 1 1 0v.282c.226-.079.496-.17.79-.26C4.606.272 5.67 0 6.5 0c.84 0 1.524.277 2.121.519l.043.018C9.286.788 9.828 1 10.5 1c.7 0 1.638-.23 2.437-.477a20 20 0 0 0 1.349-.476l.019-.007.004-.002h.001M14 1.221c-.22.078-.48.167-.766.255-.81.252-1.872.523-2.734.523-.886 0-1.592-.286-2.203-.534l-.008-.003C7.662 1.21 7.139 1 6.5 1c-.669 0-1.606.229-2.415.478A21 21 0 0 0 3 1.845v6.433c.22-.078.48-.167.766-.255C4.576 7.77 5.638 7.5 6.5 7.5c.847 0 1.548.28 2.158.525l.028.01C9.32 8.29 9.86 8.5 10.5 8.5c.668 0 1.606-.229 2.415-.478A21 21 0 0 0 14 7.655V1.222z"/>
        </symbol>
        <symbol id="icon-set" viewBox="0 16 16 16">
            <title>Set</title>
            <path d="M8 4.754a3.246 3.246 0 1 0 0 6.492 3.246 3.246 0 0 0 0-6.492M5.754 8a2.246 2.246 0 1 1 4.492 0 2.246 2.246 0 0 1-4.492 0"/>
            <path d="M9.796 1.343c-.527-1.79-3.065-1.79-3.592 0l-.094.319a.873.873 0 0 1-1.255.52l-.292-.16c-1.64-.892-3.433.902-2.54 2.541l.159.292a.873.873 0 0 1-.52 1.255l-.319.094c-1.79.527-1.79 3.065 0 3.592l.319.094a.873.873 0 0 1 .52 1.255l-.16.292c-.892 1.64.901 3.434 2.541 2.54l.292-.159a.873.873 0 0 1 1.255.52l.094.319c.527 1.79 3.065 1.79 3.592 0l.094-.319a.873.873 0 0 1 1.255-.52l.292.16c1.64.893 3.434-.902 2.54-2.541l-.159-.292a.873.873 0 0 1 .52-1.255l.319-.094c1.79-.527 1.79-3.065 0-3.592l-.319-.094a.873.873 0 0 1-.52-1.255l.16-.292c.893-1.64-.902-3.433-2.541-2.54l-.292.159a.873.873 0 0 1-1.255-.52zm-2.633.283c.246-.835 1.428-.835 1.674 0l.094.319a1.873 1.873 0 0 0 2.693 1.115l.291-.16c.764-.415 1.6.42 1.184 1.185l-.159.292a1.873 1.873 0 0 0 1.116 2.692l.318.094c.835.246.835 1.428 0 1.674l-.319.094a1.873 1.873 0 0 0-1.115 2.693l.16.291c.415.764-.42 1.6-1.185 1.184l-.291-.159a1.873 1.873 0 0 0-2.693 1.116l-.094.318c-.246.835-1.428.835-1.674 0l-.094-.319a1.873 1.873 0 0 0-2.692-1.115l-.292.16c-.764.415-1.6-.42-1.184-1.185l.159-.291A1.873 1.873 0 0 0 1.945 8.93l-.319-.094c-.835-.246-.835-1.428 0-1.674l.319-.094A1.873 1.873 0 0 0 3.06 4.377l-.16-.292c-.415-.764.42-1.6 1.185-1.184l.292.159a1.873 1.873 0 0 0 2.692-1.115z"/>
        </symbol>
        <symbol id="icon-location" viewBox="0 16 16 16">
            <title>Location</title>
            <path d="M12.166 8.94c-.524 1.062-1.234 2.12-1.96 3.07A32 32 0 0 1 8 14.58a32 32 0 0 1-2.206-2.57c-.726-.95-1.436-2.008-1.96-3.07C3.304 7.867 3 6.862 3 6a5 5 0 0 1 10 0c0 .862-.305 1.867-.834 2.94M8 16s6-5.686 6-10A6 6 0 0 0 2 6c0 4.314 6 10 6 10"/>
            <path d="M8 8a2 2 0 1 1 0-4 2 2 0 0 1 0 4m0 1a3 3 0 1 0 0-6 3 3 0 0 0 0 6"/>
        </symbol>
        <symbol id="icon-message" viewBox="0 16 16 16">
            <title>Message</title>
            <path d="M0 4a2 2 0 0 1 2-2h12a2 2 0 0 1 2 2v8a2 2 0 0 1-2 2H2a2 2 0 0 1-2-2zm2-1a1 1 0 0 0-1 1v.217l7 4.2 7-4.2V4a1 1 0 0 0-1-1zm13 2.383-4.708 2.825L15 11.105zm-.034 6.876-5.64-3.471L8 9.583l-1.326-.795-5.64 3.47A1 1 0 0 0 2 13h12a1 1 0 0 0 .966-.741M1 11.105l4.708-2.897L1 5.383z"/>
        </symbol>
        <symbol id="icon-power" viewBox="0 16 16 16">
            <title>Power</title>
            <path d="M7.5 1v7h1V1z"/>
            <path d="M3 8.812a5 5 0 0 1 2.578-4.375l-.485-.874A6 6 0 1 0 11 3.616l-.501.865A5 5 0 1 1 3 8.812"/>
        </symbol>
        <symbol id="icon-profile" viewBox="0 16 16 16">
            <title>Profile</title>
            <path d="M6 8a3 3 0 1 0 0-6 3 3 0 0 0 0 6m-5 6s-1 0-1-1 1-4 6-4 6 3 6 4-1 1-1 1zM11 3.5a.5.5 0 0 1 .5-.5h4a.5.5 0 0 1 0 1h-4a.5.5 0 0 1-.5-.5m.5 2.5a.5.5 0 0 0 0 1h4a.5.5 0 0 0 0-1zm2 3a.5.5 0 0 0 0 1h2a.5.5 0 0 0 0-1zm0 3a.5.5 0 0 0 0 1h2a.5.5 0 0 0 0-1z"/>
        </symbol>
        <symbol id="icon-send" viewBox="0 16 16 16">
            <title>Send</title>
            <path d="M15.854.146a.5.5 0 0 1 .11.54l-5.819 14.547a.75.75 0 0 1-1.329.124l-3.178-4.995L.643 7.184a.75.75 0 0 1 .124-1.33L15.314.037a.5.5 0 0 1 .54.11ZM6.636 10.07l2.761 4.338L14.13 2.576zm6.787-8.201L1.591 6.602l4.339 2.76z"/>
        </symbol>
        <symbol id="icon-share" viewBox="0 16 16 16">
            <title>Share</title>
            <path d="M13.5 1a1.5 1.5 0 1 0 0 3 1.5 1.5 0 0 0 0-3M11 2.5a2.5 2.5 0 1 1 .603 1.628l-6.718 3.12a2.5 2.5 0 0 1 0 1.504l6.718 3.12a2.5 2.5 0 1 1-.488.876l-6.718-3.12a2.5 2.5 0 1 1 0-3.256l6.718-3.12A2.5 2.5 0 0 1 11 2.5m-8.5 4a1.5 1.5 0 1 0 0 3 1.5 1.5 0 0 0 0-3m11 5.5a1.5 1.5 0 1 0 0 3 1.5 1.5 0 0 0 0-3"/>
        </symbol>

        <symbol id="icon-filter" viewBox="0 0 16 16">
            <title>Filter</title>
            <path d="M1.5 1.5A.5.5 0 0 1 2 1h12a.5.5 0 0 1 .5.5v2a.5.5 0 0 1-.128.334L10 8.692V13.5a.5.5 0 0 1-.342.474l-3 1A.5.5 0 0 1 6 14.5V8.692L1.628 3.834A.5.5 0 0 1 1.5 3.5zm1 .5v1.308l4.372 4.858A.5.5 0 0 1 7 8.5v5.306l2-.666V8.5a.5.5 0 0 1 .128-.334L13.5 3.308V2z"/>        
        </symbol>
        <symbol id="icon-star" viewBox="0 0 16 16">
            <title>Star</title>
            <path d="M3.612 15.443c-.386.198-.824-.149-.746-.592l.83-4.73L.173 6.765c-.329-.314-.158-.888.283-.95l4.898-.696L7.538.792c.197-.39.73-.39.927 0l2.184 4.327 4.898.696c.441.062.612.636.282.95l-3.522 3.356.83 4.73c.078.443-.36.79-.746.592L8 13.187l-4.389 2.256z"/>
        </symbol>
    </svg>