cash
<svg xmlns="http://www.w3.org/2000/svg" width="28" height="28" viewBox="0 0 28 28" fill="none">
  <path fill-rule="evenodd" clip-rule="evenodd" d="M19.25 26.25C21.1065 26.25 22.887 25.5125 24.1997 24.1997C25.5125 22.887 26.25 21.1065 26.25 19.25C26.25 17.3935 25.5125 15.613 24.1997 14.3003C22.887 12.9875 21.1065 12.25 19.25 12.25C17.3935 12.25 15.613 12.9875 14.3003 14.3003C12.9875 15.613 12.25 17.3935 12.25 19.25C12.25 21.1065 12.9875 22.887 14.3003 24.1997C15.613 25.5125 17.3935 26.25 19.25 26.25ZM28 19.25C28 21.5706 27.0781 23.7962 25.4372 25.4372C23.7962 27.0781 21.5706 28 19.25 28C16.9294 28 14.7038 27.0781 13.0628 25.4372C11.4219 23.7962 10.5 21.5706 10.5 19.25C10.5 16.9294 11.4219 14.7038 13.0628 13.0628C14.7038 11.4219 16.9294 10.5 19.25 10.5C21.5706 10.5 23.7962 11.4219 25.4372 13.0628C27.0781 14.7038 28 16.9294 28 19.25Z" fill="currentColor"/>
  <path d="M16.5165 20.902C16.5988 21.945 17.423 22.757 18.9018 22.855V23.625H19.558V22.8498C21.0893 22.743 21.9835 21.924 21.9835 20.7375C21.9835 19.656 21.301 19.0995 20.076 18.8125L19.558 18.69V16.59C20.216 16.6652 20.6325 17.024 20.7323 17.521H21.8838C21.8015 16.5148 20.9388 15.729 19.558 15.6433V14.875H18.9018V15.6625C17.5945 15.7902 16.7055 16.576 16.7055 17.689C16.7055 18.6725 17.367 19.299 18.4678 19.5545L18.9018 19.6612V21.8872C18.2298 21.7857 17.7835 21.4148 17.6838 20.902H16.5165ZM18.8965 18.5325C18.2508 18.3838 17.9008 18.0775 17.9008 17.619C17.9008 17.1045 18.2788 16.7195 18.9018 16.6075V18.5325H18.8965ZM19.6525 19.838C20.4383 20.02 20.7988 20.314 20.7988 20.8337C20.7988 21.427 20.349 21.833 19.558 21.9082V19.817L19.6525 19.838Z" fill="currentColor"/>
  <path d="M1.75 0C1.28587 0 0.840752 0.184374 0.512563 0.512563C0.184374 0.840752 0 1.28587 0 1.75L0 15.75C0 16.2141 0.184374 16.6592 0.512563 16.9874C0.840752 17.3156 1.28587 17.5 1.75 17.5H8.89525C8.99792 16.8968 9.14842 16.3135 9.34675 15.75H5.25C5.25 14.8217 4.88125 13.9315 4.22487 13.2751C3.5685 12.6187 2.67826 12.25 1.75 12.25V5.25C2.67826 5.25 3.5685 4.88125 4.22487 4.22487C4.88125 3.5685 5.25 2.67826 5.25 1.75H22.75C22.75 2.67826 23.1187 3.5685 23.7751 4.22487C24.4315 4.88125 25.3217 5.25 26.25 5.25V11.424C26.915 12.019 27.5047 12.698 28 13.4435V1.75C28 1.28587 27.8156 0.840752 27.4874 0.512563C27.1592 0.184374 26.7141 0 26.25 0L1.75 0Z" fill="currentColor"/>
  <path d="M17.4965 8.89524L17.5 8.74999C17.4996 8.14728 17.3436 7.55487 17.0471 7.03014C16.7506 6.50542 16.3236 6.06615 15.8075 5.7549C15.2913 5.44365 14.7036 5.27095 14.1011 5.25354C13.4987 5.23612 12.9019 5.37458 12.3687 5.65551C11.8354 5.93643 11.3838 6.35029 11.0574 6.85702C10.7311 7.36374 10.5411 7.94615 10.506 8.54784C10.4708 9.14953 10.5916 9.7501 10.8567 10.2914C11.1218 10.8327 11.5221 11.2964 12.019 11.6375C13.5317 10.1993 15.4387 9.24458 17.4965 8.89524Z" fill="currentColor"/>
</svg>
shop
<svg xmlns="http://www.w3.org/2000/svg" width="28" height="28" viewBox="0 0 28 28" fill="none">
  <path d="M5.1975 2.3625C5.3618 2.17041 5.56577 2.01619 5.79536 1.91046C6.02495 1.80473 6.27473 1.74998 6.5275 1.75H21.4725C21.7253 1.74998 21.975 1.80473 22.2046 1.91046C22.4342 2.01619 22.6382 2.17041 22.8025 2.3625L27.3682 7.6895C27.7759 8.16521 28 8.77102 28 9.3975V9.84375C28.0001 10.71 27.7296 11.5546 27.2262 12.2595C26.7228 12.9644 26.0118 13.4945 25.1924 13.7756C24.3731 14.0566 23.4864 14.0747 22.6563 13.8272C21.8262 13.5797 21.0942 13.0791 20.5625 12.3953C20.1743 12.8954 19.6768 13.3001 19.108 13.5783C18.5393 13.8565 17.9144 14.0007 17.2812 14C16.6481 14.0007 16.0232 13.8565 15.4545 13.5783C14.8857 13.3001 14.3882 12.8954 14 12.3953C13.6118 12.8954 13.1143 13.3001 12.5455 13.5783C11.9768 13.8565 11.3519 14.0007 10.7188 14C10.0856 14.0007 9.46072 13.8565 8.89195 13.5783C8.32319 13.3001 7.82566 12.8954 7.4375 12.3953C6.90583 13.0791 6.17379 13.5797 5.34369 13.8272C4.51359 14.0747 3.6269 14.0566 2.80757 13.7756C1.98823 13.4945 1.27719 12.9644 0.773819 12.2595C0.270448 11.5546 -9.55475e-05 10.71 2.53129e-08 9.84375V9.3975C2.20632e-05 8.77102 0.224099 8.16521 0.63175 7.6895L5.1975 2.3625ZM8.3125 9.84375C8.3125 10.4819 8.56601 11.094 9.01727 11.5452C9.46853 11.9965 10.0806 12.25 10.7188 12.25C11.3569 12.25 11.969 11.9965 12.4202 11.5452C12.8715 11.094 13.125 10.4819 13.125 9.84375C13.125 9.61169 13.2172 9.38913 13.3813 9.22503C13.5454 9.06094 13.7679 8.96875 14 8.96875C14.2321 8.96875 14.4546 9.06094 14.6187 9.22503C14.7828 9.38913 14.875 9.61169 14.875 9.84375C14.875 10.4819 15.1285 11.094 15.5798 11.5452C16.031 11.9965 16.6431 12.25 17.2812 12.25C17.9194 12.25 18.5315 11.9965 18.9827 11.5452C19.434 11.094 19.6875 10.4819 19.6875 9.84375C19.6875 9.61169 19.7797 9.38913 19.9438 9.22503C20.1079 9.06094 20.3304 8.96875 20.5625 8.96875C20.7946 8.96875 21.0171 9.06094 21.1812 9.22503C21.3453 9.38913 21.4375 9.61169 21.4375 9.84375C21.4375 10.4819 21.691 11.094 22.1423 11.5452C22.5935 11.9965 23.2056 12.25 23.8438 12.25C24.4819 12.25 25.094 11.9965 25.5452 11.5452C25.9965 11.094 26.25 10.4819 26.25 9.84375V9.3975C26.25 9.18895 26.1755 8.98725 26.04 8.82875L21.4725 3.5H6.5275L1.96 8.82875C1.82446 8.98725 1.74998 9.18895 1.75 9.3975V9.84375C1.75 10.4819 2.00351 11.094 2.45477 11.5452C2.90603 11.9965 3.51807 12.25 4.15625 12.25C4.79443 12.25 5.40647 11.9965 5.85773 11.5452C6.30899 11.094 6.5625 10.4819 6.5625 9.84375C6.5625 9.61169 6.65469 9.38913 6.81878 9.22503C6.98288 9.06094 7.20544 8.96875 7.4375 8.96875C7.66956 8.96875 7.89212 9.06094 8.05622 9.22503C8.22031 9.38913 8.3125 9.61169 8.3125 9.84375ZM2.625 14.875C2.85706 14.875 3.07962 14.9672 3.24372 15.1313C3.40781 15.2954 3.5 15.5179 3.5 15.75V26.25H5.25V17.5C5.25 17.0359 5.43437 16.5908 5.76256 16.2626C6.09075 15.9344 6.53587 15.75 7 15.75H12.25C12.7141 15.75 13.1592 15.9344 13.4874 16.2626C13.8156 16.5908 14 17.0359 14 17.5V26.25H24.5V15.75C24.5 15.5179 24.5922 15.2954 24.7563 15.1313C24.9204 14.9672 25.1429 14.875 25.375 14.875C25.6071 14.875 25.8296 14.9672 25.9937 15.1313C26.1578 15.2954 26.25 15.5179 26.25 15.75V26.25H27.125C27.3571 26.25 27.5796 26.3422 27.7437 26.5063C27.9078 26.6704 28 26.8929 28 27.125C28 27.3571 27.9078 27.5796 27.7437 27.7437C27.5796 27.9078 27.3571 28 27.125 28H0.875C0.642936 28 0.420376 27.9078 0.256282 27.7437C0.0921873 27.5796 2.53129e-08 27.3571 2.53129e-08 27.125C2.53129e-08 26.8929 0.0921873 26.6704 0.256282 26.5063C0.420376 26.3422 0.642936 26.25 0.875 26.25H1.75V15.75C1.75 15.5179 1.84219 15.2954 2.00628 15.1313C2.17038 14.9672 2.39294 14.875 2.625 14.875ZM7 26.25H12.25V17.5H7V26.25ZM15.75 17.5C15.75 17.0359 15.9344 16.5908 16.2626 16.2626C16.5908 15.9344 17.0359 15.75 17.5 15.75H21C21.4641 15.75 21.9092 15.9344 22.2374 16.2626C22.5656 16.5908 22.75 17.0359 22.75 17.5V22.75C22.75 23.2141 22.5656 23.6592 22.2374 23.9874C21.9092 24.3156 21.4641 24.5 21 24.5H17.5C17.0359 24.5 16.5908 24.3156 16.2626 23.9874C15.9344 23.6592 15.75 23.2141 15.75 22.75V17.5ZM21 17.5H17.5V22.75H21V17.5Z" fill="currentColor"/>
</svg>
mode off on
<svg xmlns="http://www.w3.org/2000/svg" width="28" height="28" viewBox="0 0 28 28" fill="none">
  <path d="M5.1975 2.3625C5.3618 2.17041 5.56577 2.01619 5.79536 1.91046C6.02495 1.80473 6.27473 1.74998 6.5275 1.75H21.4725C21.7253 1.74998 21.975 1.80473 22.2046 1.91046C22.4342 2.01619 22.6382 2.17041 22.8025 2.3625L27.3682 7.6895C27.7759 8.16521 28 8.77102 28 9.3975V9.84375C28.0001 10.71 27.7296 11.5546 27.2262 12.2595C26.7228 12.9644 26.0118 13.4945 25.1924 13.7756C24.3731 14.0566 23.4864 14.0747 22.6563 13.8272C21.8262 13.5797 21.0942 13.0791 20.5625 12.3953C20.1743 12.8954 19.6768 13.3001 19.108 13.5783C18.5393 13.8565 17.9144 14.0007 17.2812 14C16.6481 14.0007 16.0232 13.8565 15.4545 13.5783C14.8857 13.3001 14.3882 12.8954 14 12.3953C13.6118 12.8954 13.1143 13.3001 12.5455 13.5783C11.9768 13.8565 11.3519 14.0007 10.7188 14C10.0856 14.0007 9.46072 13.8565 8.89195 13.5783C8.32319 13.3001 7.82566 12.8954 7.4375 12.3953C6.90583 13.0791 6.17379 13.5797 5.34369 13.8272C4.51359 14.0747 3.6269 14.0566 2.80757 13.7756C1.98823 13.4945 1.27719 12.9644 0.773819 12.2595C0.270448 11.5546 -9.55475e-05 10.71 2.53129e-08 9.84375V9.3975C2.20632e-05 8.77102 0.224099 8.16521 0.63175 7.6895L5.1975 2.3625ZM8.3125 9.84375C8.3125 10.4819 8.56601 11.094 9.01727 11.5452C9.46853 11.9965 10.0806 12.25 10.7188 12.25C11.3569 12.25 11.969 11.9965 12.4202 11.5452C12.8715 11.094 13.125 10.4819 13.125 9.84375C13.125 9.61169 13.2172 9.38913 13.3813 9.22503C13.5454 9.06094 13.7679 8.96875 14 8.96875C14.2321 8.96875 14.4546 9.06094 14.6187 9.22503C14.7828 9.38913 14.875 9.61169 14.875 9.84375C14.875 10.4819 15.1285 11.094 15.5798 11.5452C16.031 11.9965 16.6431 12.25 17.2812 12.25C17.9194 12.25 18.5315 11.9965 18.9827 11.5452C19.434 11.094 19.6875 10.4819 19.6875 9.84375C19.6875 9.61169 19.7797 9.38913 19.9438 9.22503C20.1079 9.06094 20.3304 8.96875 20.5625 8.96875C20.7946 8.96875 21.0171 9.06094 21.1812 9.22503C21.3453 9.38913 21.4375 9.61169 21.4375 9.84375C21.4375 10.4819 21.691 11.094 22.1423 11.5452C22.5935 11.9965 23.2056 12.25 23.8438 12.25C24.4819 12.25 25.094 11.9965 25.5452 11.5452C25.9965 11.094 26.25 10.4819 26.25 9.84375V9.3975C26.25 9.18895 26.1755 8.98725 26.04 8.82875L21.4725 3.5H6.5275L1.96 8.82875C1.82446 8.98725 1.74998 9.18895 1.75 9.3975V9.84375C1.75 10.4819 2.00351 11.094 2.45477 11.5452C2.90603 11.9965 3.51807 12.25 4.15625 12.25C4.79443 12.25 5.40647 11.9965 5.85773 11.5452C6.30899 11.094 6.5625 10.4819 6.5625 9.84375C6.5625 9.61169 6.65469 9.38913 6.81878 9.22503C6.98288 9.06094 7.20544 8.96875 7.4375 8.96875C7.66956 8.96875 7.89212 9.06094 8.05622 9.22503C8.22031 9.38913 8.3125 9.61169 8.3125 9.84375ZM2.625 14.875C2.85706 14.875 3.07962 14.9672 3.24372 15.1313C3.40781 15.2954 3.5 15.5179 3.5 15.75V26.25H5.25V17.5C5.25 17.0359 5.43437 16.5908 5.76256 16.2626C6.09075 15.9344 6.53587 15.75 7 15.75H12.25C12.7141 15.75 13.1592 15.9344 13.4874 16.2626C13.8156 16.5908 14 17.0359 14 17.5V26.25H24.5V15.75C24.5 15.5179 24.5922 15.2954 24.7563 15.1313C24.9204 14.9672 25.1429 14.875 25.375 14.875C25.6071 14.875 25.8296 14.9672 25.9937 15.1313C26.1578 15.2954 26.25 15.5179 26.25 15.75V26.25H27.125C27.3571 26.25 27.5796 26.3422 27.7437 26.5063C27.9078 26.6704 28 26.8929 28 27.125C28 27.3571 27.9078 27.5796 27.7437 27.7437C27.5796 27.9078 27.3571 28 27.125 28H0.875C0.642936 28 0.420376 27.9078 0.256282 27.7437C0.0921873 27.5796 2.53129e-08 27.3571 2.53129e-08 27.125C2.53129e-08 26.8929 0.0921873 26.6704 0.256282 26.5063C0.420376 26.3422 0.642936 26.25 0.875 26.25H1.75V15.75C1.75 15.5179 1.84219 15.2954 2.00628 15.1313C2.17038 14.9672 2.39294 14.875 2.625 14.875ZM7 26.25H12.25V17.5H7V26.25ZM15.75 17.5C15.75 17.0359 15.9344 16.5908 16.2626 16.2626C16.5908 15.9344 17.0359 15.75 17.5 15.75H21C21.4641 15.75 21.9092 15.9344 22.2374 16.2626C22.5656 16.5908 22.75 17.0359 22.75 17.5V22.75C22.75 23.2141 22.5656 23.6592 22.2374 23.9874C21.9092 24.3156 21.4641 24.5 21 24.5H17.5C17.0359 24.5 16.5908 24.3156 16.2626 23.9874C15.9344 23.6592 15.75 23.2141 15.75 22.75V17.5ZM21 17.5H17.5V22.75H21V17.5Z" fill="currentColor"/>
</svg>
circle person
<svg xmlns="http://www.w3.org/2000/svg" width="28" height="28" viewBox="0 0 28 28" fill="none">
  <path d="M19.25 10.5C19.25 11.8924 18.6969 13.2277 17.7123 14.2123C16.7277 15.1969 15.3924 15.75 14 15.75C12.6076 15.75 11.2723 15.1969 10.2877 14.2123C9.30312 13.2277 8.75 11.8924 8.75 10.5C8.75 9.10761 9.30312 7.77226 10.2877 6.78769C11.2723 5.80312 12.6076 5.25 14 5.25C15.3924 5.25 16.7277 5.80312 17.7123 6.78769C18.6969 7.77226 19.25 9.10761 19.25 10.5Z" fill="currentColor"/>
  <path fill-rule="evenodd" clip-rule="evenodd" d="M0 14C0 10.287 1.475 6.72601 4.10051 4.10051C6.72601 1.475 10.287 0 14 0C17.713 0 21.274 1.475 23.8995 4.10051C26.525 6.72601 28 10.287 28 14C28 17.713 26.525 21.274 23.8995 23.8995C21.274 26.525 17.713 28 14 28C10.287 28 6.72601 26.525 4.10051 23.8995C1.475 21.274 0 17.713 0 14ZM14 1.75C11.6931 1.75012 9.43314 2.40163 7.4802 3.62955C5.52727 4.85746 3.96074 6.61187 2.96094 8.69084C1.96113 10.7698 1.56868 13.0888 1.82875 15.381C2.08882 17.6732 2.99084 19.8454 4.431 21.6475C5.6735 19.6455 8.40875 17.5 14 17.5C19.5912 17.5 22.3248 19.6437 23.569 21.6475C25.0092 19.8454 25.9112 17.6732 26.1713 15.381C26.4313 13.0888 26.0389 10.7698 25.0391 8.69084C24.0393 6.61187 22.4727 4.85746 20.5198 3.62955C18.5669 2.40163 16.3069 1.75012 14 1.75Z" fill="currentColor"/>
</svg>
hand
<svg xmlns="http://www.w3.org/2000/svg" width="28" height="28" viewBox="0 0 28 28" fill="none">
  <path d="M11.725 5.3375C11.725 5.0962 11.6775 4.85725 11.5851 4.63432C11.4928 4.41138 11.3574 4.20882 11.1868 4.03819C11.0162 3.86756 10.8136 3.73221 10.5907 3.63987C10.3677 3.54753 10.1288 3.5 9.8875 3.5C9.6462 3.5 9.40726 3.54753 9.18432 3.63987C8.96138 3.73221 8.75882 3.86756 8.58819 4.03819C8.41756 4.20882 8.28221 4.41138 8.18987 4.63432C8.09753 4.85725 8.05 5.0962 8.05 5.3375V8.8375M11.725 5.3375V3.5875C11.725 3.10016 11.9186 2.63279 12.2632 2.28819C12.6078 1.94359 13.0752 1.75 13.5625 1.75C14.0498 1.75 14.5172 1.94359 14.8618 2.28819C15.2064 2.63279 15.4 3.10016 15.4 3.5875V5.3375M11.725 5.3375L11.8125 12.25M8.05 8.8375C8.05 8.35017 7.85641 7.88279 7.51181 7.53819C7.16721 7.19359 6.69984 7 6.2125 7C5.72516 7 5.25779 7.19359 4.91319 7.53819C4.56859 7.88279 4.375 8.35017 4.375 8.8375V18.375C4.375 20.4636 5.20469 22.4666 6.68153 23.9435C8.15838 25.4203 10.1614 26.25 12.25 26.25H14.6043C16.2287 26.2498 17.7865 25.6044 18.935 24.4557L20.9557 22.435C22.1044 21.2865 22.7498 19.7287 22.75 18.1043L22.7535 15.743C22.7546 15.5365 22.8377 15.3388 22.9845 15.1935C23.1552 15.0228 23.2906 14.8202 23.3829 14.5972C23.4753 14.3742 23.5228 14.1352 23.5228 13.8938C23.5228 13.6525 23.4753 13.4135 23.3829 13.1905C23.2906 12.9675 23.1552 12.7648 22.9845 12.5942C22.8138 12.4235 22.6112 12.2881 22.3882 12.1957C22.1652 12.1034 21.9262 12.0558 21.6848 12.0558C21.4435 12.0558 21.2045 12.1034 20.9815 12.1957C20.7585 12.2881 20.5558 12.4235 20.3852 12.5942C19.5527 13.4255 19.083 14.5525 19.0785 15.729M8.05 8.8375V14M15.4 5.3375V13.125M15.4 5.3375C15.4 4.85016 15.5936 4.38279 15.9382 4.03819C16.2828 3.69359 16.7502 3.5 17.2375 3.5C17.7248 3.5 18.1922 3.69359 18.5368 4.03819C18.8814 4.38279 19.075 4.85016 19.075 5.3375V17.5M19.075 17.5C18.3859 17.4997 17.7034 17.6353 17.0668 17.8992C16.4302 18.163 15.8519 18.5499 15.365 19.0377M19.075 17.5H19.0773" stroke="currentColor" stroke-linecap="round" stroke-linejoin="round"/>
</svg>
bell
<svg xmlns="http://www.w3.org/2000/svg" width="28" height="28" viewBox="0 0 28 28" fill="none">
  <g clip-path="url(#clip0_168_46)">
    <path d="M14 27.9999C14.9283 27.9999 15.8185 27.6312 16.4749 26.9748C17.1313 26.3184 17.5 25.4282 17.5 24.4999H10.5C10.5 25.4282 10.8687 26.3184 11.5251 26.9748C12.1815 27.6312 13.0717 27.9999 14 27.9999ZM14 3.35644L12.6053 3.63819C11.0229 3.95993 9.6004 4.81884 8.57885 6.06939C7.5573 7.31993 6.99951 8.88519 7 10.4999C7 11.5989 6.7655 14.3447 6.19675 17.0484C5.91675 18.3907 5.53875 19.7889 5.0365 20.9999H22.9635C22.4613 19.7889 22.085 18.3924 21.8032 17.0484C21.2345 14.3447 21 11.5989 21 10.4999C21.0001 8.88549 20.4421 7.32064 19.4206 6.07046C18.3991 4.82028 16.9768 3.96162 15.3947 3.63994L14 3.35644ZM24.885 20.9999C25.2753 21.7822 25.7267 22.4017 26.25 22.7499H1.75C2.27325 22.4017 2.72475 21.7822 3.115 20.9999C4.69 17.8499 5.25 12.0399 5.25 10.4999C5.25 6.26494 8.26 2.72994 12.2587 1.92319C12.2343 1.67986 12.2612 1.43411 12.3376 1.2018C12.4139 0.96948 12.5382 0.755751 12.7022 0.574396C12.8663 0.39304 13.0666 0.248085 13.2901 0.148877C13.5136 0.0496697 13.7554 -0.00158691 14 -0.00158691C14.2446 -0.00158691 14.4864 0.0496697 14.7099 0.148877C14.9334 0.248085 15.1337 0.39304 15.2978 0.574396C15.4618 0.755751 15.5861 0.96948 15.6624 1.2018C15.7388 1.43411 15.7657 1.67986 15.7413 1.92319C17.7195 2.32491 19.4981 3.39829 20.7755 4.96143C22.0528 6.52456 22.7504 8.48127 22.75 10.4999C22.75 12.0399 23.31 17.8499 24.885 20.9999Z" fill="currentColor"/>
  </g>
  <defs>
    <clipPath id="clip0_168_46">
      <rect width="28" height="28" fill="white"/>
    </clipPath>
  </defs>
</svg>
tag
<svg xmlns="http://www.w3.org/2000/svg" width="28" height="28" viewBox="0 0 28 28" fill="none">
  <g clip-path="url(#clip0_168_46)">
    <path d="M14 27.9999C14.9283 27.9999 15.8185 27.6312 16.4749 26.9748C17.1313 26.3184 17.5 25.4282 17.5 24.4999H10.5C10.5 25.4282 10.8687 26.3184 11.5251 26.9748C12.1815 27.6312 13.0717 27.9999 14 27.9999ZM14 3.35644L12.6053 3.63819C11.0229 3.95993 9.6004 4.81884 8.57885 6.06939C7.5573 7.31993 6.99951 8.88519 7 10.4999C7 11.5989 6.7655 14.3447 6.19675 17.0484C5.91675 18.3907 5.53875 19.7889 5.0365 20.9999H22.9635C22.4613 19.7889 22.085 18.3924 21.8032 17.0484C21.2345 14.3447 21 11.5989 21 10.4999C21.0001 8.88549 20.4421 7.32064 19.4206 6.07046C18.3991 4.82028 16.9768 3.96162 15.3947 3.63994L14 3.35644ZM24.885 20.9999C25.2753 21.7822 25.7267 22.4017 26.25 22.7499H1.75C2.27325 22.4017 2.72475 21.7822 3.115 20.9999C4.69 17.8499 5.25 12.0399 5.25 10.4999C5.25 6.26494 8.26 2.72994 12.2587 1.92319C12.2343 1.67986 12.2612 1.43411 12.3376 1.2018C12.4139 0.96948 12.5382 0.755751 12.7022 0.574396C12.8663 0.39304 13.0666 0.248085 13.2901 0.148877C13.5136 0.0496697 13.7554 -0.00158691 14 -0.00158691C14.2446 -0.00158691 14.4864 0.0496697 14.7099 0.148877C14.9334 0.248085 15.1337 0.39304 15.2978 0.574396C15.4618 0.755751 15.5861 0.96948 15.6624 1.2018C15.7388 1.43411 15.7657 1.67986 15.7413 1.92319C17.7195 2.32491 19.4981 3.39829 20.7755 4.96143C22.0528 6.52456 22.7504 8.48127 22.75 10.4999C22.75 12.0399 23.31 17.8499 24.885 20.9999Z" fill="currentColor"/>
  </g>
  <defs>
    <clipPath id="clip0_168_46">
      <rect width="28" height="28" fill="white"/>
    </clipPath>
  </defs>
</svg>
share
<svg xmlns="http://www.w3.org/2000/svg" width="28" height="28" viewBox="0 0 28 28" fill="none">
  <path d="M23.6251 1.7503C22.9289 1.7503 22.2612 2.02683 21.7689 2.51904C21.2767 3.01126 21.0001 3.67884 21.0001 4.37494C21.0001 5.07103 21.2767 5.73862 21.7689 6.23083C22.2612 6.72305 22.9289 6.99957 23.6251 6.99957C24.3213 6.99957 24.9889 6.72305 25.4812 6.23083C25.9735 5.73862 26.25 5.07103 26.25 4.37494C26.25 3.67884 25.9735 3.01126 25.4812 2.51904C24.9889 2.02683 24.3213 1.7503 23.6251 1.7503ZM19.2501 4.37494C19.25 3.34859 19.6108 2.35487 20.2694 1.56765C20.9281 0.780426 21.8426 0.249826 22.8529 0.0686799C23.8633 -0.112466 24.9052 0.0673785 25.7963 0.576748C26.6875 1.08612 27.3711 1.89258 27.7276 2.85503C28.0842 3.81748 28.0909 4.87463 27.7466 5.84153C27.4023 6.80843 26.729 7.62351 25.8444 8.14416C24.9598 8.66481 23.9203 8.85787 22.9077 8.68957C21.8951 8.52127 20.9739 8.00233 20.3054 7.22354L8.54907 12.6828C8.81923 13.5392 8.81923 14.458 8.54907 15.3144L20.3054 20.7736C21.0121 19.9518 21.9988 19.4216 23.0742 19.2857C24.1496 19.1499 25.2371 19.418 26.1261 20.0382C27.015 20.6584 27.6421 21.5865 27.8857 22.6426C28.1293 23.6987 27.9721 24.8076 27.4445 25.7544C26.917 26.7013 26.0567 27.4186 25.0304 27.7673C24.0041 28.1161 22.8849 28.0715 21.8896 27.6421C20.8943 27.2128 20.0939 26.4293 19.6434 25.4435C19.1929 24.4577 19.1245 23.3398 19.4514 22.3064L7.69509 16.8472C7.11311 17.5253 6.33737 18.009 5.47224 18.2331C4.6071 18.4573 3.69407 18.4111 2.85596 18.1008C2.01785 17.7906 1.29488 17.2311 0.784289 16.4977C0.273703 15.7643 0 14.8922 0 13.9986C0 13.105 0.273703 12.2328 0.784289 11.4994C1.29488 10.766 2.01785 10.2066 2.85596 9.89632C3.69407 9.58607 4.6071 9.5399 5.47224 9.76403C6.33737 9.98816 7.11311 10.4718 7.69509 11.15L19.4514 5.69075C19.3176 5.26498 19.2497 4.82124 19.2501 4.37494ZM4.37539 11.374C3.67921 11.374 3.01154 11.6505 2.51927 12.1427C2.02699 12.6349 1.75044 13.3025 1.75044 13.9986C1.75044 14.6947 2.02699 15.3623 2.51927 15.8545C3.01154 16.3467 3.67921 16.6232 4.37539 16.6232C5.07157 16.6232 5.73924 16.3467 6.23152 15.8545C6.72379 15.3623 7.00035 14.6947 7.00035 13.9986C7.00035 13.3025 6.72379 12.6349 6.23152 12.1427C5.73924 11.6505 5.07157 11.374 4.37539 11.374ZM23.6251 20.9976C22.9289 20.9976 22.2612 21.2741 21.7689 21.7663C21.2767 22.2586 21.0001 22.9261 21.0001 23.6222C21.0001 24.3183 21.2767 24.9859 21.7689 25.4781C22.2612 25.9703 22.9289 26.2469 23.6251 26.2469C24.3213 26.2469 24.9889 25.9703 25.4812 25.4781C25.9735 24.9859 26.25 24.3183 26.25 23.6222C26.25 22.9261 25.9735 22.2586 25.4812 21.7663C24.9889 21.2741 24.3213 20.9976 23.6251 20.9976Z" fill="currentColor"/>
</svg>

filter
<svg xmlns="http://www.w3.org/2000/svg" width="28" height="28" viewBox="0 0 28 28" fill="none">
  <path d="M10.5 18.375C10.5 17.8918 10.8918 17.5 11.375 17.5H16.625C17.1082 17.5 17.5 17.8918 17.5 18.375C17.5 18.8582 17.1082 19.25 16.625 19.25H11.375C10.8918 19.25 10.5 18.8582 10.5 18.375Z" fill="currentColor"/>
  <path d="M7 13.125C7 12.6418 7.39175 12.25 7.875 12.25H20.125C20.6082 12.25 21 12.6418 21 13.125C21 13.6082 20.6082 14 20.125 14H7.875C7.39175 14 7 13.6082 7 13.125Z" fill="currentColor"/>
  <path d="M3.5 7.875C3.5 7.39175 3.89175 7 4.375 7H23.625C24.1082 7 24.5 7.39175 24.5 7.875C24.5 8.35825 24.1082 8.75 23.625 8.75H4.375C3.89175 8.75 3.5 8.35825 3.5 7.875Z" fill="currentColor"/>
</svg>
edit
<svg xmlns="http://www.w3.org/2000/svg" width="28" height="28" viewBox="0 0 28 28" fill="none">
  <g clip-path="url(#clip0_168_47)">
    <path d="M21.2555 0.255477C21.3368 0.173992 21.4333 0.109342 21.5396 0.0652303C21.6459 0.021119 21.7599 -0.00158691 21.875 -0.00158691C21.9901 -0.00158691 22.1041 0.021119 22.2104 0.0652303C22.3167 0.109342 22.4132 0.173992 22.4945 0.255477L27.7445 5.50548C27.826 5.58676 27.8906 5.68331 27.9347 5.78962C27.9789 5.89592 28.0016 6.00988 28.0016 6.12498C28.0016 6.24007 27.9789 6.35403 27.9347 6.46034C27.8906 6.56664 27.826 6.6632 27.7445 6.74448L10.2445 24.2445C10.1605 24.3279 10.0605 24.3934 9.9505 24.437L1.2005 27.937C1.04148 28.0006 0.867289 28.0162 0.699505 27.9818C0.531722 27.9474 0.377729 27.8645 0.256618 27.7434C0.135506 27.6222 0.0526026 27.4683 0.0181846 27.3005C-0.0162335 27.1327 -0.000652346 26.9585 0.0629963 26.7995L3.563 18.0495C3.60662 17.9395 3.67211 17.8395 3.7555 17.7555L21.2555 0.255477ZM19.6122 4.37498L23.625 8.38773L25.8877 6.12498L21.875 2.11223L19.6122 4.37498ZM22.3877 9.62498L18.375 5.61223L7 16.9872V17.5H7.875C8.10706 17.5 8.32962 17.5922 8.49371 17.7563C8.65781 17.9204 8.75 18.1429 8.75 18.375V19.25H9.625C9.85706 19.25 10.0796 19.3422 10.2437 19.5063C10.4078 19.6704 10.5 19.8929 10.5 20.125V21H11.0127L22.3877 9.62498ZM5.306 18.6812L5.1205 18.8667L2.4465 25.5535L9.13325 22.8795L9.31875 22.694C9.15183 22.6316 9.00793 22.5198 8.9063 22.3734C8.80466 22.2271 8.75013 22.0532 8.75 21.875V21H7.875C7.64293 21 7.42037 20.9078 7.25628 20.7437C7.09218 20.5796 7 20.357 7 20.125V19.25H6.125C5.94681 19.2498 5.77291 19.1953 5.62656 19.0937C5.4802 18.992 5.36836 18.8481 5.306 18.6812Z" fill="currentColor"/>
  </g>
  <defs>
    <clipPath id="clip0_168_47">
      <rect width="28" height="28" fill="white"/>
    </clipPath>
  </defs>
</svg>
orders
<svg xmlns="http://www.w3.org/2000/svg" width="28" height="28" viewBox="0 0 28 28" fill="none">
  <path d="M14 1.75C14.9283 1.75 15.8185 2.11875 16.4749 2.77513C17.1313 3.4315 17.5 4.32174 17.5 5.25V8.75H10.5V5.25C10.5 4.32174 10.8688 3.4315 11.5251 2.77513C12.1815 2.11875 13.0718 1.75 14 1.75ZM19.25 8.75V5.25C19.25 3.85761 18.6969 2.52226 17.7123 1.53769C16.7278 0.553123 15.3924 0 14 0C12.6076 0 11.2723 0.553123 10.2877 1.53769C9.30313 2.52226 8.75001 3.85761 8.75001 5.25V8.75H5.88001C5.25154 8.75014 4.64398 8.97575 4.16774 9.38584C3.6915 9.79592 3.37819 10.3633 3.28476 10.9847L1.48751 22.9775C1.39439 23.5998 1.43659 24.2348 1.61122 24.8393C1.78585 25.4438 2.08882 26.0035 2.49944 26.4802C2.91007 26.9569 3.41869 27.3395 3.99062 27.6018C4.56254 27.864 5.18431 27.9999 5.81351 28H22.1848C22.8141 28.0001 23.4361 27.8645 24.0082 27.6023C24.5804 27.3401 25.0892 26.9576 25.5 26.4809C25.9108 26.0041 26.2139 25.4443 26.3887 24.8397C26.5634 24.2351 26.6057 23.5999 26.5125 22.9775L24.7135 10.9847C24.6201 10.3636 24.3071 9.79646 23.8312 9.38641C23.3553 8.97636 22.7482 8.75056 22.12 8.75H19.25ZM17.5 10.5V13.125C17.5 13.3571 17.5922 13.5796 17.7563 13.7437C17.9204 13.9078 18.1429 14 18.375 14C18.6071 14 18.8296 13.9078 18.9937 13.7437C19.1578 13.5796 19.25 13.3571 19.25 13.125V10.5H22.1183C22.3277 10.5002 22.5302 10.5756 22.6888 10.7124C22.8475 10.8492 22.9518 11.0383 22.9828 11.2455L24.7818 23.2348C24.8379 23.6082 24.8128 23.9894 24.7082 24.3523C24.6035 24.7151 24.4218 25.0512 24.1755 25.3374C23.9291 25.6236 23.6239 25.8534 23.2806 26.0108C22.9374 26.1683 22.5642 26.2499 22.1865 26.25H5.81351C5.43585 26.2499 5.06265 26.1683 4.7194 26.0108C4.37615 25.8534 4.07092 25.6236 3.82455 25.3374C3.57819 25.0512 3.39648 24.7151 3.29185 24.3523C3.18722 23.9894 3.16212 23.6082 3.21826 23.2348L5.01726 11.2455C5.04822 11.0386 5.15226 10.8497 5.31053 10.7129C5.46881 10.5762 5.67084 10.5006 5.88001 10.5H8.75001V13.125C8.75001 13.3571 8.8422 13.5796 9.00629 13.7437C9.17039 13.9078 9.39295 14 9.62501 14C9.85708 14 10.0796 13.9078 10.2437 13.7437C10.4078 13.5796 10.5 13.3571 10.5 13.125V10.5H17.5Z" fill="currentColor"/>
</svg>
redes sociales

instagram
<svg xmlns="http://www.w3.org/2000/svg" width="28" height="28" viewBox="0 0 28 28" fill="none">
  <g clip-path="url(#clip0_168_100)">
    <path d="M14 0C10.2008 0 9.723 0.0175 8.23025 0.084C6.7375 0.154 5.72075 0.3885 4.83 0.735C3.89523 1.08557 3.04875 1.63695 2.35025 2.35025C1.63695 3.04875 1.08557 3.89523 0.735 4.83C0.3885 5.719 0.15225 6.7375 0.084 8.225C0.0175 9.72125 0 10.1973 0 14.0018C0 17.8027 0.0175 18.2788 0.084 19.7715C0.154 21.2625 0.3885 22.2792 0.735 23.17C1.09375 24.0905 1.5715 24.871 2.35025 25.6497C3.12725 26.4285 3.90775 26.908 4.82825 27.265C5.72075 27.6115 6.73575 27.8477 8.22675 27.916C9.72125 27.9825 10.1972 28 14 28C17.8027 28 18.277 27.9825 19.7715 27.916C21.2607 27.846 22.281 27.6115 23.1718 27.265C24.1059 26.9142 24.9518 26.3628 25.6497 25.6497C26.4285 24.871 26.9062 24.0905 27.265 23.17C27.6098 22.2792 27.846 21.2625 27.916 19.7715C27.9825 18.2788 28 17.8027 28 14C28 10.1972 27.9825 9.72125 27.916 8.22675C27.846 6.7375 27.6098 5.719 27.265 4.83C26.9144 3.89523 26.3631 3.04875 25.6497 2.35025C24.9513 1.63695 24.1048 1.08557 23.17 0.735C22.2775 0.3885 21.259 0.15225 19.7698 0.084C18.2752 0.0175 17.801 0 13.9965 0H14ZM12.7452 2.5235H14.0018C17.7397 2.5235 18.1825 2.53575 19.6577 2.604C21.0227 2.66525 21.7647 2.8945 22.2582 3.08525C22.911 3.339 23.3783 3.6435 23.8682 4.1335C24.3582 4.6235 24.661 5.089 24.9148 5.7435C25.1073 6.23525 25.3347 6.97725 25.396 8.34225C25.4643 9.8175 25.4783 10.2603 25.4783 13.9965C25.4783 17.7327 25.4643 18.1772 25.396 19.6525C25.3347 21.0175 25.1055 21.7577 24.9148 22.2513C24.6887 22.8583 24.3307 23.4076 23.8665 23.8595C23.3765 24.3495 22.911 24.6523 22.2565 24.906C21.7665 25.0985 21.0245 25.326 19.6577 25.389C18.1825 25.4555 17.7397 25.4713 14.0018 25.4713C10.2638 25.4713 9.81925 25.4555 8.344 25.389C6.979 25.326 6.23875 25.0985 5.74525 24.906C5.13771 24.6807 4.5878 24.3233 4.13525 23.8595C3.67023 23.4073 3.31157 22.8574 3.08525 22.2495C2.8945 21.7577 2.66525 21.0158 2.604 19.6507C2.5375 18.1755 2.5235 17.7327 2.5235 13.993C2.5235 10.2532 2.5375 9.814 2.604 8.33875C2.667 6.97375 2.8945 6.23175 3.087 5.73825C3.34075 5.0855 3.64525 4.61825 4.13525 4.12825C4.62525 3.63825 5.09075 3.3355 5.74525 3.08175C6.23875 2.88925 6.979 2.66175 8.344 2.59875C9.6355 2.53925 10.136 2.52175 12.7452 2.52V2.5235ZM21.4743 4.8475C21.2536 4.8475 21.0352 4.89095 20.8313 4.97538C20.6275 5.05981 20.4423 5.18356 20.2863 5.33956C20.1303 5.49556 20.0066 5.68076 19.9221 5.88459C19.8377 6.08842 19.7943 6.30688 19.7943 6.5275C19.7943 6.74812 19.8377 6.96658 19.9221 7.17041C20.0066 7.37423 20.1303 7.55944 20.2863 7.71544C20.4423 7.87144 20.6275 7.99519 20.8313 8.07962C21.0352 8.16405 21.2536 8.2075 21.4743 8.2075C21.9198 8.2075 22.3471 8.0305 22.6622 7.71544C22.9773 7.40038 23.1542 6.97306 23.1542 6.5275C23.1542 6.08194 22.9773 5.65462 22.6622 5.33956C22.3471 5.0245 21.9198 4.8475 21.4743 4.8475ZM14.0018 6.811C13.0481 6.79612 12.1011 6.9711 11.2157 7.32575C10.3304 7.68039 9.5244 8.20762 8.84476 8.87674C8.16513 9.54586 7.62539 10.3435 7.25697 11.2232C6.88856 12.1029 6.69883 13.0471 6.69883 14.0009C6.69883 14.9546 6.88856 15.8988 7.25697 16.7785C7.62539 17.6583 8.16513 18.4559 8.84476 19.125C9.5244 19.7941 10.3304 20.3214 11.2157 20.676C12.1011 21.0306 13.0481 21.2056 14.0018 21.1908C15.8892 21.1613 17.6894 20.3908 19.0137 19.0457C20.338 17.7005 21.0803 15.8886 21.0803 14.0009C21.0803 12.1132 20.338 10.3012 19.0137 8.95606C17.6894 7.6109 15.8892 6.84045 14.0018 6.811ZM14.0018 9.33275C14.6147 9.33275 15.2216 9.45347 15.7878 9.68802C16.3541 9.92257 16.8686 10.2664 17.302 10.6998C17.7354 11.1332 18.0792 11.6477 18.3137 12.2139C18.5483 12.7802 18.669 13.3871 18.669 14C18.669 14.6129 18.5483 15.2198 18.3137 15.7861C18.0792 16.3523 17.7354 16.8668 17.302 17.3002C16.8686 17.7336 16.3541 18.0774 15.7878 18.312C15.2216 18.5465 14.6147 18.6672 14.0018 18.6672C12.7639 18.6672 11.5768 18.1755 10.7015 17.3002C9.82623 16.425 9.3345 15.2378 9.3345 14C9.3345 12.7622 9.82623 11.575 10.7015 10.6998C11.5768 9.82448 12.7639 9.33275 14.0018 9.33275Z" fill="currentColor"/>
  </g>
  <defs>
    <clipPath id="clip0_168_100">
      <rect width="28" height="28" fill="white"/>
    </clipPath>
  </defs>
</svg>
whatsapp
<svg xmlns="http://www.w3.org/2000/svg" width="28" height="28" viewBox="0 0 28 28" fill="none">
  <g clip-path="url(#clip0_168_101)">
    <path d="M23.8018 4.0706C22.5183 2.77471 20.9897 1.74738 19.305 1.04851C17.6203 0.349645 15.8134 -0.00675644 13.9895 9.69938e-05C6.34725 9.69938e-05 0.119 6.2266 0.112 13.8706C0.112 16.3188 0.7525 18.7006 1.96175 20.8093L0 28.0001L7.357 26.0716C9.39135 27.1815 11.6721 27.7622 13.9895 27.7603H13.9965C21.6405 27.7603 27.867 21.5338 27.874 13.8828C27.8756 12.0595 27.5164 10.2538 26.8172 8.56975C26.118 6.88573 25.0943 5.35667 23.8018 4.0706ZM13.9895 25.4118C11.9231 25.4102 9.89489 24.8542 8.1165 23.8018L7.6965 23.5498L3.332 24.6943L4.4975 20.4366L4.2245 19.9973C3.06916 18.1604 2.45813 16.0336 2.46225 13.8636C2.46225 7.5181 7.637 2.3416 13.9965 2.3416C15.5115 2.33888 17.0121 2.63608 18.4118 3.21606C19.8114 3.79604 21.0824 4.64733 22.1515 5.72085C23.2241 6.79036 24.0744 8.06155 24.6535 9.46117C25.2325 10.8608 25.5289 12.3612 25.5255 13.8758C25.5185 20.2441 20.3438 25.4118 13.9895 25.4118ZM20.3158 16.7773C19.971 16.6041 18.2682 15.7658 17.948 15.6468C17.6295 15.5331 17.3967 15.4736 17.1693 15.8201C16.9365 16.1648 16.2715 16.9506 16.072 17.1763C15.8725 17.4091 15.666 17.4353 15.3195 17.2638C14.9747 17.0888 13.8565 16.7248 12.5335 15.5401C11.501 14.6213 10.8097 13.4838 10.6033 13.1391C10.4038 12.7926 10.584 12.6071 10.7572 12.4338C10.9095 12.2798 11.102 12.0278 11.2752 11.8283C11.4502 11.6288 11.508 11.4818 11.6217 11.2508C11.7355 11.0163 11.6812 10.8168 11.5955 10.6436C11.508 10.4703 10.8167 8.7606 10.5245 8.0711C10.2445 7.39035 9.95925 7.48485 9.74575 7.4761C9.54625 7.46385 9.3135 7.46385 9.08075 7.46385C8.90501 7.46832 8.73208 7.50902 8.57278 7.5834C8.41349 7.65777 8.27126 7.76423 8.155 7.8961C7.8365 8.2426 6.94575 9.08085 6.94575 10.7906C6.94575 12.5003 8.18825 14.1436 8.36325 14.3763C8.53475 14.6091 10.8027 18.1073 14.2835 19.6123C15.106 19.9711 15.7535 20.1828 16.2593 20.3438C17.0905 20.6098 17.8412 20.5696 18.4397 20.4838C19.1047 20.3823 20.489 19.6438 20.7812 18.8336C21.0683 18.0216 21.0683 17.3286 20.9808 17.1833C20.895 17.0363 20.6623 16.9506 20.3158 16.7773Z" fill="currentColor"/>
  </g>
  <defs>
    <clipPath id="clip0_168_101">
      <rect width="28" height="28" fill="white"/>
    </clipPath>
  </defs>
</svg>
facebook

<svg xmlns="http://www.w3.org/2000/svg" width="28" height="28" viewBox="0 0 28 28" fill="none">
  <g clip-path="url(#clip0_168_102)">
    <path d="M28 14.0858C28 6.30529 21.7315 -0.00170898 14 -0.00170898C6.26501 4.10157e-05 -0.00349426 6.30529 -0.00349426 14.0875C-0.00349426 21.1173 5.11701 26.9448 11.809 28.0018V18.158H8.25651V14.0875H11.8125V10.9813C11.8125 7.45154 13.9038 5.50204 17.101 5.50204C18.634 5.50204 20.2353 5.77679 20.2353 5.77679V9.24179H18.4695C16.7318 9.24179 16.1893 10.3285 16.1893 11.4433V14.0858H20.0708L19.4513 18.1563H16.1875V28C22.8795 26.943 28 21.1155 28 14.0858Z" fill="currentColor"/>
  </g>
  <defs>
    <clipPath id="clip0_168_102">
      <rect width="28" height="28" fill="white"/>
    </clipPath>
  </defs>
</svg>
search
<svg xmlns="http://www.w3.org/2000/svg" width="28" height="28" viewBox="0 0 28 28" fill="none">
  <g clip-path="url(#clip0_168_103)">
    <path d="M20.5485 18.1021C22.243 15.7898 23.002 12.9229 22.6735 10.0751C22.3451 7.22722 20.9535 4.6084 18.7771 2.74253C16.6007 0.876666 13.8001 -0.09864 10.9355 0.011738C8.07086 0.122116 5.35357 1.31004 3.32722 3.33784C1.30086 5.36565 0.114888 8.08379 0.00655978 10.9485C-0.101768 13.8131 0.875541 16.6131 2.74296 18.7881C4.61039 20.9632 7.2302 22.3529 10.0783 22.6793C12.9264 23.0057 15.7927 22.2447 18.1037 20.5486H18.102C18.1533 20.6186 18.2105 20.6856 18.2735 20.7498L25.011 27.4873C25.3391 27.8157 25.7843 28.0002 26.2485 28.0004C26.7127 28.0006 27.158 27.8163 27.4864 27.4882C27.8147 27.16 27.9993 26.7149 27.9995 26.2507C27.9996 25.7864 27.8154 25.3412 27.4872 25.0128L20.7498 18.2753C20.6872 18.2119 20.6199 18.1552 20.5485 18.1021ZM21 11.3751C21 12.639 20.751 13.8906 20.2673 15.0584C19.7836 16.2261 19.0747 17.2872 18.1809 18.181C17.2871 19.0747 16.2261 19.7837 15.0583 20.2674C13.8906 20.7511 12.639 21.0001 11.375 21.0001C10.111 21.0001 8.85943 20.7511 7.69167 20.2674C6.52391 19.7837 5.46286 19.0747 4.5691 18.181C3.67533 17.2872 2.96636 16.2261 2.48266 15.0584C1.99896 13.8906 1.75 12.639 1.75 11.3751C1.75 8.82235 2.76406 6.37419 4.5691 4.56915C6.37413 2.76411 8.82229 1.75005 11.375 1.75005C13.9277 1.75005 16.3759 2.76411 18.1809 4.56915C19.9859 6.37419 21 8.82235 21 11.3751Z" fill="currentColor"/>
  </g>
  <defs>
    <clipPath id="clip0_168_103">
      <rect width="28" height="28" fill="white"/>
    </clipPath>
  </defs>
</svg>
bin
<svg xmlns="http://www.w3.org/2000/svg" width="28" height="28" viewBox="0 0 28 28" fill="none">
  <path d="M11.375 1.75H16.625C16.8571 1.75 17.0796 1.84219 17.2437 2.00628C17.4078 2.17038 17.5 2.39294 17.5 2.625V4.375H10.5V2.625C10.5 2.39294 10.5922 2.17038 10.7563 2.00628C10.9204 1.84219 11.1429 1.75 11.375 1.75ZM19.25 4.375V2.625C19.25 1.92881 18.9734 1.26113 18.4812 0.768845C17.9889 0.276562 17.3212 0 16.625 0L11.375 0C10.6788 0 10.0111 0.276562 9.51884 0.768845C9.02656 1.26113 8.75 1.92881 8.75 2.625V4.375H2.625C2.39294 4.375 2.17038 4.46719 2.00628 4.63128C1.84219 4.79538 1.75 5.01794 1.75 5.25C1.75 5.48206 1.84219 5.70462 2.00628 5.86872C2.17038 6.03281 2.39294 6.125 2.625 6.125H3.5665L5.05925 24.78C5.12964 25.6571 5.52782 26.4755 6.17448 27.0722C6.82114 27.6689 7.66884 28.0002 8.54875 28H19.4513C20.3312 28.0002 21.1789 27.6689 21.8255 27.0722C22.4722 26.4755 22.8704 25.6571 22.9408 24.78L24.4335 6.125H25.375C25.6071 6.125 25.8296 6.03281 25.9937 5.86872C26.1578 5.70462 26.25 5.48206 26.25 5.25C26.25 5.01794 26.1578 4.79538 25.9937 4.63128C25.8296 4.46719 25.6071 4.375 25.375 4.375H19.25ZM22.6765 6.125L21.196 24.64C21.1608 25.0785 20.9617 25.4877 20.6384 25.7861C20.3151 26.0845 19.8912 26.2501 19.4513 26.25H8.54875C8.10879 26.2501 7.68495 26.0845 7.36162 25.7861C7.03828 25.4877 6.8392 25.0785 6.804 24.64L5.3235 6.125H22.6765ZM9.57425 7.875C9.80583 7.86161 10.0333 7.94074 10.2065 8.09497C10.3798 8.2492 10.4847 8.46593 10.4983 8.6975L11.3733 23.5725C11.3824 23.8014 11.3015 24.0247 11.1479 24.1946C10.9942 24.3644 10.7801 24.4673 10.5515 24.481C10.3228 24.4948 10.0979 24.4183 9.92503 24.2681C9.75213 24.1179 9.64504 23.9058 9.62675 23.6775L8.75 8.8025C8.7429 8.68755 8.75855 8.57232 8.79608 8.46344C8.8336 8.35455 8.89225 8.25414 8.96867 8.16797C9.04508 8.0818 9.13776 8.01156 9.24138 7.96129C9.345 7.91101 9.45752 7.88169 9.5725 7.875H9.57425ZM18.4258 7.875C18.5407 7.88169 18.6533 7.91101 18.7569 7.96129C18.8605 8.01156 18.9532 8.0818 19.0296 8.16797C19.106 8.25414 19.1646 8.35455 19.2022 8.46344C19.2397 8.57232 19.2554 8.68755 19.2482 8.8025L18.3732 23.6775C18.3686 23.7938 18.3408 23.908 18.2914 24.0134C18.2421 24.1187 18.1722 24.2132 18.0859 24.2913C17.9996 24.3694 17.8986 24.4294 17.7888 24.468C17.679 24.5065 17.5626 24.5228 17.4464 24.5158C17.3303 24.5088 17.2167 24.4787 17.1123 24.4273C17.0079 24.3759 16.9148 24.3042 16.8385 24.2163C16.7621 24.1285 16.7041 24.0263 16.6677 23.9157C16.6314 23.8052 16.6175 23.6885 16.6268 23.5725L17.5018 8.6975C17.5153 8.46593 17.6202 8.2492 17.7935 8.09497C17.9667 7.94074 18.1942 7.86161 18.4258 7.875ZM14 7.875C14.2321 7.875 14.4546 7.96719 14.6187 8.13128C14.7828 8.29538 14.875 8.51794 14.875 8.75V23.625C14.875 23.8571 14.7828 24.0796 14.6187 24.2437C14.4546 24.4078 14.2321 24.5 14 24.5C13.7679 24.5 13.5454 24.4078 13.3813 24.2437C13.2172 24.0796 13.125 23.8571 13.125 23.625V8.75C13.125 8.51794 13.2172 8.29538 13.3813 8.13128C13.5454 7.96719 13.7679 7.875 14 7.875Z" fill="currentColor"/>
</svg>
menu
<svg xmlns="http://www.w3.org/2000/svg" width="28" height="28" viewBox="0 0 28 28" fill="none">
  <path fill-rule="evenodd" clip-rule="evenodd" d="M4.375 21C4.375 20.7679 4.46719 20.5454 4.63128 20.3813C4.79538 20.2172 5.01794 20.125 5.25 20.125H22.75C22.9821 20.125 23.2046 20.2172 23.3687 20.3813C23.5328 20.5454 23.625 20.7679 23.625 21C23.625 21.2321 23.5328 21.4546 23.3687 21.6187C23.2046 21.7828 22.9821 21.875 22.75 21.875H5.25C5.01794 21.875 4.79538 21.7828 4.63128 21.6187C4.46719 21.4546 4.375 21.2321 4.375 21ZM4.375 14C4.375 13.7679 4.46719 13.5454 4.63128 13.3813C4.79538 13.2172 5.01794 13.125 5.25 13.125H22.75C22.9821 13.125 23.2046 13.2172 23.3687 13.3813C23.5328 13.5454 23.625 13.7679 23.625 14C23.625 14.2321 23.5328 14.4546 23.3687 14.6187C23.2046 14.7828 22.9821 14.875 22.75 14.875H5.25C5.01794 14.875 4.79538 14.7828 4.63128 14.6187C4.46719 14.4546 4.375 14.2321 4.375 14ZM4.375 7C4.375 6.76794 4.46719 6.54538 4.63128 6.38128C4.79538 6.21719 5.01794 6.125 5.25 6.125H22.75C22.9821 6.125 23.2046 6.21719 23.3687 6.38128C23.5328 6.54538 23.625 6.76794 23.625 7C23.625 7.23206 23.5328 7.45462 23.3687 7.61872C23.2046 7.78281 22.9821 7.875 22.75 7.875H5.25C5.01794 7.875 4.79538 7.78281 4.63128 7.61872C4.46719 7.45462 4.375 7.23206 4.375 7Z" fill="currentColor"/>
</svg>
icon-eye
<svg xmlns="http://www.w3.org/2000/svg" width="28" height="20" viewBox="0 0 28 20" fill="none">
  <path d="M28 10C28 10 22.75 0.375 14 0.375C5.25 0.375 0 10 0 10C0 10 5.25 19.625 14 19.625C22.75 19.625 28 10 28 10ZM2.05275 10C2.89762 8.71303 3.87094 7.51514 4.95775 6.42475C7.21 4.169 10.29 2.125 14 2.125C17.71 2.125 20.7882 4.169 23.044 6.42475C24.1308 7.51514 25.1041 8.71303 25.949 10C25.8487 10.1517 25.7349 10.3197 25.6077 10.504C25.0215 11.344 24.1553 12.464 23.044 13.5753C20.7882 15.831 17.7083 17.875 14 17.875C10.2917 17.875 7.21175 15.831 4.956 13.5753C3.86919 12.4849 2.89762 11.287 2.05275 10Z" fill="currentColor"/>
  <path d="M14 5.625C12.8397 5.625 11.7269 6.08594 10.9064 6.90641C10.0859 7.72688 9.625 8.83968 9.625 10C9.625 11.1603 10.0859 12.2731 10.9064 13.0936C11.7269 13.9141 12.8397 14.375 14 14.375C15.1603 14.375 16.2731 13.9141 17.0936 13.0936C17.9141 12.2731 18.375 11.1603 18.375 10C18.375 8.83968 17.9141 7.72688 17.0936 6.90641C16.2731 6.08594 15.1603 5.625 14 5.625ZM7.875 10C7.875 8.37555 8.52031 6.81763 9.66897 5.66897C10.8176 4.52031 12.3755 3.875 14 3.875C15.6245 3.875 17.1824 4.52031 18.331 5.66897C19.4797 6.81763 20.125 8.37555 20.125 10C20.125 11.6245 19.4797 13.1824 18.331 14.331C17.1824 15.4797 15.6245 16.125 14 16.125C12.3755 16.125 10.8176 15.4797 9.66897 14.331C8.52031 13.1824 7.875 11.6245 7.875 10Z" fill="currentColor"/>
</svg>
icon-eye-off
<svg xmlns="http://www.w3.org/2000/svg" width="28" height="24" viewBox="0 0 28 24" fill="none">
  <path d="M23.3783 17.6665C26.355 15.01 28 12 28 12C28 12 22.75 2.375 14 2.375C12.3191 2.37939 10.6572 2.72966 9.1175 3.404L10.465 4.75325C11.5985 4.34243 12.7943 4.12991 14 4.125C17.71 4.125 20.7883 6.169 23.044 8.42475C24.1308 9.51514 25.1041 10.713 25.949 12C25.8487 12.1517 25.7349 12.3197 25.6077 12.504C25.0215 13.344 24.1553 14.464 23.044 15.5753C22.7558 15.8646 22.4543 16.1481 22.1392 16.4258L23.3783 17.6665Z" fill="currentColor"/>
  <path d="M19.7698 14.058C20.1603 12.9657 20.2326 11.785 19.9783 10.6532C19.724 9.52147 19.1536 8.48518 18.3333 7.66494C17.5131 6.84471 16.4768 6.27426 15.345 6.01996C14.2132 5.76567 13.0325 5.83799 11.9403 6.22851L13.3805 7.66876C14.053 7.5725 14.7388 7.63419 15.3833 7.84895C16.0279 8.0637 16.6136 8.42562 17.094 8.90603C17.5744 9.38644 17.9363 9.97212 18.1511 10.6167C18.3658 11.2612 18.4275 11.947 18.3313 12.6195L19.7698 14.058ZM14.6195 16.3313L16.058 17.7698C14.9657 18.1603 13.785 18.2326 12.6532 17.9783C11.5215 17.724 10.4852 17.1536 9.66494 16.3333C8.8447 15.5131 8.27425 14.4768 8.01995 13.345C7.76566 12.2133 7.83798 11.0325 8.2285 9.94026L9.66875 11.3805C9.57249 12.0531 9.63418 12.7388 9.84894 13.3833C10.0637 14.0279 10.4256 14.6136 10.906 15.094C11.3864 15.5744 11.9721 15.9363 12.6167 16.1511C13.2612 16.3658 13.947 16.4275 14.6195 16.3313Z" fill="currentColor"/>
  <path d="M5.8625 7.57249C5.5475 7.85249 5.24533 8.13658 4.956 8.42474C3.86919 9.51513 2.89587 10.713 2.051 12L2.39225 12.504C2.9785 13.344 3.84475 14.464 4.956 15.5752C7.21175 17.831 10.2917 19.875 14 19.875C15.253 19.875 16.4325 19.6422 17.535 19.245L18.8825 20.596C17.3428 21.2703 15.6809 21.6206 14 21.625C5.25 21.625 0 12 0 12C0 12 1.64325 8.98824 4.62175 6.33349L5.86075 7.57424L5.8625 7.57249ZM23.8805 23.1195L2.8805 2.11949L4.1195 0.880493L25.1195 21.8805L23.8805 23.1195Z" fill="currentColor"/>
</svg>
image
<svg xmlns="http://www.w3.org/2000/svg" width="28" height="28" viewBox="0 0 28 28" fill="none">
  <path d="M10.5035 7.875C10.5035 8.57119 10.2269 9.23887 9.73466 9.73116C9.24238 10.2234 8.5747 10.5 7.87851 10.5C7.18232 10.5 6.51464 10.2234 6.02235 9.73116C5.53007 9.23887 5.25351 8.57119 5.25351 7.875C5.25351 7.17881 5.53007 6.51113 6.02235 6.01884C6.51464 5.52656 7.18232 5.25 7.87851 5.25C8.5747 5.25 9.24238 5.52656 9.73466 6.01884C10.2269 6.51113 10.5035 7.17881 10.5035 7.875Z" fill="currentColor"/>
  <path d="M2.625 0C1.92881 0 1.26113 0.368749 0.768845 1.02513C0.276562 1.6815 0 2.57174 0 3.5L0 24.5C0 25.4283 0.276562 26.3185 0.768845 26.9749C1.26113 27.6313 1.92881 28 2.625 28H25.375C26.0712 28 26.7389 27.6313 27.2312 26.9749C27.7234 26.3185 28 25.4283 28 24.5V3.5C28 2.57174 27.7234 1.6815 27.2312 1.02513C26.7389 0.368749 26.0712 0 25.375 0H2.625ZM25.375 2.33333C25.6071 2.33333 25.8296 2.45625 25.9937 2.67504C26.1578 2.89383 26.25 3.19058 26.25 3.5V17.5L19.6438 12.957C19.4796 12.8474 19.2938 12.8094 19.1126 12.8483C18.9314 12.8872 18.764 13.0012 18.634 13.174L12.1415 21.8307L7.4865 17.696C7.31843 17.5468 7.11683 17.4797 6.91589 17.5061C6.71495 17.5324 6.52703 17.6507 6.384 17.8407L1.7535 23.3333V24.5933L1.75 24.5V3.5C1.75 3.19058 1.84219 2.89383 2.00628 2.67504C2.17038 2.45625 2.39294 2.33333 2.625 2.33333H25.375Z" fill="currentColor"/>
</svg>
add image
<svg xmlns="http://www.w3.org/2000/svg" width="28" height="28" viewBox="0 0 28 28" fill="none">
  <mask id="mask0_221_1374" style="mask-type:alpha" maskUnits="userSpaceOnUse" x="0" y="0" width="28" height="28">
    <rect width="28" height="28" fill="#D9D9D9"/>
  </mask>
  <g mask="url(#mask0_221_1374)">
    <path d="M3.11111 28C2.25556 28 1.52315 27.6954 0.913889 27.0861C0.30463 26.4769 0 25.7444 0 24.8889V3.11111C0 2.25556 0.30463 1.52315 0.913889 0.913889C1.52315 0.30463 2.25556 0 3.11111 0H15.0556C15.3317 0 15.5556 0.223858 15.5556 0.5V2.61111C15.5556 2.88725 15.3317 3.11111 15.0556 3.11111H3.61111C3.33497 3.11111 3.11111 3.33497 3.11111 3.61111V24.3889C3.11111 24.665 3.33497 24.8889 3.61111 24.8889H24.3889C24.665 24.8889 24.8889 24.665 24.8889 24.3889V12.9444C24.8889 12.6683 25.1127 12.4444 25.3889 12.4444H27.5C27.7761 12.4444 28 12.6683 28 12.9444V24.8889C28 25.7444 27.6954 26.4769 27.0861 27.0861C26.4769 27.6954 25.7444 28 24.8889 28H3.11111ZM5.26667 20.9778C5.01945 21.3074 5.25464 21.7778 5.66667 21.7778H22.3333C22.7454 21.7778 22.9805 21.3074 22.7333 20.9778L17.9 14.5333C17.7 14.2667 17.3 14.2667 17.1 14.5333L13.2333 19.6889C13.0333 19.9556 12.6333 19.9556 12.4333 19.6889L9.73333 16.0889C9.53333 15.8222 9.13333 15.8222 8.93333 16.0889L5.26667 20.9778ZM22.2778 9.33333C22.0016 9.33333 21.7778 9.10948 21.7778 8.83333V6.72222C21.7778 6.44608 21.5539 6.22222 21.2778 6.22222H19.1667C18.8905 6.22222 18.6667 5.99836 18.6667 5.72222V3.61111C18.6667 3.33497 18.8905 3.11111 19.1667 3.11111H21.2778C21.5539 3.11111 21.7778 2.88725 21.7778 2.61111V0.499999C21.7778 0.223857 22.0016 0 22.2778 0H24.3889C24.665 0 24.8889 0.223858 24.8889 0.5V2.61111C24.8889 2.88725 25.1127 3.11111 25.3889 3.11111H27.5C27.7761 3.11111 28 3.33497 28 3.61111V5.72222C28 5.99837 27.7761 6.22222 27.5 6.22222H25.3889C25.1127 6.22222 24.8889 6.44608 24.8889 6.72222V8.83333C24.8889 9.10948 24.665 9.33333 24.3889 9.33333H22.2778Z" fill="currentColor"/>
  </g>
</svg>
message
<svg xmlns="http://www.w3.org/2000/svg" width="28" height="27" viewBox="0 0 28 27" fill="none">
  <path d="M8.75 13C8.75 13.4641 8.56563 13.9092 8.23744 14.2374C7.90925 14.5656 7.46413 14.75 7 14.75C6.53587 14.75 6.09075 14.5656 5.76256 14.2374C5.43437 13.9092 5.25 13.4641 5.25 13C5.25 12.5359 5.43437 12.0908 5.76256 11.7626C6.09075 11.4344 6.53587 11.25 7 11.25C7.46413 11.25 7.90925 11.4344 8.23744 11.7626C8.56563 12.0908 8.75 12.5359 8.75 13ZM15.75 13C15.75 13.4641 15.5656 13.9092 15.2374 14.2374C14.9092 14.5656 14.4641 14.75 14 14.75C13.5359 14.75 13.0908 14.5656 12.7626 14.2374C12.4344 13.9092 12.25 13.4641 12.25 13C12.25 12.5359 12.4344 12.0908 12.7626 11.7626C13.0908 11.4344 13.5359 11.25 14 11.25C14.4641 11.25 14.9092 11.4344 15.2374 11.7626C15.5656 12.0908 15.75 12.5359 15.75 13ZM21 14.75C21.4641 14.75 21.9092 14.5656 22.2374 14.2374C22.5656 13.9092 22.75 13.4641 22.75 13C22.75 12.5359 22.5656 12.0908 22.2374 11.7626C21.9092 11.4344 21.4641 11.25 21 11.25C20.5359 11.25 20.0908 11.4344 19.7626 11.7626C19.4344 12.0908 19.25 12.5359 19.25 13C19.25 13.4641 19.4344 13.9092 19.7626 14.2374C20.0908 14.5656 20.5359 14.75 21 14.75Z" fill="currentColor"/>
  <path d="M3.78875 26.6553L3.82375 26.6483C7.02625 26.013 8.98275 25.1748 9.89275 24.7145C11.2323 25.073 12.6133 25.2531 14 25.25C21.7315 25.25 28 19.7655 28 13C28 6.2345 21.7315 0.75 14 0.75C6.2685 0.75 0 6.2345 0 13C0 16.08 1.30025 18.8975 3.4475 21.05C3.29784 22.4328 2.99016 23.7938 2.5305 25.1065L2.52525 25.1257C2.39447 25.5017 2.25207 25.8734 2.09825 26.2405C1.96 26.566 2.22775 26.93 2.576 26.874C2.98139 26.8076 3.38569 26.7346 3.78875 26.6553ZM5.18875 21.2162C5.21326 20.96 5.18096 20.7016 5.09415 20.4593C5.00733 20.217 4.86814 19.9968 4.6865 19.8145C2.8315 17.9525 1.75 15.569 1.75 13C1.75 7.414 7.007 2.5 14 2.5C20.993 2.5 26.25 7.414 26.25 13C26.25 18.586 20.993 23.5 14 23.5C12.7663 23.503 11.5377 23.343 10.346 23.024C9.92946 22.9124 9.48638 22.9585 9.10175 23.1535C8.4245 23.4965 6.93175 24.151 4.49225 24.7162C4.83229 23.5737 5.06546 22.402 5.18875 21.2162Z" fill="currentColor"/>
</svg>
warning
<svg xmlns="http://www.w3.org/2000/svg" width="28" height="26" viewBox="0 0 28 26" fill="none">
  <path d="M13.8915 2.52804C13.9258 2.50923 13.9644 2.49959 14.0035 2.50004C14.042 2.49988 14.08 2.50952 14.1137 2.52804C14.1535 2.55231 14.1862 2.58674 14.2082 2.62779L26.208 23.045C26.271 23.15 26.2692 23.262 26.2115 23.3653C26.1875 23.4063 26.1553 23.4421 26.117 23.4703C26.0832 23.4934 26.0423 23.504 26.0015 23.5H2.0055C1.9647 23.504 1.92383 23.4934 1.89 23.4703C1.85169 23.4421 1.81953 23.4063 1.7955 23.3653C1.76739 23.3165 1.75289 23.261 1.75351 23.2047C1.75412 23.1484 1.76983 23.0932 1.799 23.045L13.797 2.62779C13.8191 2.58674 13.8517 2.55231 13.8915 2.52804ZM15.7185 1.74054C15.5453 1.43877 15.2955 1.18806 14.9944 1.01371C14.6932 0.839367 14.3514 0.747559 14.0035 0.747559C13.6555 0.747559 13.3138 0.839367 13.0126 1.01371C12.7115 1.18806 12.4617 1.43877 12.2885 1.74054L0.288747 22.1578C-0.511003 23.5193 0.447997 25.25 2.00375 25.25H26.0015C27.5572 25.25 28.518 23.5175 27.7165 22.1578L15.7185 1.74054Z" fill="currentColor"/>
  <path d="M12.2535 20.0001C12.2535 19.7703 12.2988 19.5427 12.3867 19.3304C12.4747 19.1181 12.6036 18.9251 12.7661 18.7626C12.9286 18.6001 13.1215 18.4712 13.3338 18.3833C13.5461 18.2953 13.7737 18.2501 14.0035 18.2501C14.2333 18.2501 14.4609 18.2953 14.6732 18.3833C14.8855 18.4712 15.0784 18.6001 15.2409 18.7626C15.4034 18.9251 15.5323 19.1181 15.6203 19.3304C15.7082 19.5427 15.7535 19.7703 15.7535 20.0001C15.7535 20.4642 15.5691 20.9093 15.2409 21.2375C14.9127 21.5657 14.4676 21.7501 14.0035 21.7501C13.5394 21.7501 13.0942 21.5657 12.7661 21.2375C12.4379 20.9093 12.2535 20.4642 12.2535 20.0001ZM12.425 9.49133C12.4017 9.27055 12.4251 9.04734 12.4936 8.83618C12.5621 8.62502 12.6743 8.43063 12.8228 8.26561C12.9713 8.1006 13.1529 7.96865 13.3557 7.87833C13.5585 7.78801 13.778 7.74133 14 7.74133C14.222 7.74133 14.4415 7.78801 14.6443 7.87833C14.8471 7.96865 15.0287 8.1006 15.1772 8.26561C15.3257 8.43063 15.4379 8.62502 15.5064 8.83618C15.5749 9.04734 15.5983 9.27055 15.575 9.49133L14.9625 15.6286C14.9419 15.8697 14.8316 16.0943 14.6534 16.2579C14.4751 16.4216 14.242 16.5124 14 16.5124C13.758 16.5124 13.5249 16.4216 13.3466 16.2579C13.1684 16.0943 13.0581 15.8697 13.0375 15.6286L12.425 9.49133Z" fill="currentColor"/>
</svg>
message
<svg xmlns="http://www.w3.org/2000/svg" width="28" height="28" viewBox="0 0 28 28" fill="none">
  <path d="M0 7C0 6.07174 0.368749 5.1815 1.02513 4.52513C1.6815 3.86875 2.57174 3.5 3.5 3.5H24.5C25.4283 3.5 26.3185 3.86875 26.9749 4.52513C27.6313 5.1815 28 6.07174 28 7V21C28 21.9283 27.6313 22.8185 26.9749 23.4749C26.3185 24.1313 25.4283 24.5 24.5 24.5H3.5C2.57174 24.5 1.6815 24.1313 1.02513 23.4749C0.368749 22.8185 0 21.9283 0 21V7ZM3.5 5.25C3.03587 5.25 2.59075 5.43437 2.26256 5.76256C1.93437 6.09075 1.75 6.53587 1.75 7V7.37975L14 14.7297L26.25 7.37975V7C26.25 6.53587 26.0656 6.09075 25.7374 5.76256C25.4092 5.43437 24.9641 5.25 24.5 5.25H3.5ZM26.25 9.42025L18.011 14.364L26.25 19.4337V9.42025ZM26.1905 21.4532L16.3205 15.379L14 16.7703L11.6795 15.379L1.8095 21.4515C1.90894 21.8239 2.12855 22.153 2.43423 22.3878C2.73991 22.6226 3.11455 22.7499 3.5 22.75H24.5C24.8852 22.75 25.2597 22.623 25.5653 22.3885C25.871 22.1541 26.0907 21.8253 26.1905 21.4532ZM1.75 19.4337L9.989 14.364L1.75 9.42025V19.4337Z" fill="currentColor"/>
</svg>
settings
<svg xmlns="http://www.w3.org/2000/svg" width="28" height="28" viewBox="0 0 28 28" fill="none">
  <path d="M14 8.31946C13.254 8.31946 12.5153 8.46639 11.8262 8.75186C11.137 9.03733 10.5108 9.45575 9.98327 9.98324C9.45579 10.5107 9.03736 11.1369 8.75189 11.8261C8.46642 12.5153 8.31949 13.254 8.31949 14C8.31949 14.7459 8.46642 15.4846 8.75189 16.1738C9.03736 16.863 9.45579 17.4892 9.98327 18.0167C10.5108 18.5442 11.137 18.9626 11.8262 19.2481C12.5153 19.5335 13.254 19.6805 14 19.6805C15.5066 19.6805 16.9514 19.082 18.0167 18.0167C19.082 16.9514 19.6805 15.5065 19.6805 14C19.6805 12.4934 19.082 11.0485 18.0167 9.98324C16.9514 8.91794 15.5066 8.31946 14 8.31946ZM10.0695 14C10.0695 12.9575 10.4836 11.9578 11.2207 11.2207C11.9578 10.4836 12.9576 10.0695 14 10.0695C15.0424 10.0695 16.0422 10.4836 16.7793 11.2207C17.5164 11.9578 17.9305 12.9575 17.9305 14C17.9305 15.0424 17.5164 16.0421 16.7793 16.7792C16.0422 17.5164 15.0424 17.9305 14 17.9305C12.9576 17.9305 11.9578 17.5164 11.2207 16.7792C10.4836 16.0421 10.0695 15.0424 10.0695 14Z" fill="currentColor"/>
  <path d="M17.143 2.35023C16.2207 -0.78227 11.7792 -0.78227 10.857 2.35023L10.6925 2.90848C10.6281 3.12715 10.5156 3.32863 10.3632 3.49816C10.2108 3.66769 10.0224 3.80096 9.81179 3.88822C9.6012 3.97548 9.37375 4.0145 9.14612 4.00244C8.91848 3.99037 8.69643 3.92751 8.49624 3.81848L7.98524 3.53848C5.11524 1.97748 1.97749 5.11698 3.54024 7.98523L3.81849 8.49623C3.92753 8.69642 3.99038 8.91846 4.00245 9.1461C4.01452 9.37373 3.97549 9.60118 3.88824 9.81178C3.80098 10.0224 3.6677 10.2108 3.49817 10.3632C3.32864 10.5155 3.12716 10.6281 2.90849 10.6925L2.35024 10.857C-0.782255 11.7792 -0.782255 16.2207 2.35024 17.143L2.90849 17.3075C3.12716 17.3719 3.32864 17.4844 3.49817 17.6368C3.6677 17.7892 3.80098 17.9776 3.88824 18.1882C3.97549 18.3988 4.01452 18.6262 4.00245 18.8539C3.99038 19.0815 3.92753 19.3035 3.81849 19.5037L3.5385 20.0147C1.97749 22.8847 5.11524 26.0242 7.98524 24.4597L8.49624 24.1815C8.69643 24.0724 8.91848 24.0096 9.14612 23.9975C9.37375 23.9855 9.6012 24.0245 9.81179 24.1117C10.0224 24.199 10.2108 24.3323 10.3632 24.5018C10.5156 24.6713 10.6281 24.8728 10.6925 25.0915L10.857 25.6497C11.7792 28.7822 16.2207 28.7822 17.143 25.6497L17.3075 25.0915C17.3719 24.8728 17.4844 24.6713 17.6368 24.5018C17.7892 24.3323 17.9776 24.199 18.1882 24.1117C18.3988 24.0245 18.6262 23.9855 18.8539 23.9975C19.0815 24.0096 19.3036 24.0724 19.5037 24.1815L20.0147 24.4615C22.8847 26.0242 26.0242 22.883 24.4597 20.0147L24.1815 19.5037C24.0725 19.3035 24.0096 19.0815 23.9975 18.8539C23.9855 18.6262 24.0245 18.3988 24.1118 18.1882C24.199 17.9776 24.3323 17.7892 24.5018 17.6368C24.6713 17.4844 24.8728 17.3719 25.0915 17.3075L25.6497 17.143C28.7822 16.2207 28.7822 11.7792 25.6497 10.857L25.0915 10.6925C24.8728 10.6281 24.6713 10.5155 24.5018 10.3632C24.3323 10.2108 24.199 10.0224 24.1118 9.81178C24.0245 9.60118 23.9855 9.37373 23.9975 9.1461C24.0096 8.91846 24.0725 8.69642 24.1815 8.49623L24.4615 7.98523C26.0242 5.11523 22.883 1.97748 20.0147 3.54023L19.5037 3.81848C19.3036 3.92751 19.0815 3.99037 18.8539 4.00244C18.6262 4.0145 18.3988 3.97548 18.1882 3.88822C17.9776 3.80096 17.7892 3.66769 17.6368 3.49816C17.4844 3.32863 17.3719 3.12715 17.3075 2.90848L17.143 2.35023ZM12.5352 2.84548C12.9657 1.38423 15.0342 1.38423 15.4647 2.84548L15.6292 3.40373C15.7675 3.87288 16.0091 4.30513 16.3361 4.6688C16.6632 5.03247 17.0675 5.31834 17.5194 5.50544C17.9713 5.69255 18.4593 5.77615 18.9477 5.75011C19.4361 5.72408 19.9125 5.58907 20.342 5.35498L20.8512 5.07498C22.1882 4.34873 23.6512 5.80998 22.9232 7.14873L22.645 7.65973C22.4113 8.08923 22.2766 8.56558 22.2508 9.05388C22.2251 9.54218 22.3089 10.0301 22.4962 10.4818C22.6834 10.9335 22.9694 11.3375 23.333 11.6644C23.6967 11.9912 24.1289 12.2326 24.598 12.3707L25.1545 12.5352C26.6157 12.9657 26.6157 15.0342 25.1545 15.4647L24.5962 15.6292C24.1271 15.7675 23.6948 16.009 23.3312 16.3361C22.9675 16.6632 22.6816 17.0675 22.4945 17.5194C22.3074 17.9713 22.2238 18.4593 22.2499 18.9477C22.2759 19.4361 22.4109 19.9125 22.645 20.342L22.925 20.8512C23.6512 22.1882 22.19 23.6512 20.8512 22.9232L20.342 22.645C19.9124 22.4109 19.4359 22.276 18.9474 22.25C18.4589 22.2241 17.9708 22.3079 17.5189 22.4952C17.0669 22.6824 16.6627 22.9685 16.3357 23.3324C16.0087 23.6962 15.7673 24.1287 15.6292 24.598L15.4647 25.1545C15.0342 26.6157 12.9657 26.6157 12.5352 25.1545L12.3707 24.5962C12.2324 24.1273 11.9909 23.6953 11.664 23.3318C11.337 22.9683 10.9329 22.6826 10.4813 22.4955C10.0296 22.3084 9.54177 22.2247 9.05356 22.2506C8.56536 22.2765 8.08913 22.4112 7.65974 22.645L7.14874 22.925C5.81174 23.6512 4.34874 22.19 5.07674 20.8512L5.35499 20.342C5.58941 19.9125 5.72468 19.4359 5.75089 18.9473C5.7771 18.4587 5.69357 17.9704 5.50645 17.5183C5.31932 17.0661 5.03334 16.6616 4.66948 16.3344C4.30563 16.0073 3.87314 15.7657 3.40374 15.6275L2.84549 15.463C1.38424 15.0325 1.38424 12.964 2.84549 12.5335L3.40374 12.369C3.87241 12.2306 4.30419 11.9891 4.66749 11.6623C5.0308 11.3355 5.31643 10.9316 5.50349 10.4801C5.69054 10.0287 5.77429 9.54111 5.7486 9.05311C5.72291 8.56512 5.58842 8.08904 5.35499 7.65973L5.07499 7.14873C4.34874 5.81173 5.80999 4.34873 7.14874 5.07673L7.65974 5.35498C8.08913 5.58874 8.56536 5.72348 9.05356 5.74935C9.54177 5.77521 10.0296 5.69154 10.4813 5.50446C10.9329 5.31738 11.337 5.03163 11.664 4.66814C11.9909 4.30465 12.2324 3.87263 12.3707 3.40373L12.5352 2.84548Z" fill="currentColor"/>
</svg>
save
<svg xmlns="http://www.w3.org/2000/svg" width="28" height="28" viewBox="0 0 28 28" fill="none">
  <path d="M19.25 3.5H15.75V8.75H19.25V3.5Z" fill="currentColor"/>
  <path d="M2.625 0H22.9005C23.5965 0.000612682 24.2637 0.277576 24.7555 0.77L27.2318 3.2445C27.7235 3.7366 27.9999 4.40379 28 5.0995V25.375C28 26.0712 27.7234 26.7389 27.2312 27.2312C26.7389 27.7234 26.0712 28 25.375 28H2.625C1.92881 28 1.26113 27.7234 0.768845 27.2312C0.276562 26.7389 0 26.0712 0 25.375L0 2.625C0 1.92881 0.276562 1.26113 0.768845 0.768845C1.26113 0.276562 1.92881 0 2.625 0ZM1.75 2.625V25.375C1.75 25.6071 1.84219 25.8296 2.00628 25.9937C2.17038 26.1578 2.39294 26.25 2.625 26.25H3.5V18.375C3.5 17.6788 3.77656 17.0111 4.26884 16.5188C4.76113 16.0266 5.42881 15.75 6.125 15.75H21.875C22.5712 15.75 23.2389 16.0266 23.7312 16.5188C24.2234 17.0111 24.5 17.6788 24.5 18.375V26.25H25.375C25.6071 26.25 25.8296 26.1578 25.9937 25.9937C26.1578 25.8296 26.25 25.6071 26.25 25.375V5.0995C26.25 4.86788 26.1581 4.64573 25.9945 4.48175L23.5182 2.0055C23.3543 1.84193 23.1321 1.75005 22.9005 1.75H22.75V9.625C22.75 10.3212 22.4734 10.9889 21.9812 11.4812C21.4889 11.9734 20.8212 12.25 20.125 12.25H7.875C7.17881 12.25 6.51113 11.9734 6.01884 11.4812C5.52656 10.9889 5.25 10.3212 5.25 9.625V1.75H2.625C2.39294 1.75 2.17038 1.84219 2.00628 2.00628C1.84219 2.17038 1.75 2.39294 1.75 2.625ZM7 9.625C7 9.85706 7.09219 10.0796 7.25628 10.2437C7.42038 10.4078 7.64294 10.5 7.875 10.5H20.125C20.3571 10.5 20.5796 10.4078 20.7437 10.2437C20.9078 10.0796 21 9.85706 21 9.625V1.75H7V9.625ZM5.25 26.25H22.75V18.375C22.75 18.1429 22.6578 17.9204 22.4937 17.7563C22.3296 17.5922 22.1071 17.5 21.875 17.5H6.125C5.89294 17.5 5.67038 17.5922 5.50628 17.7563C5.34219 17.9204 5.25 18.1429 5.25 18.375V26.25Z" fill="currentColor"/>
</svg>
day
<svg xmlns="http://www.w3.org/2000/svg" width="28" height="28" viewBox="0 0 28 28" fill="none">
  <g clip-path="url(#clip0_221_1377)">
    <path d="M14 19.25C12.6076 19.25 11.2723 18.6969 10.2877 17.7123C9.30312 16.7277 8.75 15.3924 8.75 14C8.75 12.6076 9.30312 11.2723 10.2877 10.2877C11.2723 9.30312 12.6076 8.75 14 8.75C15.3924 8.75 16.7277 9.30312 17.7123 10.2877C18.6969 11.2723 19.25 12.6076 19.25 14C19.25 15.3924 18.6969 16.7277 17.7123 17.7123C16.7277 18.6969 15.3924 19.25 14 19.25ZM14 21C15.8565 21 17.637 20.2625 18.9497 18.9497C20.2625 17.637 21 15.8565 21 14C21 12.1435 20.2625 10.363 18.9497 9.05025C17.637 7.7375 15.8565 7 14 7C12.1435 7 10.363 7.7375 9.05025 9.05025C7.7375 10.363 7 12.1435 7 14C7 15.8565 7.7375 17.637 9.05025 18.9497C10.363 20.2625 12.1435 21 14 21ZM14 0C14.2321 0 14.4546 0.0921872 14.6187 0.256282C14.7828 0.420376 14.875 0.642936 14.875 0.875V4.375C14.875 4.60706 14.7828 4.82962 14.6187 4.99372C14.4546 5.15781 14.2321 5.25 14 5.25C13.7679 5.25 13.5454 5.15781 13.3813 4.99372C13.2172 4.82962 13.125 4.60706 13.125 4.375V0.875C13.125 0.642936 13.2172 0.420376 13.3813 0.256282C13.5454 0.0921872 13.7679 0 14 0ZM14 22.75C14.2321 22.75 14.4546 22.8422 14.6187 23.0063C14.7828 23.1704 14.875 23.3929 14.875 23.625V27.125C14.875 27.3571 14.7828 27.5796 14.6187 27.7437C14.4546 27.9078 14.2321 28 14 28C13.7679 28 13.5454 27.9078 13.3813 27.7437C13.2172 27.5796 13.125 27.3571 13.125 27.125V23.625C13.125 23.3929 13.2172 23.1704 13.3813 23.0063C13.5454 22.8422 13.7679 22.75 14 22.75ZM28 14C28 14.2321 27.9078 14.4546 27.7437 14.6187C27.5796 14.7828 27.3571 14.875 27.125 14.875H23.625C23.3929 14.875 23.1704 14.7828 23.0063 14.6187C22.8422 14.4546 22.75 14.2321 22.75 14C22.75 13.7679 22.8422 13.5454 23.0063 13.3813C23.1704 13.2172 23.3929 13.125 23.625 13.125H27.125C27.3571 13.125 27.5796 13.2172 27.7437 13.3813C27.9078 13.5454 28 13.7679 28 14ZM5.25 14C5.25 14.2321 5.15781 14.4546 4.99372 14.6187C4.82962 14.7828 4.60706 14.875 4.375 14.875H0.875C0.642936 14.875 0.420376 14.7828 0.256282 14.6187C0.0921872 14.4546 0 14.2321 0 14C0 13.7679 0.0921872 13.5454 0.256282 13.3813C0.420376 13.2172 0.642936 13.125 0.875 13.125H4.375C4.60706 13.125 4.82962 13.2172 4.99372 13.3813C5.15781 13.5454 5.25 13.7679 5.25 14ZM23.8997 4.10025C24.0638 4.26434 24.1559 4.48686 24.1559 4.71887C24.1559 4.95089 24.0638 5.17341 23.8997 5.3375L21.4253 7.81375C21.3439 7.89499 21.2473 7.95941 21.1411 8.00333C21.0348 8.04725 20.921 8.06982 20.806 8.06974C20.5738 8.06957 20.3512 7.97718 20.1871 7.81287C20.1059 7.73152 20.0415 7.63496 19.9975 7.52871C19.9536 7.42246 19.9311 7.3086 19.9311 7.19363C19.9313 6.96144 20.0237 6.73882 20.188 6.57475L22.6625 4.10025C22.8266 3.93621 23.0491 3.84406 23.2811 3.84406C23.5131 3.84406 23.7357 3.93621 23.8997 4.10025ZM7.812 20.188C7.97604 20.3521 8.06819 20.5746 8.06819 20.8066C8.06819 21.0386 7.97604 21.2612 7.812 21.4253L5.3375 23.8997C5.17247 24.0591 4.95145 24.1473 4.72202 24.1453C4.4926 24.1433 4.27314 24.0513 4.11091 23.8891C3.94868 23.7269 3.85665 23.5074 3.85466 23.278C3.85267 23.0486 3.94086 22.8275 4.10025 22.6625L6.57475 20.188C6.73884 20.024 6.96136 19.9318 7.19337 19.9318C7.42539 19.9318 7.64791 20.024 7.812 20.188ZM23.8997 23.8997C23.7357 24.0638 23.5131 24.1559 23.2811 24.1559C23.0491 24.1559 22.8266 24.0638 22.6625 23.8997L20.188 21.4253C20.0286 21.2602 19.9404 21.0392 19.9424 20.8098C19.9444 20.5804 20.0364 20.3609 20.1987 20.1987C20.3609 20.0364 20.5804 19.9444 20.8098 19.9424C21.0392 19.9404 21.2602 20.0286 21.4253 20.188L23.8997 22.6625C24.0638 22.8266 24.1559 23.0491 24.1559 23.2811C24.1559 23.5131 24.0638 23.7357 23.8997 23.8997ZM7.812 7.81375C7.64791 7.97779 7.42539 8.06994 7.19337 8.06994C6.96136 8.06994 6.73884 7.97779 6.57475 7.81375L4.10025 5.3375C4.01668 5.25678 3.95002 5.16023 3.90416 5.05348C3.8583 4.94673 3.83417 4.83191 3.83316 4.71573C3.83215 4.59954 3.85429 4.48432 3.89828 4.37679C3.94228 4.26926 4.00725 4.17156 4.0894 4.0894C4.17156 4.00725 4.26926 3.94228 4.37679 3.89828C4.48432 3.85429 4.59954 3.83215 4.71573 3.83316C4.83191 3.83417 4.94673 3.8583 5.05348 3.90416C5.16023 3.95002 5.25678 4.01668 5.3375 4.10025L7.812 6.57475C7.89349 6.65603 7.95814 6.75259 8.00225 6.85889C8.04636 6.9652 8.06906 7.07916 8.06906 7.19425C8.06906 7.30934 8.04636 7.42331 8.00225 7.52961C7.95814 7.63591 7.89349 7.73247 7.812 7.81375Z" fill="currentColor"/>
  </g>
  <defs>
    <clipPath id="clip0_221_1377">
      <rect width="28" height="28" fill="white"/>
    </clipPath>
  </defs>
</svg>
night
<svg xmlns="http://www.w3.org/2000/svg" width="28" height="28" viewBox="0 0 28 28" fill="none">
  <path d="M10.5 0.486307C10.6704 0.694096 10.7748 0.948083 10.7997 1.21564C10.8247 1.4832 10.769 1.7521 10.64 1.98781C9.62769 3.84517 9.09928 5.9275 9.1035 8.04281C9.1035 15.0796 14.84 20.7776 21.91 20.7776C22.834 20.7764 23.7283 20.6831 24.5928 20.4976C24.8572 20.441 25.1325 20.4632 25.3844 20.5615C25.6364 20.6598 25.854 20.8298 26.0103 21.0506C26.1756 21.2803 26.26 21.5584 26.2502 21.8412C26.2403 22.1241 26.1369 22.3956 25.956 22.6133C24.5834 24.2992 22.8518 25.6576 20.8876 26.5895C18.9234 27.5213 16.776 28.0031 14.602 27.9998C6.5345 27.9998 0 21.5003 0 13.4923C0 7.46531 3.6995 2.29581 8.967 0.104807C9.2293 -0.00666782 9.52075 -0.0297351 9.79732 0.0390914C10.0739 0.107918 10.3205 0.264897 10.5 0.486307ZM8.5015 2.29406C6.47618 3.38066 4.78304 4.99561 3.60198 6.96734C2.42091 8.93907 1.79604 11.1939 1.79375 13.4923C1.79375 20.5273 7.532 26.2253 14.602 26.2253C16.295 26.2279 17.9717 25.8948 19.5351 25.2454C21.0986 24.596 22.5178 23.6431 23.7108 22.4418C23.1204 22.5153 22.5202 22.5521 21.91 22.5521C13.8425 22.5521 7.30975 16.0526 7.30975 8.04456C7.30975 6.00231 7.73325 4.05806 8.5015 2.29406Z" fill="currentColor"/>
  <path d="M18.8895 5.50894C18.9146 5.43316 18.9629 5.36721 19.0277 5.32047C19.0924 5.27372 19.1702 5.24857 19.25 5.24857C19.3298 5.24857 19.4076 5.27372 19.4724 5.32047C19.5371 5.36721 19.5854 5.43316 19.6105 5.50894L20.2878 7.54244C20.5905 8.44894 21.301 9.15944 22.2075 9.46219L24.241 10.1394C24.3168 10.1645 24.3827 10.2129 24.4295 10.2776C24.4762 10.3423 24.5014 10.4201 24.5014 10.4999C24.5014 10.5798 24.4762 10.6576 24.4295 10.7223C24.3827 10.787 24.3168 10.8353 24.241 10.8604L22.2075 11.5377C21.7602 11.6862 21.3537 11.937 21.0204 12.2703C20.6871 12.6036 20.4362 13.0101 20.2878 13.4574L19.6105 15.4909C19.5854 15.5667 19.5371 15.6327 19.4724 15.6794C19.4076 15.7262 19.3298 15.7513 19.25 15.7513C19.1702 15.7513 19.0924 15.7262 19.0277 15.6794C18.9629 15.6327 18.9146 15.5667 18.8895 15.4909L18.2123 13.4574C18.0638 13.0101 17.8129 12.6036 17.4796 12.2703C17.1463 11.937 16.7398 11.6862 16.2925 11.5377L14.259 10.8604C14.1832 10.8353 14.1173 10.787 14.0705 10.7223C14.0238 10.6576 13.9986 10.5798 13.9986 10.4999C13.9986 10.4201 14.0238 10.3423 14.0705 10.2776C14.1173 10.2129 14.1832 10.1645 14.259 10.1394L16.2925 9.46219C16.7398 9.31373 17.1463 9.06286 17.4796 8.72958C17.8129 8.39629 18.0638 7.98979 18.2123 7.54244L18.8895 5.50894ZM24.2603 0.173193C24.2775 0.123364 24.3099 0.080156 24.3529 0.0495759C24.3958 0.0189958 24.4473 0.00256348 24.5 0.00256348C24.5527 0.00256348 24.6042 0.0189958 24.6471 0.0495759C24.6901 0.080156 24.7225 0.123364 24.7398 0.173193L25.1913 1.52769C25.3925 2.13319 25.8668 2.60744 26.4723 2.80869L27.8268 3.26019C27.8766 3.27747 27.9198 3.30984 27.9504 3.35281C27.981 3.39578 27.9974 3.4472 27.9974 3.49994C27.9974 3.55268 27.981 3.60411 27.9504 3.64708C27.9198 3.69005 27.8766 3.72242 27.8268 3.73969L26.4723 4.19119C26.1741 4.29094 25.9032 4.45857 25.6809 4.68087C25.4586 4.90317 25.291 5.17406 25.1913 5.47219L24.7398 6.82669C24.7225 6.87652 24.6901 6.91973 24.6471 6.95031C24.6042 6.98089 24.5527 6.99732 24.5 6.99732C24.4473 6.99732 24.3958 6.98089 24.3529 6.95031C24.3099 6.91973 24.2775 6.87652 24.2603 6.82669L23.8088 5.47219C23.709 5.17406 23.5414 4.90317 23.3191 4.68087C23.0968 4.45857 22.8259 4.29094 22.5278 4.19119L21.1733 3.73969C21.1234 3.72242 21.0802 3.69005 21.0496 3.64708C21.0191 3.60411 21.0026 3.55268 21.0026 3.49994C21.0026 3.4472 21.0191 3.39578 21.0496 3.35281C21.0802 3.30984 21.1234 3.27747 21.1733 3.26019L22.5278 2.80869C23.1333 2.60744 23.6075 2.13319 23.8088 1.52769L24.2603 0.173193Z" fill="currentColor"/>
</svg>

arrow forward down
<svg xmlns="http://www.w3.org/2000/svg" width="28" height="28" viewBox="0 0 28 28" fill="none">
  <mask id="mask0_183_1855" style="mask-type:alpha" maskUnits="userSpaceOnUse" x="0" y="0" width="28" height="28">
    <rect x="28" width="28" height="28" transform="rotate(90 28 0)" fill="#D9D9D9"/>
  </mask>
  <g mask="url(#mask0_183_1855)">
    <path d="M2.68689 9.71601C2.49163 9.52075 2.49163 9.20417 2.68689 9.00891L4.05062 7.64518C4.24588 7.44992 4.56246 7.44992 4.75772 7.64518L13.6465 16.5339C13.8417 16.7292 14.1583 16.7292 14.3536 16.5339L23.2423 7.64518C23.4375 7.44992 23.7541 7.44992 23.9494 7.64518L25.3131 9.00891C25.5084 9.20417 25.5084 9.52075 25.3131 9.71601L14.3536 20.6756C14.1583 20.8708 13.8417 20.8708 13.6465 20.6756L2.68689 9.71601Z" fill="currentColor"/>
  </g>
</svg>