<svg xmlns="http://www.w3.org/2000/svg" viewBox="0 0 215.89 228.94"><defs><style>.cls-1{fill:#fff;}.cls-2{fill:#4a1514;}.cls-3{fill:#7e251a;}.cls-4{fill:#325954;}.cls-5{fill:#d65b56;}</style></defs><g id="Layer_2" data-name="Layer 2"><g id="Layer_1-2" data-name="Layer 1"><path class="cls-1" d="M108.72,181.64l-1.2-1.23c.91-7.62,5.12-13.64,9.69-19.39,5-6.28,11.94-8,20.63-6.54-3.24-4.74-5.66-8.3-8.1-11.84-2.57-3.73-5.13-4.39-8.38-.5-2.77,3.33-5.7,6.52-8,10.24-3.45,5.73-6.83,11.5-10.62,17.9-.75-2.44-1.29-4.18-1.81-5.92a50.73,50.73,0,0,0-10.41-19.19c-6-6.91-9.31-6.71-14.17.85-1.48,2.3-3.57,4.35-3.94,7.31C90.53,154.47,101.38,166.2,99.7,183c-4.62-4.87-9-9.76-13.63-14.3-11.23-10.91-24.37-7-28.66,8.6,10-3.05,19.76-2.89,29.06,2,9.6,5.07,14.14,14,17.34,25.06,4.88-24.62,23.11-29.22,38.35-28.54,3.26.15,8.47,2.72,9.27.68,1.43-3.6-3.3-6.13-5.69-8.86-6.9-7.89-12.61-8.35-21-1.83C118.77,170.42,113.85,176.15,108.72,181.64ZM104,95.51C98.73,107,93.82,116.82,87.81,126.08c-1.3,2-1.48,3.42.82,5.08a57.15,57.15,0,0,1,14.11,14.36c1.42,2.11,2.3,2.44,4,.23,4.41-5.61,9.16-10.92,15-15.08,1.48-1,2.54-2.06,1.12-4.1C116.24,116.89,110.21,106.79,104,95.51Zm65.34,125.26a9,9,0,0,0-1.27-4.83,28.38,28.38,0,0,0-14.66-12.56c-11.31-4.19-25.26,2.49-27.8,13.07-1,4.11-.69,8.42,3.48,10.26,6,2.62,12.83,3.59,18.15-.83,4.21-3.52,6.79-4.54,11.64-1S169.14,225.79,169.29,220.77ZM68.53,228.39c6.78.1,11.43-1.37,13.54-7s-.32-10-4.22-13.62c-10.12-9.49-25.83-7.11-35.37,5.47-2.48,3.26-6.64,7.21-3.06,11.36s7.88.89,11.48-1.63c.46-.32,1-.6,1.41-.93,2-1.42,3.63-1.42,5.2.86A12.67,12.67,0,0,0,68.53,228.39Zm89.12-32.45c-4.62-7.67-14.14-11.68-22-10-21.62,4.62-28.14,22.47-27.88,38.86,0,1.33-.09,2.73,1.9,2.76,1.82,0,2.12-1.35,2.38-2.62.56-2.75,1-5.55,1.51-8.31,3.85-19.37,22-31.47,40.58-21.79A25.46,25.46,0,0,0,157.65,195.94Zm-107.11-.57c3.12-.75,5.06-.85,6.62-1.66C72,186,87.7,196.18,93,210.11c1.88,4.94,2.81,10.11,3.83,15.26.31,1.55.92,2.35,2.55,2.32,2.06,0,1.9-1.51,1.74-2.79-1.42-11.55-4-22.69-12.85-31.12C76.35,182.39,61.19,182.58,50.54,195.37Z"/><path class="cls-2" d="M189,228.94c-4,.06-6.1-1.43-7.72-5-10.7-23.81-21.34-47.65-32.48-71.26-13.7-29-27.87-57.89-40.77-87.32-.13-.28-.54-.44-1.2-1C99.05,81.25,91.33,98,83.57,114.75Q58.36,169.2,33.16,223.68c-1.7,3.71-3.76,5.49-8.07,5.22-6.38-.41-12.8-.12-19.2-.2-6.2-.08-7.14-1.37-4.52-7.07,10.13-22,20.41-44,30.61-65.94Q66.26,81.79,100.59,7.92c1.42-3,1.83-8,6.06-7.92s4.68,4.87,6.16,8q42.57,89.64,85.07,179.3c.86,1.82,9.34,21.31,17.67,36.92a2.91,2.91,0,0,1-2.52,4.27Z"/><path class="cls-3" d="M108.72,181.64c5.13-5.49,10-11.22,16-15.86,8.4-6.52,14.11-6.06,21,1.83,2.39,2.73,7.12,5.26,5.69,8.86-.8,2-6-.53-9.27-.68-15.24-.68-33.47,3.92-38.35,28.54-3.2-11.1-7.74-20-17.34-25.06-9.3-4.91-19-5.07-29.06-2,4.29-15.63,17.43-19.51,28.66-8.6,4.67,4.54,9,9.43,13.63,14.3,1.68-16.75-9.17-28.48-27.24-29.62.37-3,2.46-5,3.94-7.31,4.86-7.56,8.12-7.76,14.17-.85A50.73,50.73,0,0,1,101,164.36c.52,1.74,1.06,3.48,1.81,5.92,3.79-6.4,7.17-12.17,10.62-17.9,2.25-3.72,5.18-6.91,8-10.24,3.25-3.89,5.81-3.23,8.38.5,2.44,3.54,4.86,7.1,8.1,11.84-8.69-1.43-15.63.26-20.63,6.54-4.57,5.75-8.78,11.77-9.69,19.39a2,2,0,0,0-.29,2.36Z"/><path class="cls-4" d="M104,95.51c6.26,11.28,12.29,21.38,19,31.06,1.42,2,.36,3.06-1.12,4.1-5.88,4.16-10.63,9.47-15,15.08-1.74,2.21-2.62,1.88-4-.23a57.15,57.15,0,0,0-14.11-14.36c-2.3-1.66-2.12-3.08-.82-5.08C93.82,116.82,98.73,107,104,95.51Z"/><path class="cls-5" d="M169.29,220.77c-.15,5-5.59,7.73-10.46,4.14s-7.43-2.55-11.64,1c-5.32,4.42-12.18,3.45-18.15.83-4.17-1.84-4.47-6.15-3.48-10.26,2.54-10.58,16.49-17.26,27.8-13.07A28.38,28.38,0,0,1,168,215.94,9,9,0,0,1,169.29,220.77Z"/><path class="cls-5" d="M68.53,228.39a12.67,12.67,0,0,1-11-5.5c-1.57-2.28-3.18-2.28-5.2-.86-.46.33-1,.61-1.41.93-3.6,2.52-7.81,5.87-11.48,1.63s.58-8.1,3.06-11.36c9.54-12.58,25.25-15,35.37-5.47,3.9,3.66,6.3,8.06,4.22,13.62S75.31,228.49,68.53,228.39Z"/><path class="cls-4" d="M157.65,195.94a25.46,25.46,0,0,1-3.46-1.11c-18.54-9.68-36.73,2.42-40.58,21.79-.55,2.76-1,5.56-1.51,8.31-.26,1.27-.56,2.64-2.38,2.62-2,0-1.88-1.43-1.9-2.76-.26-16.39,6.26-34.24,27.88-38.86C143.51,184.26,153,188.27,157.65,195.94Z"/><path class="cls-4" d="M50.54,195.37c10.65-12.79,25.81-13,37.73-1.59,8.82,8.43,11.43,19.57,12.85,31.12.16,1.28.32,2.75-1.74,2.79-1.63,0-2.24-.77-2.55-2.32-1-5.15-2-10.32-3.83-15.26-5.3-13.93-21-24.13-35.84-16.4C55.6,194.52,53.66,194.62,50.54,195.37Z"/><path class="cls-1" d="M108.72,181.64l-1.49,1.13a2,2,0,0,1,.29-2.36Z"/></g></g></svg>