<svg xmlns="http://www.w3.org/2000/svg" viewBox="0 0 918.87 238.33"><defs><style>.cls-1{fill:#fef8e5;stroke:#4a1514;stroke-miterlimit:10;}.cls-2{fill:#d65b56;}.cls-3{fill:#7e251a;}.cls-4{fill:#4a1514;}.cls-5{fill:#325954;}.cls-6{fill:#e0beba;}.cls-7{fill:#fff;}</style></defs><g id="Layer_2" data-name="Layer 2"><g id="Layer_1-2" data-name="Layer 1"><path class="cls-1" d="M208.91,200q0-71.44,0-142.9c0-15.17.3-30.35,0-45.52-.1-5.6,2.41-7.17,7.28-7.12,5.64,0,11.29.22,16.92-.13,4.91-.31,6.5,1.68,6.48,6.41-.12,21.6,0,43.19,0,64.79v7.75c6.7-7.39,12.32-13.68,18-19.87,18.2-19.73,37.14-38.74,56.07-57.76,3.25-3.26,6.45-6.31,11.66-4.27,6.42,2.51,11.82,6.34,14.14,13,1.16,3.28-2.19,5.58-4.31,7.73q-21.72,22-43.6,43.86C283,74.55,274.3,83.22,265.49,91.73c-2.54,2.46-2.39,4.06,0,6.62,17.35,18.91,34.55,38,51.81,57,6.6,7.25,6.69,7.29,10.89-1.33q34.13-70.17,68.2-140.38c.85-1.74,1.77-3.45,2.67-5.17,2.1-4,4.75-6.92,9.89-6.78s7.68,2.93,9.63,7.11C424.28,21.08,430,33.39,436,45.63c29.74,61.51,57.46,124,87.61,185.31,2.59,5.28,1.82,6.45-4,6.49-6.61,0-13.23-.09-19.84.16-4.61.17-7.16-1.49-9.29-5.89-14.82-30.55-28.49-61.64-42.85-92.4-12.08-25.85-24.76-51.43-37.16-77.13-.5-1-.76-2.23-2-2.8q-19.58,40.55-39.17,81.09c-5.59,11.53-11,23.2-17.28,34.34-3.36,5.94-2.23,9.15,2.46,13.63,12.5,11.95,24.44,24.49,36.38,37,2.85,3,7.57,6.7,6,10.49-1.31,3.19-7.1,1.38-10.9,1.46-10.11.21-20.23-.06-30.34.25-5.33.16-9.07-1.71-12.56-5.75q-49-56.67-98.36-113.11c-1.26-1.45-2.58-2.83-4-4.33-1.73,1.61-.87,3.44-.87,5q.09,55.16.31,110.31c0,7.83,0,7.83-7.62,7.82-12.26,0-24.52-.14-36.77,0-4.09.06-6.31-1.47-8-5.18-11.06-24.59-22.05-49.21-33.55-73.6-14.15-30-28.78-59.78-42.11-90.18-.13-.29-.55-.45-1.24-1-8,17.43-16,34.73-24,52q-26,56.24-52.06,112.51c-1.76,3.83-3.89,5.67-8.33,5.38-6.59-.41-13.23-.12-19.84-.2-6.4-.08-7.37-1.42-4.66-7.31C12.38,207.36,23,184.69,33.52,162Q68.94,85.67,104.39,9.37c1.46-3.14,1.89-8.24,6.26-8.17s4.83,5,6.36,8.25Q161,102,204.87,194.63c.89,1.87,2,3.64,3,5.45Z"/><path class="cls-1" d="M806.63,66.35c-17,36.89-33.91,73.52-50.79,110.17q-12.66,27.49-25.19,55c-2,4.35-4.52,6.38-9.75,6.19-13.21-.46-26.45-.34-39.68,0-4.94.11-6.32-1.57-6.31-6.39q.29-109.71.3-219.44c0-7.09.57-7.58,7.69-7.58,5.25,0,10.53.36,15.75,0s6.71,2,6.7,6.83c-.08,19.84.08,39.68.09,59.53q0,64.49,0,129v7c4-2.14,5.2-5.33,6.56-8.28q31.24-67.93,62.46-135.9c8.79-19,17.88-37.93,26.91-56.85,1-2.15,1.62-5.2,4.86-5.12s3.8,2.91,4.86,5.16l98,208.18c2.73,5.8,5.64,11.51,8.21,17.37,2.22,5.07,1.44,6.12-4.19,6.19-7.39.09-14.8-.2-22.17.18-4.74.24-7-1.84-8.68-5.94-12.95-31.38-27-62.28-41.49-93-10.59-22.47-21.51-44.78-31.54-67.51C808.45,69.57,807.54,68.07,806.63,66.35Z"/><path class="cls-1" d="M522.21,121.24q0-54.24,0-108.49c0-8.16.23-8.38,8.59-8.45,3.31,0,6.61,0,9.92,0,9.27,0,9.5.26,9.54,10,.07,19.44.19,38.88.2,58.33,0,44.13.08,88.27-.15,132.41,0,5,1.48,6,6.18,5.94,35.19-.22,70.38,0,105.58-.27,5.5,0,7.87,1.46,7.32,7.18-.36,3.85,0,7.77.05,11.66,0,7.71-.34,8.09-8.33,8.09l-60.09,0c-23.91,0-47.83-.12-71.74.11-5.58.05-7.41-1.77-7.38-7.4.2-36.36.11-72.72.11-109.08Z"/><path class="cls-2" d="M408.27,78.4c6.24,9.52,9.24,19.2,13.46,28.27,3.35,7.21,6.43,14.55,10.74,21.24,1.84,2.87,1.71,5.13-.29,7.8a285.88,285.88,0,0,0-20.06,31.16c-8.12-12-16-23.69-23.87-35.3-1.17-1.72-.82-3.37-.15-5C394.64,110.87,401.24,95.17,408.27,78.4Z"/><path class="cls-3" d="M115.45,188.8c5.31-5.68,10.39-11.59,16.55-16.38,8.67-6.74,14.57-6.26,21.69,1.88,2.47,2.83,7.35,5.44,5.88,9.16-.83,2.11-6.2-.55-9.57-.71-15.75-.7-34.57,4.05-39.62,29.48-3.3-11.46-8-20.65-17.9-25.88-9.61-5.08-19.66-5.24-30-2.09,4.43-16.14,18-20.15,29.6-8.88,4.82,4.69,9.3,9.74,14.07,14.77,1.73-17.3-9.47-29.42-28.13-30.6.38-3.06,2.54-5.17,4.06-7.54,5-7.81,8.39-8,14.64-.88a52.44,52.44,0,0,1,10.75,19.81c.54,1.81,1.1,3.6,1.87,6.12,3.92-6.6,7.41-12.57,11-18.49,2.32-3.84,5.34-7.13,8.21-10.57,3.34-4,6-3.33,8.65.52,2.52,3.65,5,7.32,8.37,12.22-9-1.47-16.15.27-21.31,6.76-4.73,5.94-9.07,12.16-10,20a2.06,2.06,0,0,0-.3,2.43Z"/><path class="cls-3" d="M773.05,159.25c2.83-4,5.29-7.18,7.51-10.56,2.94-4.5,5.92-3.82,9.49-.71,5.81,5.05,11.51,14.33,17,28.8,3.94-8.63,8.15-16.43,13.88-23.25.37-.45.67-1,1-1.41,6.55-8.19,7.64-8.18,14,.19,1.72,2.25,3.33,4.58,5.2,7.16-18.12,1.93-29.75,13.5-30.36,29.63,4.68-4.51,9.34-9,14-13.47a35.19,35.19,0,0,1,7.73-6.14c5.4-2.89,10.86-2,15.26,2.74,3,3.22,6.32,6.27,8.52,11.21-22.49-2.69-41.59.71-49.24,27.62-3-12-8.6-20.37-18.79-24.92-9.76-4.35-19.87-4.54-31.07-2,3.42-6.16,7.1-11,12.11-14.07,5.59-3.4,11.35-1.26,16.2,2.57,6,4.73,10.49,10.89,15.59,16.48.63.68.9,1.75,2.07,1.81C805,174.05,793.36,161.49,773.05,159.25Z"/><path class="cls-4" d="M412.71,187.17c4.61-17.35,16-36.93,27.11-47,5.5,9,4.17,24.26-2.82,33.92-6.26,8.66-16,13.56-23,21.38-1.22,1.37-2.05.28-2.92-.33-7.91-5.63-16.43-10.48-23.52-17.18-11.51-10.89-14-27.87-5.84-41C394.79,151.74,404.08,168.62,412.71,187.17Z"/><path class="cls-5" d="M806.65,101.32c2.94,1.88,3.67,4.6,5,6.84,4.7,7.8,9.22,15.71,14,23.46,1.44,2.35,1.57,3.87-.63,5.91-4.83,4.46-9.47,9.15-14,13.95-1.68,1.79-2.47,1.63-4-.14-5.12-6.13-10.7-11.81-17.8-15.67-2.36-1.29-1.13-2.62-.39-3.74C795.43,122.14,801.83,112.3,806.65,101.32Z"/><path class="cls-5" d="M110.54,99.84a373.56,373.56,0,0,0,19.61,32.08c1.46,2.1.36,3.16-1.16,4.24-6.07,4.29-11,9.78-15.53,15.56-1.8,2.29-2.71,1.94-4.18-.23A59.09,59.09,0,0,0,94.7,136.65c-2.37-1.7-2.18-3.17-.84-5.24C100.07,121.85,105.14,111.66,110.54,99.84Z"/><path class="cls-5" d="M449.65,236.11c-4.65,0-9.31,0-14,0-2.39,0-3.29-.71-2.52-3.6,2.61-9.69,15.1-21.59,24.86-23.18a15.45,15.45,0,0,1,12.48,3.44A36,36,0,0,1,482,228.54c.66,1.71,1.94,3.86.1,5.41a4.74,4.74,0,0,1-6-.08c-3.91-3.11-7-3.58-9.93,1.23-.8,1.34-2.75,1.19-4.32,1.18H449.65Z"/><path class="cls-6" d="M432.11,217.2c.2,2.58-1.28,4.52-2.78,6.23-3.85,4.36-7.92,8.52-11.9,12.77-2.06,2.2-4.24,2.22-6.78.72-5.85-3.43-10.16-8.35-13.71-14a9.68,9.68,0,0,1-1.43-4.94c0-5.71,11.43-15.38,18.38-15.79s17,7.1,18,13.24C432,216,432.05,216.62,432.11,217.2Z"/><path class="cls-2" d="M178,229.21c-.16,5.18-5.78,8-10.81,4.27s-7.67-2.63-12,1c-5.49,4.57-12.57,3.57-18.73.86-4.32-1.89-4.62-6.35-3.6-10.6,2.62-10.93,17-17.82,28.72-13.49a29.35,29.35,0,0,1,15.13,13A9.31,9.31,0,0,1,178,229.21Z"/><path class="cls-2" d="M74,237.08a13.1,13.1,0,0,1-11.39-5.69C61,229,59.28,229,57.2,230.51c-.47.34-1,.63-1.46,1-3.71,2.6-8.07,6.06-11.85,1.68s.6-8.36,3.16-11.73c9.85-13,26.07-15.45,36.53-5.65,4,3.78,6.5,8.33,4.36,14.06S81,237.18,74,237.08Z"/><path class="cls-2" d="M849.16,210.16c9.11,0,20.48,7.53,23.92,16.11,1,2.52,2,5.51-.87,7.37-3.21,2.06-7.07,2.05-9.72-.69-3.37-3.51-5.61-3.26-9,0-5.26,5.06-12,5-18.67,3.55-3.55-.76-5.37-3.35-5.74-7.15C828.06,218.85,837,210.22,849.16,210.16Z"/><path class="cls-2" d="M770.49,237.09a14.12,14.12,0,0,1-12-4.94c-2.3-2.61-4.51-3.47-7.19-.62a5.71,5.71,0,0,1-1.41,1c-3.31,1.85-7.05,3.79-10.13.54-3.23-3.4-.59-6.86,1.6-9.84,9.48-12.92,24.27-16.45,36.08-8.68,5.34,3.51,8,9.68,6.44,14.94S778.33,237.12,770.49,237.09Z"/><path class="cls-5" d="M862.11,202.64c-2.05,1-3.46,0-4.79-.67-16-7.67-29,.27-36.05,11.57a41.77,41.77,0,0,0-6.06,18c-.22,2.15-.25,4.8-3.2,4.58-3.36-.25-2.11-3.26-2-5.1.64-18.31,12.35-33.65,28.59-37.66A22.31,22.31,0,0,1,862.11,202.64Z"/><path class="cls-5" d="M166,203.56a27.4,27.4,0,0,1-3.59-1.14c-19.14-10-37.93,2.49-41.91,22.51-.56,2.85-1,5.73-1.55,8.58-.27,1.31-.58,2.72-2.46,2.69-2.06,0-1.94-1.47-2-2.84-.27-16.93,6.46-35.36,28.8-40.14C151.39,191.5,161.22,195.64,166,203.56Z"/><path class="cls-5" d="M752.45,203.09c2.75-6.77,13.61-11.64,21.93-9.88,16.23,3.42,26.84,16.42,28,34.74.17,2.75,2.47,7.52-1.41,8.05s-2.51-4.55-3.19-7.21c-1.36-5.25-2.74-10.45-5.32-15.29-7-13.11-20.48-17.82-34.08-11.88C756.5,202.42,754.79,204.09,752.45,203.09Z"/><path class="cls-5" d="M55.37,203c11-13.22,26.65-13.41,39-1.65,9.11,8.71,11.81,20.21,13.28,32.14.16,1.33.33,2.84-1.8,2.89-1.69,0-2.31-.8-2.63-2.41-1.06-5.31-2-10.65-4-15.75-5.47-14.39-21.72-24.92-37-16.94C60.59,202.1,58.59,202.2,55.37,203Z"/><path class="cls-2" d="M469.21,203.09c-6-1.82-12.6-2.68-17.71-9C459.84,194.2,465.44,196.86,469.21,203.09Z"/><path class="cls-7" d="M115.45,188.8,113.92,190a2.06,2.06,0,0,1,.3-2.43Z"/></g></g></svg>