<svg xmlns="http://www.w3.org/2000/svg" viewBox="0 0 886.83 229.92"><defs><style>.cls-1{fill:#fff;}.cls-2{fill:#4a1514;}.cls-3{fill:#d65b56;}.cls-4{fill:#7e251a;}.cls-5{fill:#325954;}.cls-6{fill:#e0beba;}</style></defs><g id="Layer_2" data-name="Layer 2"><g id="Layer_1-2" data-name="Layer 1"><path class="cls-1" d="M108.72,182.32l-1.2-1.23c.91-7.62,5.12-13.64,9.69-19.4,5-6.27,11.94-8,20.63-6.54-3.24-4.74-5.66-8.29-8.1-11.83-2.57-3.73-5.13-4.4-8.38-.5-2.77,3.32-5.7,6.52-8,10.23-3.45,5.73-6.83,11.51-10.62,17.91-.75-2.44-1.29-4.18-1.81-5.93a50.88,50.88,0,0,0-10.41-19.19c-6-6.9-9.31-6.71-14.17.86C74.92,149,72.83,151,72.46,154c18.07,1.14,28.92,12.87,27.24,29.62-4.62-4.86-9-9.75-13.63-14.29-11.23-10.92-24.37-7-28.66,8.6,10-3.05,19.76-2.9,29.06,2,9.6,5.06,14.14,14,17.34,25.06,4.88-24.62,23.11-29.23,38.35-28.54,3.26.14,8.47,2.72,9.27.68,1.43-3.6-3.3-6.13-5.69-8.87-6.9-7.88-12.61-8.34-21-1.82C118.77,171.1,113.85,176.82,108.72,182.32ZM392.24,75.42c-6.81,16.25-13.2,31.45-19.54,46.67-.64,1.55-1,3.15.15,4.82,7.66,11.24,15.25,22.53,23.11,34.17a274.5,274.5,0,0,1,19.43-30.16c1.93-2.59,2.06-4.78.27-7.55-4.17-6.49-7.15-13.59-10.39-20.57C401.18,94,398.28,84.64,392.24,75.42Zm347.29,78.29c19.67,2.17,30.88,14.33,29.2,30.72-1.14-.07-1.41-1.1-2-1.76-4.94-5.41-9.32-11.38-15.1-15.95-4.69-3.71-10.27-5.79-15.68-2.5-4.86,3-8.42,7.66-11.73,13.63,10.84-2.5,20.63-2.32,30.08,1.9,9.88,4.4,15.32,12.48,18.2,24.13,7.4-26.06,25.9-29.35,47.68-26.75-2.13-4.78-5.32-7.73-8.25-10.86-4.26-4.54-9.55-5.45-14.78-2.64a34.32,34.32,0,0,0-7.49,5.94c-4.46,4.36-9,8.67-13.5,13,.59-15.62,11.85-26.82,29.39-28.69-1.8-2.49-3.36-4.75-5-6.93-6.21-8.11-7.26-8.11-13.6-.19-.36.44-.64.94-1,1.37-5.55,6.61-9.62,14.15-13.44,22.51-5.34-14-10.86-23-16.48-27.89-3.45-3-6.35-3.66-9.19.69C744.65,146.76,742.27,149.88,739.53,153.71Zm-343,27c-8.36-18-17.35-34.3-30-48.67-7.89,12.75-5.48,29.19,5.67,39.74,6.86,6.48,15.1,11.18,22.77,16.63.84.59,1.64,1.64,2.83.32,6.79-7.57,16.2-12.32,22.27-20.7,6.76-9.36,8.05-24.15,2.73-32.85C412.06,145,401,164,396.53,180.74ZM772.06,97.62c-4.67,10.63-10.86,20.16-17.15,29.64-.72,1.08-1.91,2.37.38,3.62,6.86,3.73,12.27,9.24,17.23,15.17,1.43,1.72,2.19,1.87,3.82.14,4.36-4.65,8.85-9.19,13.53-13.51,2.13-2,2-3.45.61-5.72-4.62-7.51-9-15.16-13.55-22.71C775.62,102.07,774.91,99.44,772.06,97.62ZM104,96.19c-5.22,11.44-10.13,21.3-16.14,30.57-1.3,2-1.48,3.42.82,5.07a57.35,57.35,0,0,1,14.11,14.37c1.42,2.1,2.3,2.44,4,.22,4.41-5.6,9.16-10.91,15-15.07,1.48-1,2.54-2.07,1.12-4.11C116.24,117.57,110.21,107.46,104,96.19ZM432.3,228.13v.17c3.95,0,7.89,0,11.83,0,1.52,0,3.41.15,4.19-1.15,2.81-4.66,5.83-4.21,9.61-1.19a4.59,4.59,0,0,0,5.78.08c1.78-1.51.54-3.59-.09-5.24a34.94,34.94,0,0,0-11.12-15.29,14.94,14.94,0,0,0-12.08-3.33c-9.46,1.54-21.55,13.06-24.08,22.45-.75,2.79.13,3.45,2.44,3.48C423.29,228.17,427.8,228.13,432.3,228.13Zm-17-18.31c-.05-.56-.08-1.13-.17-1.68-1-5.95-10.87-13.2-17.46-12.82s-17.8,9.76-17.8,15.28a9.42,9.42,0,0,0,1.38,4.79c3.44,5.44,7.62,10.2,13.28,13.53,2.46,1.44,4.57,1.43,6.57-.71,3.84-4.11,7.79-8.14,11.51-12.36C414.08,214.2,415.51,212.32,415.31,209.82Zm-246,11.62a9,9,0,0,0-1.27-4.83,28.36,28.36,0,0,0-14.66-12.55c-11.31-4.2-25.26,2.48-27.8,13.06-1,4.11-.69,8.43,3.48,10.26,6,2.62,12.83,3.6,18.15-.83,4.21-3.51,6.79-4.54,11.64-1S169.14,226.46,169.29,221.44ZM68.53,229.07c6.78.09,11.43-1.37,13.54-7s-.32-10-4.22-13.61c-10.12-9.5-25.83-7.12-35.37,5.46-2.48,3.27-6.64,7.22-3.06,11.36s7.88.9,11.48-1.62c.46-.32,1-.61,1.41-.93,2-1.42,3.63-1.42,5.2.85A12.65,12.65,0,0,0,68.53,229.07ZM813.22,203c-11.79.06-20.43,8.42-19.46,18.6.35,3.69,2.12,6.19,5.55,6.93,6.44,1.4,13,1.46,18.09-3.44,3.3-3.18,5.47-3.42,8.73,0,2.56,2.66,6.3,2.66,9.41.66,2.79-1.79,1.82-4.69.84-7.13C833.06,210.3,822,203,813.22,203Zm-76.17,26.07c7.59,0,11.52-2.28,13-7.33s-1.06-11.07-6.23-14.47c-11.43-7.52-25.76-4.1-34.94,8.41-2.11,2.88-4.67,6.23-1.55,9.53,3,3.14,6.61,1.26,9.81-.53a5.42,5.42,0,0,0,1.37-1c2.59-2.77,4.73-1.93,7,.6A13.64,13.64,0,0,0,737.05,229.07Zm88.71-33.35A21.6,21.6,0,0,0,803,186.77c-15.73,3.89-27.06,18.74-27.68,36.47-.06,1.78-1.27,4.7,2,4.94,2.86.21,2.89-2.36,3.1-4.44a40.27,40.27,0,0,1,5.87-17.46c6.8-10.95,19.44-18.63,34.9-11.21C822.41,195.69,823.78,196.66,825.76,195.72Zm-668.11.89c-4.62-7.66-14.14-11.68-22-10-21.62,4.63-28.14,22.48-27.88,38.87,0,1.33-.09,2.73,1.9,2.75,1.82,0,2.12-1.34,2.38-2.61.56-2.76,1-5.55,1.51-8.31,3.85-19.38,22-31.48,40.58-21.79A25.81,25.81,0,0,0,157.65,196.61Zm561.93-.45c2.27,1,3.92-.65,5.7-1.43,13.18-5.75,26.21-1.19,33,11.51,2.5,4.68,3.83,9.72,5.15,14.8.67,2.57-.61,7.49,3.1,7s1.52-5.13,1.36-7.8c-1.08-17.73-11.36-30.32-27.07-33.63C732.76,184.89,722.25,189.6,719.58,196.16Zm-669-.11c3.12-.76,5.06-.85,6.62-1.66C72,186.66,87.7,196.85,93,210.78c1.88,4.94,2.81,10.12,3.83,15.26.31,1.55.92,2.36,2.55,2.33,2.06,0,1.9-1.51,1.74-2.8-1.42-11.55-4-22.68-12.85-31.11C76.35,183.06,61.19,183.25,50.54,196.05Zm400.7.11c-3.65-6-9.07-8.61-17.15-8.75C439,193.57,445.38,194.39,451.24,196.16Z"/><path class="cls-2" d="M201.79,193.12q0-69.18,0-138.36c0-14.7.29-29.39,0-44.08-.1-5.42,2.34-6.94,7.05-6.9,5.46.05,10.94.22,16.38-.12,4.75-.3,6.3,1.62,6.27,6.21-.11,20.91,0,41.82,0,62.73v7.5C238,73,243.45,66.86,249,60.86c17.63-19.09,36-37.51,54.3-55.92,3.14-3.16,6.24-6.11,11.29-4.14C320.79,3.23,326,7,328.27,13.35c1.11,3.17-2.13,5.41-4.17,7.48q-21,21.32-42.22,42.48c-8.39,8.39-16.77,16.78-25.31,25-2.46,2.37-2.31,3.93,0,6.4,16.81,18.31,33.46,36.76,50.17,55.15,6.39,7,6.48,7.06,10.54-1.28q33.06-68,66-135.92c.82-1.69,1.71-3.35,2.59-5,2-3.87,4.59-6.7,9.57-6.56S402.87,4,404.76,8c5.57,11.92,11.14,23.85,16.87,35.7,28.79,59.56,55.63,120,84.82,179.42,2.51,5.12,1.76,6.25-3.9,6.29-6.4,0-12.81-.09-19.21.15-4.47.16-6.94-1.44-9-5.7-14.35-29.58-27.58-59.68-41.49-89.47-11.69-25-24-49.79-36-74.68-.49-1-.74-2.16-2-2.71Q376,96.26,357,135.52c-5.42,11.16-10.63,22.46-16.74,33.24-3.26,5.76-2.16,8.86,2.38,13.21,12.11,11.56,23.67,23.71,35.23,35.83,2.76,2.89,7.32,6.49,5.82,10.15-1.27,3.09-6.88,1.34-10.55,1.42-9.79.2-19.6-.06-29.38.24-5.17.16-8.78-1.65-12.17-5.56q-47.48-54.88-95.23-109.53c-1.22-1.4-2.5-2.74-3.82-4.19-1.68,1.56-.85,3.34-.85,4.86q.09,53.42.3,106.81c0,7.58,0,7.58-7.38,7.57-11.86,0-23.73-.14-35.6,0-4,.06-6.1-1.42-7.72-5-10.7-23.81-21.34-47.66-32.48-71.26C135.12,124.28,121,95.45,108.05,66c-.13-.28-.54-.44-1.2-1q-11.7,25.31-23.28,50.37Q58.36,169.89,33.16,224.36c-1.7,3.71-3.76,5.49-8.07,5.21-6.38-.4-12.8-.12-19.2-.2-6.2-.07-7.14-1.37-4.52-7.07,10.13-22,20.41-44,30.61-65.94Q66.26,82.47,100.59,8.59c1.42-3,1.83-8,6.06-7.91s4.68,4.87,6.16,8Q155.38,98.3,197.88,188c.86,1.82,2,3.53,3,5.29Z"/><path class="cls-2" d="M778.63,63.76C762.16,99.48,745.79,135,729.46,170.43q-12.27,26.63-24.4,53.3c-1.9,4.21-4.37,6.18-9.43,6-12.8-.45-25.62-.33-38.42,0-4.79.11-6.13-1.53-6.12-6.18q.28-106.24.29-212.48c0-6.87.55-7.35,7.45-7.34,5.08,0,10.19.35,15.25,0s6.5,2,6.48,6.61c-.07,19.21.08,38.43.09,57.64q0,62.44,0,124.89v6.82c3.9-2.07,5-5.16,6.35-8Q717.24,125.8,747.46,60c8.51-18.43,17.3-36.73,26-55,1-2.09,1.57-5,4.7-5s3.68,2.82,4.71,5q47.42,100.79,94.84,201.57c2.64,5.61,5.46,11.14,8,16.82,2.15,4.9,1.39,5.92-4.06,6-7.16.09-14.33-.19-21.47.18-4.59.24-6.76-1.78-8.39-5.75-12.55-30.39-26.17-60.3-40.18-90C801.35,112,790.78,90.41,781.07,68.41,780.39,66.87,779.51,65.43,778.63,63.76Z"/><path class="cls-2" d="M505.14,116.91q0-52.53,0-105c0-7.9.22-8.11,8.32-8.18q4.8,0,9.6,0c9,0,9.19.25,9.23,9.63.07,18.83.19,37.65.19,56.48,0,42.73.08,85.47-.14,128.2,0,4.87,1.44,5.79,6,5.76,34.08-.21,68.15,0,102.23-.26,5.33,0,7.62,1.41,7.09,7-.35,3.73,0,7.53.05,11.29,0,7.46-.33,7.83-8.07,7.84l-58.17,0c-23.16,0-46.32-.12-69.47.11-5.41.05-7.18-1.71-7.15-7.17.2-35.2.11-70.4.11-105.61Z"/><path class="cls-3" d="M392.24,75.42c6,9.22,8.94,18.59,13,27.38,3.24,7,6.22,14.08,10.39,20.57,1.79,2.77,1.66,5-.27,7.55A274.5,274.5,0,0,0,396,161.08c-7.86-11.64-15.45-22.93-23.11-34.17-1.13-1.67-.79-3.27-.15-4.82C379,106.87,385.43,91.67,392.24,75.42Z"/><path class="cls-4" d="M108.72,182.32c5.13-5.5,10-11.22,16-15.86,8.4-6.52,14.11-6.06,21,1.82,2.39,2.74,7.12,5.27,5.69,8.87-.8,2-6-.54-9.27-.68-15.24-.69-33.47,3.92-38.35,28.54-3.2-11.1-7.74-20-17.34-25.06-9.3-4.92-19-5.07-29.06-2,4.29-15.63,17.43-19.52,28.66-8.6,4.67,4.54,9,9.43,13.63,14.29,1.68-16.75-9.17-28.48-27.24-29.62.37-3,2.46-5,3.94-7.3,4.86-7.57,8.12-7.76,14.17-.86A50.88,50.88,0,0,1,101,165c.52,1.75,1.06,3.49,1.81,5.93,3.79-6.4,7.17-12.18,10.62-17.91,2.25-3.71,5.18-6.91,8-10.23,3.25-3.9,5.81-3.23,8.38.5,2.44,3.54,4.86,7.09,8.1,11.83-8.69-1.42-15.63.27-20.63,6.54-4.57,5.76-8.78,11.78-9.69,19.4a2,2,0,0,0-.29,2.36Z"/><path class="cls-4" d="M743.53,153.71c2.74-3.83,5.12-7,7.27-10.23,2.84-4.35,5.74-3.69,9.19-.69,5.62,4.9,11.14,13.88,16.48,27.89,3.82-8.36,7.89-15.9,13.44-22.51.36-.43.64-.93,1-1.37,6.34-7.92,7.39-7.92,13.6.19,1.67,2.18,3.23,4.44,5,6.93-17.54,1.87-28.8,13.07-29.39,28.69,4.53-4.37,9-8.68,13.5-13a34.32,34.32,0,0,1,7.49-5.94c5.23-2.81,10.52-1.9,14.78,2.64,2.93,3.13,6.12,6.08,8.25,10.86-21.78-2.6-40.28.69-47.68,26.75-2.88-11.65-8.32-19.73-18.2-24.13-9.45-4.22-19.24-4.4-30.08-1.9,3.31-6,6.87-10.67,11.73-13.63,5.41-3.29,11-1.21,15.68,2.5,5.78,4.57,10.16,10.54,15.1,15.95.6.66.87,1.69,2,1.76C774.41,168,763.2,155.88,743.53,153.71Z"/><path class="cls-4" d="M396.53,180.74C401,164,412.06,145,422.79,135.21c5.32,8.7,4,23.49-2.73,32.85-6.07,8.38-15.48,13.13-22.27,20.7-1.19,1.32-2,.27-2.83-.32-7.67-5.45-15.91-10.15-22.77-16.63-11.15-10.55-13.56-27-5.67-39.74C379.18,146.44,388.17,162.79,396.53,180.74Z"/><path class="cls-5" d="M776.06,97.62c2.85,1.82,3.56,4.45,4.87,6.63,4.55,7.55,8.93,15.2,13.55,22.71,1.4,2.27,1.52,3.75-.61,5.72-4.68,4.32-9.17,8.86-13.53,13.51-1.63,1.73-2.39,1.58-3.82-.14-5-5.93-10.37-11.44-17.23-15.17-2.29-1.25-1.1-2.54-.38-3.62C765.2,117.78,771.39,108.25,776.06,97.62Z"/><path class="cls-5" d="M104,96.19c6.26,11.27,12.29,21.38,19,31.05,1.42,2,.36,3.07-1.12,4.11-5.88,4.16-10.63,9.47-15,15.07-1.74,2.22-2.62,1.88-4-.22a57.35,57.35,0,0,0-14.11-14.37c-2.3-1.65-2.12-3.07-.82-5.07C93.82,117.49,98.73,107.63,104,96.19Z"/><path class="cls-5" d="M432.3,228.13c-4.5,0-9,0-13.52,0-2.31,0-3.19-.69-2.44-3.48,2.53-9.39,14.62-20.91,24.08-22.45a14.94,14.94,0,0,1,12.08,3.33,34.94,34.94,0,0,1,11.12,15.29c.63,1.65,1.87,3.73.09,5.24a4.59,4.59,0,0,1-5.78-.08c-3.78-3-6.8-3.47-9.61,1.19-.78,1.3-2.67,1.15-4.19,1.15-3.94,0-7.88,0-11.83,0Z"/><path class="cls-6" d="M415.31,209.82c.2,2.5-1.23,4.38-2.69,6-3.72,4.22-7.67,8.25-11.51,12.36-2,2.14-4.11,2.15-6.57.71-5.66-3.33-9.84-8.09-13.28-13.53a9.42,9.42,0,0,1-1.38-4.79c0-5.52,11.07-14.89,17.8-15.28s16.47,6.87,17.46,12.82C415.23,208.69,415.26,209.26,415.31,209.82Z"/><path class="cls-3" d="M169.29,221.44c-.15,5-5.59,7.73-10.46,4.14s-7.43-2.54-11.64,1C141.87,231,135,230,129,227.38c-4.17-1.83-4.47-6.15-3.48-10.26,2.54-10.58,16.49-17.26,27.8-13.06A28.36,28.36,0,0,1,168,216.61,9,9,0,0,1,169.29,221.44Z"/><path class="cls-3" d="M68.53,229.07a12.65,12.65,0,0,1-11-5.51c-1.57-2.27-3.18-2.27-5.2-.85-.46.32-1,.61-1.41.93-3.6,2.52-7.81,5.87-11.48,1.62s.58-8.09,3.06-11.36c9.54-12.58,25.25-15,35.37-5.46,3.9,3.65,6.3,8.06,4.22,13.61S75.31,229.16,68.53,229.07Z"/><path class="cls-3" d="M817.22,203c8.82-.05,19.84,7.3,23.16,15.6,1,2.44,2,5.34-.84,7.13-3.11,2-6.85,2-9.41-.66-3.26-3.4-5.43-3.16-8.73,0-5.09,4.9-11.65,4.84-18.09,3.44-3.43-.74-5.2-3.24-5.55-6.93C796.79,211.42,805.43,203.06,817.22,203Z"/><path class="cls-3" d="M741.05,229.07a13.64,13.64,0,0,1-11.57-4.77c-2.23-2.53-4.37-3.37-7-.6a5.42,5.42,0,0,1-1.37,1c-3.2,1.79-6.83,3.67-9.81.53-3.12-3.3-.56-6.65,1.55-9.53,9.18-12.51,23.51-15.93,34.94-8.41,5.17,3.4,7.74,9.37,6.23,14.47S748.64,229.1,741.05,229.07Z"/><path class="cls-5" d="M829.76,195.72c-2,.94-3.35,0-4.64-.65-15.46-7.42-28.1.26-34.9,11.21a40.27,40.27,0,0,0-5.87,17.46c-.21,2.08-.24,4.65-3.1,4.44-3.25-.24-2-3.16-2-4.94.62-17.73,12-32.58,27.68-36.47A21.6,21.6,0,0,1,829.76,195.72Z"/><path class="cls-5" d="M157.65,196.61a25.81,25.81,0,0,1-3.46-1.1c-18.54-9.69-36.73,2.41-40.58,21.79-.55,2.76-1,5.55-1.51,8.31-.26,1.27-.56,2.63-2.38,2.61-2,0-1.88-1.42-1.9-2.75-.26-16.39,6.26-34.24,27.88-38.87C143.51,184.93,153,189,157.65,196.61Z"/><path class="cls-5" d="M723.58,196.16c2.67-6.56,13.18-11.27,21.24-9.57,15.71,3.31,26,15.9,27.07,33.63.16,2.67,2.39,7.29-1.36,7.8s-2.43-4.41-3.1-7c-1.32-5.08-2.65-10.12-5.15-14.8-6.79-12.7-19.82-17.26-33-11.51C727.5,195.51,725.85,197.12,723.58,196.16Z"/><path class="cls-5" d="M50.54,196.05c10.65-12.8,25.81-13,37.73-1.59,8.82,8.43,11.43,19.56,12.85,31.11.16,1.29.32,2.76-1.74,2.8-1.63,0-2.24-.78-2.55-2.33-1-5.14-2-10.32-3.83-15.26-5.3-13.93-21-24.12-35.84-16.39C55.6,195.2,53.66,195.29,50.54,196.05Z"/><path class="cls-3" d="M451.24,196.16c-5.86-1.77-12.2-2.59-17.15-8.75C442.17,187.55,447.59,190.12,451.24,196.16Z"/><path class="cls-1" d="M108.72,182.32l-1.49,1.13a2,2,0,0,1,.29-2.36Z"/></g></g></svg>