<svg width="16" height="16" viewBox="0 0 16 16" fill="none" xmlns="http://www.w3.org/2000/svg">
<mask id="mask0_221_1374" style="mask-type:alpha" maskUnits="userSpaceOnUse" x="0" y="0" width="16" height="16">
<rect width="16" height="16" fill="#D9D9D9"/>
</mask>
<g mask="url(#mask0_221_1374)">
<path d="M1.77778 16C1.28889 16 0.87037 15.8259 0.522222 15.4778C0.174074 15.1296 0 14.7111 0 14.2222V1.77778C0 1.28889 0.174074 0.87037 0.522222 0.522222C0.87037 0.174074 1.28889 0 1.77778 0H8.38889C8.66503 0 8.88889 0.223858 8.88889 0.5V1.27778C8.88889 1.55392 8.66503 1.77778 8.38889 1.77778H2.27778C2.00164 1.77778 1.77778 2.00164 1.77778 2.27778V13.7222C1.77778 13.9984 2.00164 14.2222 2.27778 14.2222H13.7222C13.9984 14.2222 14.2222 13.9984 14.2222 13.7222V7.61111C14.2222 7.33497 14.4461 7.11111 14.7222 7.11111H15.5C15.7761 7.11111 16 7.33497 16 7.61111V14.2222C16 14.7111 15.8259 15.1296 15.4778 15.4778C15.1296 15.8259 14.7111 16 14.2222 16H1.77778ZM3.26667 11.6444C3.01945 11.9741 3.25464 12.4444 3.66667 12.4444H12.3333C12.7454 12.4444 12.9805 11.9741 12.7333 11.6444L10.4 8.53333C10.2 8.26667 9.8 8.26667 9.6 8.53333L7.73333 11.0222C7.53333 11.2889 7.13333 11.2889 6.93333 11.0222L5.73333 9.42222C5.53333 9.15556 5.13333 9.15556 4.93333 9.42222L3.26667 11.6444ZM12.9444 5.33333C12.6683 5.33333 12.4444 5.10948 12.4444 4.83333V4.05556C12.4444 3.77941 12.2206 3.55556 11.9444 3.55556H11.1667C10.8905 3.55556 10.6667 3.3317 10.6667 3.05556V2.27778C10.6667 2.00164 10.8905 1.77778 11.1667 1.77778H11.9444C12.2206 1.77778 12.4444 1.55392 12.4444 1.27778V0.5C12.4444 0.223857 12.6683 0 12.9444 0H13.7222C13.9984 0 14.2222 0.223858 14.2222 0.5V1.27778C14.2222 1.55392 14.4461 1.77778 14.7222 1.77778H15.5C15.7761 1.77778 16 2.00164 16 2.27778V3.05556C16 3.3317 15.7761 3.55556 15.5 3.55556H14.7222C14.4461 3.55556 14.2222 3.77941 14.2222 4.05556V4.83333C14.2222 5.10948 13.9984 5.33333 13.7222 5.33333H12.9444Z" fill="#1C1B1F"/>
</g>
</svg>
