<svg width="16" height="16" viewBox="0 0 16 16" fill="none" xmlns="http://www.w3.org/2000/svg">
<mask id="mask0_183_1855" style="mask-type:alpha" maskUnits="userSpaceOnUse" x="0" y="0" width="16" height="16">
<rect x="16" width="16" height="16" transform="rotate(90 16 0)" fill="#D9D9D9"/>
</mask>
<g mask="url(#mask0_183_1855)">
<path d="M1.68689 5.70351C1.49163 5.50825 1.49163 5.19167 1.68689 4.99641L2.16312 4.52018C2.35838 4.32492 2.67496 4.32492 2.87022 4.52018L7.64645 9.29641C7.84171 9.49167 8.1583 9.49167 8.35356 9.29641L13.1298 4.52018C13.325 4.32492 13.6416 4.32492 13.8369 4.52018L14.3131 4.99641C14.5084 5.19167 14.5084 5.50825 14.3131 5.70351L8.35356 11.6631C8.1583 11.8583 7.84171 11.8583 7.64645 11.6631L1.68689 5.70351Z" fill="#1C1B1F"/>
</g>
</svg>
