<svg width="16" height="16" viewBox="0 0 16 16" fill="none" xmlns="http://www.w3.org/2000/svg">
<g clip-path="url(#clip0_168_46)">
<path d="M8 16C8.53043 16 9.03914 15.7893 9.41421 15.4142C9.78929 15.0392 10 14.5305 10 14H6C6 14.5305 6.21071 15.0392 6.58579 15.4142C6.96086 15.7893 7.46957 16 8 16ZM8 1.91802L7.203 2.07902C6.29879 2.26287 5.48594 2.75368 4.9022 3.46827C4.31846 4.18287 3.99972 5.07731 4 6.00002C4 6.62802 3.866 8.19702 3.541 9.74202C3.381 10.509 3.165 11.308 2.878 12H13.122C12.835 11.308 12.62 10.51 12.459 9.74202C12.134 8.19702 12 6.62802 12 6.00002C12 5.07748 11.6812 4.18328 11.0975 3.46889C10.5138 2.7545 9.70104 2.26384 8.797 2.08002L8 1.91802ZM14.22 12C14.443 12.447 14.701 12.801 15 13H1C1.299 12.801 1.557 12.447 1.78 12C2.68 10.2 3 6.88002 3 6.00002C3 3.58002 4.72 1.56002 7.005 1.09902C6.99104 0.959974 7.00638 0.819547 7.05003 0.686794C7.09368 0.554041 7.16467 0.43191 7.25842 0.328279C7.35217 0.224647 7.4666 0.141815 7.59433 0.085125C7.72206 0.028435 7.86026 -0.000854492 8 -0.000854492C8.13974 -0.000854492 8.27794 0.028435 8.40567 0.085125C8.5334 0.141815 8.64783 0.224647 8.74158 0.328279C8.83533 0.43191 8.90632 0.554041 8.94997 0.686794C8.99362 0.819547 9.00896 0.959974 8.995 1.09902C10.1255 1.32857 11.1418 1.94193 11.8717 2.83515C12.6016 3.72837 13.0002 4.8465 13 6.00002C13 6.88002 13.32 10.2 14.22 12Z" fill="#1C1C1C"/>
</g>
<defs>
<clipPath id="clip0_168_46">
<rect width="16" height="16" fill="white"/>
</clipPath>
</defs>
</svg>
