<svg width="16" height="16" viewBox="0 0 16 16" fill="none" xmlns="http://www.w3.org/2000/svg">
<path d="M6.7 3.05C6.7 2.91211 6.67284 2.77557 6.62007 2.64818C6.56731 2.52079 6.48996 2.40504 6.39246 2.30754C6.29496 2.21004 6.17921 2.13269 6.05182 2.07993C5.92443 2.02716 5.78789 2 5.65 2C5.51211 2 5.37557 2.02716 5.24818 2.07993C5.12079 2.13269 5.00504 2.21004 4.90754 2.30754C4.81004 2.40504 4.73269 2.52079 4.67993 2.64818C4.62716 2.77557 4.6 2.91211 4.6 3.05V5.05M6.7 3.05V2.05C6.7 1.77152 6.81062 1.50445 7.00754 1.30754C7.20445 1.11062 7.47152 1 7.75 1C8.02848 1 8.29555 1.11062 8.49246 1.30754C8.68938 1.50445 8.8 1.77152 8.8 2.05V3.05M6.7 3.05L6.75 7M4.6 5.05C4.6 4.77152 4.48938 4.50445 4.29246 4.30754C4.09555 4.11062 3.82848 4 3.55 4C3.27152 4 3.00445 4.11062 2.80754 4.30754C2.61062 4.50445 2.5 4.77152 2.5 5.05V10.5C2.5 11.6935 2.97411 12.8381 3.81802 13.682C4.66193 14.5259 5.80653 15 7 15H8.34533C9.27355 14.9999 10.1637 14.6311 10.82 13.9747L11.9747 12.82C12.6311 12.1637 12.9999 11.2735 13 10.3453L13.002 8.996C13.0027 8.87798 13.0501 8.76504 13.134 8.682C13.2315 8.58447 13.3089 8.46869 13.3617 8.34126C13.4145 8.21383 13.4416 8.07726 13.4416 7.93933C13.4416 7.80141 13.4145 7.66483 13.3617 7.53741C13.3089 7.40998 13.2315 7.2942 13.134 7.19667C13.0365 7.09914 12.9207 7.02178 12.7933 6.96899C12.6658 6.91621 12.5293 6.88904 12.3913 6.88904C12.2534 6.88904 12.1168 6.91621 11.9894 6.96899C11.862 7.02178 11.7462 7.09914 11.6487 7.19667C11.173 7.67174 10.9046 8.31571 10.902 8.988M4.6 5.05V8M8.8 3.05V7.5M8.8 3.05C8.8 2.77152 8.91062 2.50445 9.10754 2.30754C9.30445 2.11062 9.57152 2 9.85 2C10.1285 2 10.3955 2.11062 10.5925 2.30754C10.7894 2.50445 10.9 2.77152 10.9 3.05V10M10.9 10C10.5062 9.99981 10.1162 10.0773 9.75245 10.2281C9.38866 10.3789 9.0582 10.6 8.78 10.8787M10.9 10H10.9013" stroke="#1C1C1C" stroke-linecap="round" stroke-linejoin="round"/>
</svg>
