<svg width="16" height="16" viewBox="0 0 16 16" fill="none" xmlns="http://www.w3.org/2000/svg">
<path d="M6.002 4.5C6.002 4.89782 5.84396 5.27936 5.56266 5.56066C5.28135 5.84196 4.89982 6 4.502 6C4.10417 6 3.72264 5.84196 3.44134 5.56066C3.16003 5.27936 3.002 4.89782 3.002 4.5C3.002 4.10218 3.16003 3.72064 3.44134 3.43934C3.72264 3.15804 4.10417 3 4.502 3C4.89982 3 5.28135 3.15804 5.56266 3.43934C5.84396 3.72064 6.002 4.10218 6.002 4.5Z" fill="#1A1A1A"/>
<path d="M1.5 0C1.10218 0 0.720644 0.210714 0.43934 0.585787C0.158035 0.960859 0 1.46957 0 2L0 14C0 14.5304 0.158035 15.0391 0.43934 15.4142C0.720644 15.7893 1.10218 16 1.5 16H14.5C14.8978 16 15.2794 15.7893 15.5607 15.4142C15.842 15.0391 16 14.5304 16 14V2C16 1.46957 15.842 0.960859 15.5607 0.585787C15.2794 0.210714 14.8978 0 14.5 0H1.5ZM14.5 1.33333C14.6326 1.33333 14.7598 1.40357 14.8536 1.5286C14.9473 1.65362 15 1.82319 15 2V10L11.225 7.404C11.1312 7.34136 11.025 7.31964 10.9215 7.34189C10.8179 7.36414 10.7223 7.42925 10.648 7.528L6.938 12.4747L4.278 10.112C4.18196 10.0267 4.06676 9.9884 3.95194 10.0035C3.83712 10.0185 3.72973 10.0861 3.648 10.1947L1.002 13.3333V14.0533L1 14V2C1 1.82319 1.05268 1.65362 1.14645 1.5286C1.24021 1.40357 1.36739 1.33333 1.5 1.33333H14.5Z" fill="#1A1A1A"/>
</svg>
