<svg width="16" height="15" viewBox="0 0 16 15" fill="none" xmlns="http://www.w3.org/2000/svg">
<path d="M5 7C5 7.26522 4.89464 7.51957 4.70711 7.70711C4.51957 7.89464 4.26522 8 4 8C3.73478 8 3.48043 7.89464 3.29289 7.70711C3.10536 7.51957 3 7.26522 3 7C3 6.73478 3.10536 6.48043 3.29289 6.29289C3.48043 6.10536 3.73478 6 4 6C4.26522 6 4.51957 6.10536 4.70711 6.29289C4.89464 6.48043 5 6.73478 5 7ZM9 7C9 7.26522 8.89464 7.51957 8.70711 7.70711C8.51957 7.89464 8.26522 8 8 8C7.73478 8 7.48043 7.89464 7.29289 7.70711C7.10536 7.51957 7 7.26522 7 7C7 6.73478 7.10536 6.48043 7.29289 6.29289C7.48043 6.10536 7.73478 6 8 6C8.26522 6 8.51957 6.10536 8.70711 6.29289C8.89464 6.48043 9 6.73478 9 7ZM12 8C12.2652 8 12.5196 7.89464 12.7071 7.70711C12.8946 7.51957 13 7.26522 13 7C13 6.73478 12.8946 6.48043 12.7071 6.29289C12.5196 6.10536 12.2652 6 12 6C11.7348 6 11.4804 6.10536 11.2929 6.29289C11.1054 6.48043 11 6.73478 11 7C11 7.26522 11.1054 7.51957 11.2929 7.70711C11.4804 7.89464 11.7348 8 12 8Z" fill="#1A1A1A"/>
<path d="M2.165 14.803L2.185 14.799C4.015 14.436 5.133 13.957 5.653 13.694C6.41845 13.8989 7.20761 14.0018 8 14C12.418 14 16 10.866 16 7C16 3.134 12.418 0 8 0C3.582 0 0 3.134 0 7C0 8.76 0.743 10.37 1.97 11.6C1.88448 12.3902 1.70866 13.1679 1.446 13.918L1.443 13.929C1.36827 14.1438 1.2869 14.3562 1.199 14.566C1.12 14.752 1.273 14.96 1.472 14.928C1.70365 14.89 1.93468 14.8484 2.165 14.803ZM2.965 11.695C2.97901 11.5486 2.96055 11.4009 2.91094 11.2625C2.86133 11.124 2.7818 10.9982 2.678 10.894C1.618 9.83 1 8.468 1 7C1 3.808 4.004 1 8 1C11.996 1 15 3.808 15 7C15 10.192 11.996 13 8 13C7.29506 13.0017 6.59298 12.9103 5.912 12.728C5.67398 12.6642 5.42079 12.6906 5.201 12.802C4.814 12.998 3.961 13.372 2.567 13.695C2.76131 13.0421 2.89455 12.3726 2.965 11.695Z" fill="#1A1A1A"/>
</svg>
