<svg width="16" height="16" viewBox="0 0 16 16" fill="none" xmlns="http://www.w3.org/2000/svg">
<mask id="mask0_168_49" style="mask-type:alpha" maskUnits="userSpaceOnUse" x="0" y="0" width="16" height="16">
<rect width="16" height="16" fill="#D9D9D9"/>
</mask>
<g mask="url(#mask0_168_49)">
<path d="M8 8.00004C7.81111 8.00004 7.65278 7.93615 7.525 7.80837C7.39722 7.6806 7.33333 7.52226 7.33333 7.33337V2.00004C7.33333 1.81115 7.39722 1.65282 7.525 1.52504C7.65278 1.39726 7.81111 1.33337 8 1.33337C8.18889 1.33337 8.34722 1.39726 8.475 1.52504C8.60278 1.65282 8.66667 1.81115 8.66667 2.00004V7.33337C8.66667 7.52226 8.60278 7.6806 8.475 7.80837C8.34722 7.93615 8.18889 8.00004 8 8.00004ZM8 14C7.16667 14 6.38611 13.8417 5.65833 13.525C4.93056 13.2084 4.29722 12.7806 3.75833 12.2417C3.21944 11.7028 2.79167 11.0695 2.475 10.3417C2.15833 9.61393 2 8.83337 2 8.00004C2 7.32226 2.11111 6.66393 2.33333 6.02504C2.55556 5.38615 2.87778 4.80004 3.3 4.26671C3.42222 4.11115 3.57778 4.03615 3.76667 4.04171C3.95556 4.04726 4.12222 4.12226 4.26667 4.26671C4.38889 4.38893 4.44444 4.53893 4.43333 4.71671C4.42222 4.89449 4.36111 5.06115 4.25 5.21671C3.95 5.61671 3.72222 6.0556 3.56667 6.53337C3.41111 7.01115 3.33333 7.50004 3.33333 8.00004C3.33333 9.30004 3.78611 10.4028 4.69167 11.3084C5.59722 12.2139 6.7 12.6667 8 12.6667C9.3 12.6667 10.4028 12.2139 11.3083 11.3084C12.2139 10.4028 12.6667 9.30004 12.6667 8.00004C12.6667 7.48893 12.5917 6.99171 12.4417 6.50837C12.2917 6.02504 12.0556 5.58337 11.7333 5.18337C11.6222 5.03893 11.5611 4.8806 11.55 4.70837C11.5389 4.53615 11.5944 4.38893 11.7167 4.26671C11.85 4.13337 12.0111 4.06393 12.2 4.05837C12.3889 4.05282 12.5444 4.12226 12.6667 4.26671C13.1 4.80004 13.4306 5.38337 13.6583 6.01671C13.8861 6.65004 14 7.31115 14 8.00004C14 8.83337 13.8417 9.61393 13.525 10.3417C13.2083 11.0695 12.7806 11.7028 12.2417 12.2417C11.7028 12.7806 11.0694 13.2084 10.3417 13.525C9.61389 13.8417 8.83333 14 8 14Z" fill="#1C1C1C"/>
</g>
</svg>
