<svg width="16" height="16" viewBox="0 0 16 16" fill="none" xmlns="http://www.w3.org/2000/svg">
<path d="M6 0.277994C6.09737 0.396731 6.15701 0.541866 6.17126 0.694755C6.18552 0.847645 6.15374 1.0013 6.08 1.13599C5.50154 2.19734 5.19959 3.38725 5.202 4.59599C5.202 8.61699 8.48 11.873 12.52 11.873C13.048 11.8723 13.559 11.819 14.053 11.713C14.2041 11.6807 14.3614 11.6934 14.5054 11.7495C14.6494 11.8057 14.7737 11.9029 14.863 12.029C14.9575 12.1603 15.0057 12.3192 15.0001 12.4808C14.9945 12.6424 14.9354 12.7976 14.832 12.922C14.0476 13.8854 13.0582 14.6616 11.9358 15.1941C10.8134 15.7266 9.58631 16.0019 8.344 16C3.734 16 0 12.286 0 7.70999C0 4.26599 2.114 1.31199 5.124 0.0599944C5.27389 -0.00370555 5.44043 -0.0168868 5.59847 0.0224426C5.75651 0.0617719 5.89745 0.151475 6 0.277994ZM4.858 1.31099C3.70067 1.93191 2.73317 2.85474 2.05827 3.98144C1.38338 5.10814 1.02631 6.39663 1.025 7.70999C1.025 11.73 4.304 14.986 8.344 14.986C9.31141 14.9874 10.2695 14.7971 11.1629 14.426C12.0563 14.0549 12.8673 13.5104 13.549 12.824C13.2117 12.866 12.8687 12.887 12.52 12.887C7.91 12.887 4.177 9.17299 4.177 4.59699C4.177 3.42999 4.419 2.31899 4.858 1.31099Z" fill="#1A1A1A"/>
<path d="M10.794 3.14797C10.8083 3.10466 10.836 3.06698 10.8729 3.04027C10.9099 3.01356 10.9544 2.99918 11 2.99918C11.0456 2.99918 11.0901 3.01356 11.1271 3.04027C11.164 3.06698 11.1917 3.10466 11.206 3.14797L11.593 4.30997C11.766 4.82797 12.172 5.23397 12.69 5.40697L13.852 5.79397C13.8953 5.80831 13.933 5.83593 13.9597 5.87291C13.9864 5.90989 14.0008 5.95435 14.0008 5.99997C14.0008 6.04559 13.9864 6.09004 13.9597 6.12702C13.933 6.164 13.8953 6.19163 13.852 6.20597L12.69 6.59297C12.4344 6.67781 12.2021 6.82116 12.0116 7.01161C11.8212 7.20206 11.6778 7.43434 11.593 7.68997L11.206 8.85197C11.1917 8.89527 11.164 8.93296 11.1271 8.95967C11.0901 8.98638 11.0456 9.00075 11 9.00075C10.9544 9.00075 10.9099 8.98638 10.8729 8.95967C10.836 8.93296 10.8083 8.89527 10.794 8.85197L10.407 7.68997C10.3222 7.43434 10.1788 7.20206 9.98835 7.01161C9.7979 6.82116 9.56562 6.67781 9.30999 6.59297L8.14799 6.20597C8.10469 6.19163 8.067 6.164 8.04029 6.12702C8.01358 6.09004 7.99921 6.04559 7.99921 5.99997C7.99921 5.95435 8.01358 5.90989 8.04029 5.87291C8.067 5.83593 8.10469 5.80831 8.14799 5.79397L9.30999 5.40697C9.56562 5.32213 9.7979 5.17878 9.98835 4.98833C10.1788 4.79788 10.3222 4.56559 10.407 4.30997L10.794 3.14797ZM13.863 0.0989675C13.8729 0.0704938 13.8914 0.0458034 13.9159 0.0283291C13.9405 0.0108548 13.9699 0.00146484 14 0.00146484C14.0301 0.00146484 14.0595 0.0108548 14.0841 0.0283291C14.1086 0.0458034 14.1271 0.0704938 14.137 0.0989675L14.395 0.872967C14.51 1.21897 14.781 1.48997 15.127 1.60497L15.901 1.86297C15.9295 1.87284 15.9542 1.89134 15.9716 1.91589C15.9891 1.94044 15.9985 1.96983 15.9985 1.99997C15.9985 2.0301 15.9891 2.05949 15.9716 2.08404C15.9542 2.1086 15.9295 2.1271 15.901 2.13697L15.127 2.39497C14.9566 2.45197 14.8018 2.54776 14.6748 2.67478C14.5478 2.80181 14.452 2.95661 14.395 3.12697L14.137 3.90097C14.1271 3.92944 14.1086 3.95413 14.0841 3.97161C14.0595 3.98908 14.0301 3.99847 14 3.99847C13.9699 3.99847 13.9405 3.98908 13.9159 3.97161C13.8914 3.95413 13.8729 3.92944 13.863 3.90097L13.605 3.12697C13.548 2.95661 13.4522 2.80181 13.3252 2.67478C13.1982 2.54776 13.0434 2.45197 12.873 2.39497L12.099 2.13697C12.0705 2.1271 12.0458 2.1086 12.0284 2.08404C12.0109 2.05949 12.0015 2.0301 12.0015 1.99997C12.0015 1.96983 12.0109 1.94044 12.0284 1.91589C12.0458 1.89134 12.0705 1.87284 12.099 1.86297L12.873 1.60497C13.219 1.48997 13.49 1.21897 13.605 0.872967L13.863 0.0989675Z" fill="#1A1A1A"/>
</svg>
