<svg width="16" height="14" viewBox="0 0 16 14" fill="none" xmlns="http://www.w3.org/2000/svg">
<path d="M13.359 10.238C15.06 8.72 16 7 16 7C16 7 13 1.5 8.00001 1.5C7.03952 1.50251 6.08982 1.70266 5.21001 2.088L5.98001 2.859C6.62773 2.62425 7.31106 2.5028 8.00001 2.5C10.12 2.5 11.879 3.668 13.168 4.957C13.789 5.58008 14.3452 6.26459 14.828 7C14.7707 7.08667 14.7057 7.18267 14.633 7.288C14.298 7.768 13.803 8.408 13.168 9.043C13.0033 9.20833 12.831 9.37033 12.651 9.529L13.359 10.238Z" fill="#1A1A1A"/>
<path d="M11.297 8.17599C11.5202 7.55183 11.5615 6.87714 11.4162 6.23041C11.2709 5.58368 10.9449 4.99151 10.4762 4.52281C10.0075 4.0541 9.41531 3.72813 8.76858 3.58282C8.12186 3.43751 7.44716 3.47883 6.823 3.70199L7.646 4.52499C8.03031 4.46998 8.42215 4.50523 8.79047 4.62795C9.1588 4.75067 9.49347 4.95748 9.76799 5.232C10.0425 5.50652 10.2493 5.8412 10.372 6.20952C10.4948 6.57784 10.53 6.96968 10.475 7.35399L11.297 8.17599ZM8.354 9.47499L9.176 10.297C8.55185 10.5201 7.87715 10.5615 7.23042 10.4162C6.5837 10.2708 5.99153 9.94488 5.52282 9.47617C5.05412 9.00746 4.72814 8.41529 4.58283 7.76857C4.43752 7.12184 4.47885 6.44715 4.702 5.82299L5.525 6.64599C5.47 7.0303 5.50525 7.42214 5.62797 7.79046C5.75068 8.15878 5.9575 8.49346 6.23201 8.76798C6.50653 9.0425 6.84121 9.24931 7.20953 9.37203C7.57785 9.49474 7.96969 9.53 8.354 9.47499Z" fill="#1A1A1A"/>
<path d="M3.35 4.47C3.17 4.63 2.99733 4.79233 2.832 4.957C2.21097 5.58007 1.65478 6.26458 1.172 7L1.367 7.288C1.702 7.768 2.197 8.408 2.832 9.043C4.121 10.332 5.881 11.5 8 11.5C8.716 11.5 9.39 11.367 10.02 11.14L10.79 11.912C9.91019 12.2973 8.96049 12.4975 8 12.5C3 12.5 0 7 0 7C0 7 0.939 5.279 2.641 3.762L3.349 4.471L3.35 4.47ZM13.646 13.354L1.646 1.354L2.354 0.645996L14.354 12.646L13.646 13.354Z" fill="#1A1A1A"/>
</svg>
