<svg width="16" height="14" viewBox="0 0 16 14" fill="none" xmlns="http://www.w3.org/2000/svg">
<path d="M7.93801 1.01595C7.95761 1.0052 7.97965 0.999694 8.00201 0.999952C8.02402 0.999864 8.0457 1.00537 8.06501 1.01595C8.08775 1.02982 8.10639 1.04949 8.11901 1.07295L14.976 12.74C15.012 12.8 15.011 12.864 14.978 12.923C14.9643 12.9464 14.9459 12.9668 14.924 12.983C14.9047 12.9962 14.8813 13.0022 14.858 13H1.14601C1.1227 13.0022 1.09934 12.9962 1.08001 12.983C1.05812 12.9668 1.03974 12.9464 1.02601 12.923C1.00995 12.8951 1.00166 12.8634 1.00201 12.8312C1.00237 12.799 1.01134 12.7675 1.02801 12.74L7.88401 1.07295C7.89663 1.04949 7.91527 1.02982 7.93801 1.01595ZM8.98201 0.565952C8.88302 0.393516 8.74028 0.250251 8.56821 0.150624C8.39614 0.0509974 8.20084 -0.00146484 8.00201 -0.00146484C7.80318 -0.00146484 7.60787 0.0509974 7.4358 0.150624C7.26373 0.250251 7.121 0.393516 7.02201 0.565952L0.165007 12.233C-0.291993 13.011 0.256007 14 1.14501 14H14.858C15.747 14 16.296 13.01 15.838 12.233L8.98201 0.565952Z" fill="#1A1A1A"/>
<path d="M7.00201 11C7.00201 10.8687 7.02788 10.7386 7.07813 10.6173C7.12839 10.496 7.20205 10.3857 7.29491 10.2929C7.38777 10.2 7.49801 10.1264 7.61933 10.0761C7.74066 10.0259 7.87069 10 8.00201 10C8.13334 10 8.26337 10.0259 8.3847 10.0761C8.50602 10.1264 8.61626 10.2 8.70912 10.2929C8.80198 10.3857 8.87564 10.496 8.92589 10.6173C8.97615 10.7386 9.00201 10.8687 9.00201 11C9.00201 11.2652 8.89666 11.5196 8.70912 11.7071C8.52158 11.8946 8.26723 12 8.00201 12C7.7368 12 7.48244 11.8946 7.29491 11.7071C7.10737 11.5196 7.00201 11.2652 7.00201 11ZM7.10001 4.995C7.0867 4.86884 7.10005 4.74129 7.13921 4.62062C7.17838 4.49996 7.24247 4.38888 7.32733 4.29458C7.4122 4.20029 7.51594 4.12489 7.63183 4.07328C7.74771 4.02167 7.87315 3.995 8.00001 3.995C8.12687 3.995 8.25232 4.02167 8.3682 4.07328C8.48409 4.12489 8.58783 4.20029 8.6727 4.29458C8.75756 4.38888 8.82165 4.49996 8.86081 4.62062C8.89998 4.74129 8.91333 4.86884 8.90001 4.995L8.55001 8.502C8.53825 8.63977 8.47522 8.76811 8.37337 8.86163C8.27152 8.95515 8.13829 9.00705 8.00001 9.00705C7.86174 9.00705 7.7285 8.95515 7.62666 8.86163C7.52481 8.76811 7.46177 8.63977 7.45001 8.502L7.10001 4.995Z" fill="#1A1A1A"/>
</svg>
